<svg version="1.1" id="Layer_1" xmlns="http://www.w3.org/2000/svg" xmlns:xlink="http://www.w3.org/1999/xlink" x="0px" y="0px"
	 width="100%" viewBox="0 0 319 301" enable-background="new 0 0 319 301" xml:space="preserve">
<path fill="#000000" opacity="0.000000" stroke="none" 
	d="
M221.000000,302.000000 
	C147.333374,302.000000 74.166733,302.000000 1.000078,302.000000 
	C1.000052,201.666748 1.000052,101.333496 1.000026,1.000186 
	C107.333199,1.000124 213.666397,1.000124 319.999695,1.000062 
	C319.999817,101.333153 319.999817,201.666306 319.999908,301.999725 
	C287.166656,302.000000 254.333328,302.000000 221.000000,302.000000 
M185.453751,144.809830 
	C185.730835,144.605743 185.902985,144.334961 186.408905,143.516739 
	C186.601059,142.675461 186.793228,141.834167 187.585419,140.524063 
	C188.059448,136.174759 188.650391,131.834106 188.973145,127.473618 
	C189.268845,123.478683 187.314743,121.094971 183.422638,119.844620 
	C181.875900,119.347717 179.999161,117.862640 179.530869,116.419250 
	C178.340744,112.750923 177.861069,108.852089 177.592270,104.507393 
	C178.026428,102.354889 178.460587,100.202385 178.922852,97.376320 
	C178.870636,96.931160 178.818420,96.485992 178.812286,95.224632 
	C178.796921,94.133430 178.781570,93.042236 178.878357,91.087791 
	C179.110626,87.470070 180.513199,83.399506 179.325897,80.331070 
	C177.019424,74.370323 173.793137,68.568764 169.938339,63.463558 
	C166.611893,59.058056 161.349213,57.025978 154.319397,56.594513 
	C155.786819,59.234406 156.679245,60.718174 157.453506,62.261238 
	C158.614990,64.576012 159.413010,66.911621 156.468903,69.287483 
	C155.975403,69.596237 155.481918,69.904999 154.316772,70.181396 
	C151.327301,70.157387 148.334793,70.211266 145.348969,70.094353 
	C137.287155,69.778687 129.230576,69.212708 121.167137,69.105629 
	C117.129005,69.052010 113.080460,69.782501 108.312622,70.045387 
	C107.582024,69.992813 106.851425,69.940247 105.898201,69.195877 
	C103.072632,65.640244 103.842209,62.219242 106.787704,58.879726 
	C106.488640,58.503838 106.189575,58.127953 105.890518,57.752068 
	C102.040520,59.290379 98.190529,60.828693 95.684326,61.830074 
	C94.474785,64.640434 93.862358,66.466141 92.928650,68.109276 
	C92.138519,69.499733 90.976501,70.678864 89.435722,72.372520 
	C84.136208,81.703133 79.456787,91.268059 78.088341,102.811363 
	C77.589874,104.067589 76.905479,105.284744 76.631653,106.588165 
	C76.062103,109.299179 75.526604,112.043983 75.347641,114.798965 
	C75.260887,116.134323 76.327011,117.523666 76.328423,118.889130 
	C76.336411,126.589081 76.179535,134.289215 76.160110,142.742767 
	C76.657036,144.474426 76.776917,146.448425 77.709846,147.899841 
	C86.056343,160.884995 93.725029,174.711884 111.232544,177.288940 
	C111.815437,177.374756 112.270477,178.139008 112.868469,178.344772 
	C115.686722,179.314529 118.534073,180.199738 122.186905,181.169891 
	C124.359291,181.240952 126.531670,181.312012 129.570999,181.735336 
	C131.725082,181.720810 133.879181,181.706284 136.866837,181.820877 
	C139.246857,181.553879 141.626892,181.286880 144.782028,181.005753 
	C147.277100,179.941711 149.682663,178.506439 152.283112,177.879486 
	C162.247498,175.477097 169.145706,168.723389 175.595963,161.502792 
	C178.064865,158.739059 179.524506,155.073776 181.507370,151.440918 
	C181.507370,151.440918 181.452148,151.061264 181.778946,150.557480 
	C181.855698,150.372818 181.932449,150.188156 182.556931,149.628845 
	C183.380341,148.093506 184.203766,146.558151 185.004990,144.996460 
	C185.004990,144.996460 185.014191,145.027481 185.453751,144.809830 
z"/>
<path fill="#414245" opacity="0.000000" stroke="none" 
	d="
M109.036621,70.158356 
	C113.080460,69.782501 117.129005,69.052010 121.167137,69.105629 
	C129.230576,69.212708 137.287155,69.778687 145.348969,70.094353 
	C148.334793,70.211266 151.327301,70.157387 154.776413,70.483505 
	C156.491608,71.858429 157.747177,72.931244 159.001373,74.002029 
	C159.000000,74.000000 158.995987,73.997299 159.124634,74.308990 
	C160.093338,75.396011 161.224838,76.019279 161.722534,76.973213 
	C163.781525,80.919716 170.250748,81.335526 169.561646,87.012146 
	C166.144699,84.457237 163.497726,80.882690 158.416916,82.566437 
	C157.487823,82.464973 156.867874,82.411987 156.038834,82.046234 
	C151.944962,75.328300 146.190933,72.205780 138.765686,72.127869 
	C132.983795,72.067192 127.183548,71.834946 121.424652,72.201065 
	C117.794853,72.431824 113.484436,72.146362 111.610649,77.075623 
	C110.260109,78.523643 109.183357,79.781868 107.882881,81.154388 
	C107.442200,81.520096 107.225250,81.771507 106.581284,82.002571 
	C101.083450,81.587723 96.831139,83.290848 93.519608,87.127724 
	C91.612320,89.337593 89.893715,91.710304 87.889633,93.716095 
	C87.712273,92.006325 87.137207,90.027817 87.854797,89.264435 
	C92.872086,83.926933 96.584076,77.074936 104.716064,75.213043 
	C106.451073,74.815796 107.611488,71.909012 109.036621,70.158356 
z"/>
<path fill="#36393D" opacity="0.000000" stroke="none" 
	d="
M108.674622,70.101868 
	C107.611488,71.909012 106.451073,74.815796 104.716064,75.213043 
	C96.584076,77.074936 92.872086,83.926933 87.854797,89.264435 
	C87.137207,90.027817 87.712273,92.006325 87.847870,94.150543 
	C87.874428,96.908882 87.742203,98.939156 87.281189,101.033112 
	C85.209976,103.302765 83.467545,105.508728 81.522827,107.970795 
	C80.432884,106.056702 79.313133,104.090256 78.193382,102.123817 
	C79.456787,91.268059 84.136208,81.703133 89.834885,72.458557 
	C90.488831,73.362724 90.743622,74.180862 90.729095,75.202957 
	C89.625816,77.038460 88.791847,78.670021 87.957886,80.301575 
	C88.507317,80.510605 89.056755,80.719627 89.606186,80.928650 
	C90.071373,78.953041 90.536568,76.977440 91.289604,74.851669 
	C93.662964,73.944633 95.731293,73.135422 97.838234,72.443886 
	C100.583076,71.542976 103.358543,70.735413 106.120827,69.887680 
	C106.851425,69.940247 107.582024,69.992813 108.674622,70.101868 
z"/>
<path fill="#414245" opacity="0.000000" stroke="none" 
	d="
M78.140862,102.467590 
	C79.313133,104.090256 80.432884,106.056702 81.522827,107.970795 
	C83.467545,105.508728 85.209976,103.302765 87.398056,101.354416 
	C87.936729,102.057602 88.029747,102.503189 87.963181,103.219193 
	C89.851807,109.056038 89.944946,114.529724 87.129814,119.910728 
	C86.846405,120.452454 86.964447,121.204208 86.481232,121.881729 
	C83.676590,122.991066 79.404198,119.677223 78.799286,125.350662 
	C79.024101,126.767845 79.277840,127.836426 79.452545,129.327560 
	C79.088150,130.851120 78.802788,131.952133 78.346848,133.268845 
	C78.068405,134.578125 77.960541,135.671677 77.908112,137.199478 
	C78.032356,139.090256 78.101158,140.546814 77.821060,141.998322 
	C77.007721,141.991943 76.543282,141.990616 76.078857,141.989288 
	C76.179535,134.289215 76.336411,126.589081 76.328423,118.889130 
	C76.327011,117.523666 75.260887,116.134323 75.347641,114.798965 
	C75.526604,112.043983 76.062103,109.299179 76.631653,106.588165 
	C76.905479,105.284744 77.589874,104.067589 78.140862,102.467590 
z"/>
<path fill="#2E3034" opacity="0.000000" stroke="none" 
	d="
M156.967865,68.987015 
	C159.413010,66.911621 158.614990,64.576012 157.453506,62.261238 
	C156.679245,60.718174 155.786819,59.234406 154.319397,56.594513 
	C161.349213,57.025978 166.611893,59.058056 169.938339,63.463558 
	C173.793137,68.568764 177.019424,74.370323 179.325897,80.331070 
	C180.513199,83.399506 179.110626,87.470070 178.594666,91.302177 
	C177.952072,90.123512 177.636475,88.717499 177.224091,87.340469 
	C176.616821,85.312645 176.502914,82.778107 175.194321,81.382683 
	C170.082367,75.931511 164.457443,71.030746 156.967865,68.987015 
M162.473114,66.504623 
	C162.473114,66.504623 162.511658,66.491524 162.473114,66.504623 
z"/>
<path fill="#414245" opacity="0.000000" stroke="none" 
	d="
M177.097000,105.045532 
	C177.861069,108.852089 178.340744,112.750923 179.530869,116.419250 
	C179.999161,117.862640 181.875900,119.347717 183.422638,119.844620 
	C187.314743,121.094971 189.268845,123.478683 188.973145,127.473618 
	C188.650391,131.834106 188.059448,136.174759 187.091400,140.527283 
	C186.055573,139.684204 185.513779,138.837891 184.978317,137.534363 
	C184.974442,133.723297 184.964203,130.369461 185.093658,126.756332 
	C185.241730,123.654427 184.553024,121.626396 180.597992,122.922485 
	C179.015869,123.119255 177.870911,123.298027 176.435272,123.443909 
	C175.755753,123.376663 175.366943,123.342308 174.749512,123.032028 
	C173.370651,122.478828 172.220413,122.201553 171.056076,121.601349 
	C171.032700,120.846802 171.023407,120.415192 171.016022,119.570663 
	C170.939163,115.658844 170.860397,112.159943 170.771332,108.256485 
	C171.362289,105.149918 172.312225,102.464485 172.441681,99.740059 
	C172.527405,97.936073 171.436813,96.076187 170.782700,93.871056 
	C170.536392,93.016777 170.380219,92.532784 170.446487,92.047340 
	C170.668930,92.045898 171.112717,92.014359 171.502533,92.026535 
	C175.144379,92.082428 175.866913,94.134781 176.039749,96.918365 
	C176.208664,99.638817 176.730240,102.337364 177.097000,105.045532 
z"/>
<path fill="#8C8D90" opacity="0.000000" stroke="none" 
	d="
M78.169960,142.003357 
	C78.101158,140.546814 78.032356,139.090256 78.178162,137.232910 
	C78.749054,136.869156 79.105347,136.906204 79.739380,137.195267 
	C81.422813,139.983658 82.828506,142.520004 84.329208,145.394348 
	C84.817451,146.829742 85.210693,147.927139 85.516006,149.300262 
	C86.810707,151.506058 88.193329,153.436142 89.665916,155.676315 
	C90.745537,157.053391 91.735191,158.120346 92.785095,159.503357 
	C93.517693,160.595322 94.190033,161.371277 95.070946,162.324951 
	C95.712814,162.837280 96.146118,163.171906 96.729370,163.770264 
	C97.818520,164.791840 98.757713,165.549713 99.946854,166.546799 
	C103.786163,168.807602 107.375534,170.829163 111.235901,172.962158 
	C112.676697,173.162033 113.846489,173.250504 115.381500,173.460602 
	C116.506729,173.697067 117.266731,173.811905 118.155014,174.212616 
	C119.135040,175.083572 119.986809,175.668625 120.998901,176.503326 
	C121.877823,176.964218 122.596413,177.175476 123.759079,177.415985 
	C128.466217,177.409210 132.729263,177.373199 137.028503,177.668716 
	C137.091354,178.220978 137.118027,178.441711 136.945984,178.850464 
	C136.467789,179.494308 136.188324,179.950119 135.548218,180.387543 
	C133.026398,180.707138 130.865234,181.045105 128.704056,181.383072 
	C126.531670,181.312012 124.359291,181.240952 121.710144,180.835785 
	C114.539612,177.087753 107.693336,173.938889 101.188705,170.196259 
	C92.013329,164.916931 85.266159,157.436417 81.825439,147.163589 
	C81.184532,145.250061 79.417358,143.713760 78.169960,142.003357 
z"/>
<path fill="#36393D" opacity="0.000000" stroke="none" 
	d="
M177.344635,104.776459 
	C176.730240,102.337364 176.208664,99.638817 176.039749,96.918365 
	C175.866913,94.134781 175.144379,92.082428 171.388916,91.683487 
	C170.541351,89.948105 170.197220,88.567932 169.853088,87.187767 
	C170.250748,81.335526 163.781525,80.919716 161.722534,76.973213 
	C161.224838,76.019279 160.093338,75.396011 159.160080,74.288589 
	C159.066864,73.956497 159.002731,74.004066 159.002731,74.004066 
	C157.747177,72.931244 156.491608,71.858429 155.112244,70.499680 
	C155.481918,69.904999 155.975403,69.596237 156.718384,69.137253 
	C164.457443,71.030746 170.082367,75.931511 175.194321,81.382683 
	C176.502914,82.778107 176.616821,85.312645 177.224091,87.340469 
	C177.636475,88.717499 177.952072,90.123512 178.538605,91.733795 
	C178.781570,93.042236 178.796921,94.133430 178.619598,95.773270 
	C178.177765,96.820808 177.928619,97.319717 177.679474,97.818634 
	C178.084564,97.895706 178.489655,97.972794 178.894745,98.049881 
	C178.460587,100.202385 178.026428,102.354889 177.344635,104.776459 
z"/>
<path fill="#58595D" opacity="0.000000" stroke="none" 
	d="
M77.821060,141.998322 
	C79.417358,143.713760 81.184532,145.250061 81.825439,147.163589 
	C85.266159,157.436417 92.013329,164.916931 101.188705,170.196259 
	C107.693336,173.938889 114.539612,177.087753 121.302216,180.808380 
	C118.534073,180.199738 115.686722,179.314529 112.868469,178.344772 
	C112.270477,178.139008 111.815437,177.374756 111.232544,177.288940 
	C93.725029,174.711884 86.056343,160.884995 77.709846,147.899841 
	C76.776917,146.448425 76.657036,144.474426 76.119476,142.366028 
	C76.543282,141.990616 77.007721,141.991943 77.821060,141.998322 
z"/>
<path fill="#4D4F53" opacity="0.000000" stroke="none" 
	d="
M181.444061,151.819321 
	C179.524506,155.073776 178.064865,158.739059 175.595963,161.502792 
	C169.145706,168.723389 162.247498,175.477097 152.283112,177.879486 
	C149.682663,178.506439 147.277100,179.941711 144.381012,180.647476 
	C143.960876,179.802139 143.941757,179.315063 144.118988,178.578369 
	C145.874283,177.250046 147.433243,176.171371 149.316879,175.060425 
	C151.218277,174.745331 152.794998,174.462524 154.694626,174.278519 
	C155.689209,173.926468 156.360901,173.475616 157.117310,172.739761 
	C157.255554,172.064041 157.309097,171.673340 157.666290,171.160767 
	C159.150772,170.476654 160.331635,169.914413 161.870667,169.436279 
	C163.156113,168.350647 164.083359,167.180893 165.195160,165.809280 
	C165.822388,165.289246 166.265045,164.971085 167.058777,164.668762 
	C168.411255,163.919128 169.487717,163.233444 170.400879,162.374191 
	C174.109207,158.884872 177.767395,155.342270 181.444061,151.819321 
z"/>
<path fill="#2E3034" opacity="0.000000" stroke="none" 
	d="
M90.998413,74.999001 
	C90.743622,74.180862 90.488831,73.362724 90.106552,72.248055 
	C90.976501,70.678864 92.138519,69.499733 92.928650,68.109276 
	C93.862358,66.466141 94.474785,64.640434 95.684326,61.830074 
	C98.190529,60.828693 102.040520,59.290379 105.890518,57.752068 
	C106.189575,58.127953 106.488640,58.503838 106.787704,58.879726 
	C103.842209,62.219242 103.072632,65.640244 106.009514,69.541779 
	C103.358543,70.735413 100.583076,71.542976 97.838234,72.443886 
	C95.731293,73.135422 93.662964,73.944633 91.288727,74.850754 
	C91.000000,75.000000 90.998405,74.999001 90.998413,74.999001 
z"/>
<path fill="#747578" opacity="0.000000" stroke="none" 
	d="
M181.475708,151.630127 
	C177.767395,155.342270 174.109207,158.884872 170.400879,162.374191 
	C169.487717,163.233444 168.411255,163.919128 167.184509,164.362320 
	C168.669403,161.023300 170.379639,158.006577 172.229813,154.677826 
	C174.272934,150.931305 176.176102,147.496811 178.393478,143.916290 
	C184.879440,136.023376 184.219879,129.269333 176.725952,123.476807 
	C177.870911,123.298027 179.015869,123.119255 180.802399,123.166550 
	C182.613983,124.600288 183.783981,125.807953 184.953979,127.015617 
	C184.964203,130.369461 184.974442,133.723297 184.786804,137.817902 
	C183.658554,140.664825 182.728180,142.770981 181.601654,145.216949 
	C181.199677,147.110931 180.993866,148.665054 180.853058,150.392212 
	C181.030563,150.801071 181.208588,150.966415 181.452148,151.061264 
	C181.452148,151.061264 181.507370,151.440918 181.475708,151.630127 
z"/>
<path fill="#58595D" opacity="0.000000" stroke="none" 
	d="
M143.922638,178.828003 
	C143.941757,179.315063 143.960876,179.802139 143.993454,180.654541 
	C141.626892,181.286880 139.246857,181.553879 136.419037,181.434860 
	C135.950455,180.834549 135.929657,180.620239 135.908844,180.405914 
	C136.188324,179.950119 136.467789,179.494308 137.221588,178.854080 
	C138.061462,178.631653 138.427032,178.593643 139.214920,178.646759 
	C141.065720,178.767929 142.494186,178.797958 143.922638,178.828003 
z"/>
<path fill="#4D4F53" opacity="0.000000" stroke="none" 
	d="
M181.797806,144.877121 
	C182.728180,142.770981 183.658554,140.664825 184.780457,138.275131 
	C185.513779,138.837891 186.055573,139.684204 186.791382,140.761703 
	C186.793228,141.834167 186.601059,142.675461 186.009476,143.908569 
	C185.380112,144.517105 185.181503,144.759460 185.014191,145.027481 
	C185.014191,145.027481 185.004990,144.996460 184.613617,144.998322 
	C183.414093,144.959152 182.605942,144.918137 181.797806,144.877121 
z"/>
<path fill="#414245" opacity="0.000000" stroke="none" 
	d="
M181.601654,145.216949 
	C182.605942,144.918137 183.414093,144.959152 184.624710,145.011505 
	C184.203766,146.558151 183.380341,148.093506 181.976807,149.864532 
	C181.193802,150.139893 180.990921,150.179550 180.788055,150.219193 
	C180.993866,148.665054 181.199677,147.110931 181.601654,145.216949 
z"/>
<path fill="#4D4F53" opacity="0.000000" stroke="none" 
	d="
M135.548218,180.387543 
	C135.929657,180.620239 135.950455,180.834549 136.002258,181.370300 
	C133.879181,181.706284 131.725082,181.720810 129.137527,181.559204 
	C130.865234,181.045105 133.026398,180.707138 135.548218,180.387543 
z"/>
<path fill="#2E3034" opacity="0.000000" stroke="none" 
	d="
M178.908813,97.713104 
	C178.489655,97.972794 178.084564,97.895706 177.679474,97.818634 
	C177.928619,97.319717 178.177765,96.820808 178.596558,96.181366 
	C178.818420,96.485992 178.870636,96.931160 178.908813,97.713104 
z"/>
<path fill="#4D4F53" opacity="0.000000" stroke="none" 
	d="
M180.853058,150.392212 
	C180.990921,150.179550 181.193802,150.139893 181.702942,150.051849 
	C181.932449,150.188156 181.855698,150.372818 181.615540,150.809372 
	C181.208588,150.966415 181.030563,150.801071 180.853058,150.392212 
z"/>
<path fill="#414245" opacity="0.000000" stroke="none" 
	d="
M185.233978,144.918655 
	C185.181503,144.759460 185.380112,144.517105 185.790131,144.148926 
	C185.902985,144.334961 185.730835,144.605743 185.233978,144.918655 
z"/>
<path fill="#808183" opacity="0.000000" stroke="none" 
	d="
M88.122772,102.948769 
	C88.029747,102.503189 87.936729,102.057602 87.726845,101.290726 
	C87.742203,98.939156 87.874428,96.908882 88.048416,94.444168 
	C89.893715,91.710304 91.612320,89.337593 93.519608,87.127724 
	C96.831139,83.290848 101.083450,81.587723 106.589363,82.352097 
	C107.032837,83.188286 107.041222,83.654602 106.789825,84.390396 
	C103.949745,85.690094 101.369423,86.720314 98.475357,87.810120 
	C97.416496,88.543983 96.671379,89.218254 95.771767,90.079437 
	C95.401642,90.507751 95.173492,90.736687 94.616699,91.088699 
	C89.720345,97.646194 89.939529,100.931976 95.553223,106.963181 
	C96.428711,107.533104 97.088730,107.912292 97.778923,108.597488 
	C97.936806,109.506226 98.064522,110.108940 97.835434,110.778503 
	C96.996910,110.874275 96.515190,110.903183 95.697617,110.847404 
	C92.948761,108.158058 90.535767,105.553413 88.122772,102.948769 
z"/>
<path fill="#656669" opacity="0.000000" stroke="none" 
	d="
M111.884445,76.885834 
	C113.484436,72.146362 117.794853,72.431824 121.424652,72.201065 
	C127.183548,71.834946 132.983795,72.067192 138.765686,72.127869 
	C146.190933,72.205780 151.944962,75.328300 155.975616,82.370880 
	C156.086731,83.227219 156.052002,83.446136 155.669525,83.513496 
	C153.256073,81.855484 151.190353,80.349030 148.992233,78.547989 
	C146.580231,77.110764 144.300598,75.968140 141.589325,74.805130 
	C139.429810,74.751427 137.701920,74.718102 135.674561,74.557083 
	C132.251648,74.555099 129.128235,74.680801 125.575027,74.800629 
	C123.425110,74.795937 121.704979,74.797127 119.725723,74.658859 
	C118.241943,75.238411 117.017296,75.957420 115.753189,76.709869 
	C115.713737,76.743309 115.642357,76.818161 115.365936,76.835373 
	C114.729134,76.932671 114.368752,77.012756 113.654762,77.056427 
	C112.828918,76.975281 112.356682,76.930557 111.884445,76.885834 
z"/>
<path fill="#656669" opacity="0.000000" stroke="none" 
	d="
M169.561646,87.012146 
	C170.197220,88.567932 170.541351,89.948105 170.999100,91.671318 
	C171.112717,92.014359 170.668930,92.045898 170.232788,91.909317 
	C168.952591,91.126312 168.108536,90.479897 167.005463,89.628731 
	C165.228180,88.179085 163.709885,86.934189 162.068146,85.412277 
	C160.871826,84.295151 159.798950,83.455032 158.726059,82.614914 
	C163.497726,80.882690 166.144699,84.457237 169.561646,87.012146 
z"/>
<path fill="#8C8D90" opacity="0.000000" stroke="none" 
	d="
M114.008369,77.092842 
	C114.368752,77.012756 114.729134,76.932671 115.427948,77.190742 
	C115.834801,78.003609 115.903206,78.478310 115.704468,79.086761 
	C114.672409,79.817635 113.907501,80.414764 112.833542,81.081863 
	C111.650131,82.045845 110.775764,82.939850 109.545074,83.872574 
	C108.475708,83.981171 107.762650,84.051041 107.049599,84.120918 
	C107.041222,83.654602 107.032837,83.188286 107.016380,82.372444 
	C107.225250,81.771507 107.442200,81.520096 108.199417,81.062035 
	C110.495911,79.601204 112.252144,78.347023 114.008369,77.092842 
z"/>
<path fill="#8C8D90" opacity="0.000000" stroke="none" 
	d="
M158.416916,82.566437 
	C159.798950,83.455032 160.871826,84.295151 161.707397,85.409264 
	C159.652466,85.010529 157.834854,84.337791 156.017258,83.665054 
	C156.052002,83.446136 156.086731,83.227219 156.184692,82.683647 
	C156.867874,82.411987 157.487823,82.464973 158.416916,82.566437 
z"/>
<path fill="#808183" opacity="0.000000" stroke="none" 
	d="
M113.654762,77.056427 
	C112.252144,78.347023 110.495911,79.601204 108.423141,80.947731 
	C109.183357,79.781868 110.260109,78.523643 111.610649,77.075623 
	C112.356682,76.930557 112.828918,76.975281 113.654762,77.056427 
z"/>
<path fill="#2E3034" opacity="0.000000" stroke="none" 
	d="
M91.000877,75.000916 
	C90.536568,76.977440 90.071373,78.953041 89.606186,80.928650 
	C89.056755,80.719627 88.507317,80.510605 87.957886,80.301575 
	C88.791847,78.670021 89.625816,77.038460 90.729095,75.202957 
	C90.998405,74.999001 91.000000,75.000000 91.000877,75.000916 
z"/>
<path fill="#4D4F53" opacity="0.000000" stroke="none" 
	d="
M87.963188,103.219193 
	C90.535767,105.553413 92.948761,108.158058 95.760590,111.187851 
	C96.804619,113.258942 97.449821,114.904892 97.707512,115.562286 
	C94.654724,117.752472 91.742081,119.842110 88.507454,121.926697 
	C87.755699,121.900597 87.325943,121.879547 86.896179,121.858498 
	C86.964447,121.204208 86.846405,120.452454 87.129814,119.910728 
	C89.944946,114.529724 89.851807,109.056038 87.963188,103.219193 
z"/>
<path fill="#DBDBDC" opacity="0.000000" stroke="none" 
	d="
M78.517426,133.053131 
	C78.802788,131.952133 79.088150,130.851120 79.813194,129.400192 
	C80.496086,129.019211 80.739296,128.988174 81.207886,129.144791 
	C81.966125,129.575378 82.498985,129.818283 83.067719,130.428986 
	C83.399849,133.532440 83.696098,136.268127 83.774994,138.748001 
	C82.379738,136.992706 81.201828,135.493225 79.671104,133.720459 
	C79.051331,133.315842 78.784378,133.184494 78.517426,133.053131 
z"/>
<path fill="#58595D" opacity="0.000000" stroke="none" 
	d="
M86.481232,121.881729 
	C87.325943,121.879547 87.755699,121.900597 88.794998,121.947418 
	C89.595459,121.980850 89.786392,121.988525 89.996880,122.283394 
	C90.054062,122.758759 90.091690,122.946930 89.961876,123.339661 
	C89.540886,123.788910 89.287338,124.033607 88.683441,124.246246 
	C87.634613,124.294800 86.936142,124.375397 85.828796,124.335922 
	C83.222694,124.477921 81.025444,124.739990 78.828201,125.002052 
	C79.404198,119.677223 83.676590,122.991066 86.481232,121.881729 
z"/>
<path fill="#8C8D90" opacity="0.000000" stroke="none" 
	d="
M78.799286,125.350662 
	C81.025444,124.739990 83.222694,124.477921 85.612831,124.591568 
	C84.197983,126.297226 82.590240,127.627174 80.982498,128.957123 
	C80.739296,128.988174 80.496086,129.019211 79.892227,128.977631 
	C79.277840,127.836426 79.024101,126.767845 78.799286,125.350662 
z"/>
<path fill="#58595D" opacity="0.000000" stroke="none" 
	d="
M78.346848,133.268845 
	C78.784378,133.184494 79.051331,133.315842 79.492157,134.058304 
	C79.597900,135.427353 79.529770,136.185303 79.461639,136.943237 
	C79.105347,136.906204 78.749054,136.869156 78.122719,136.798676 
	C77.960541,135.671677 78.068405,134.578125 78.346848,133.268845 
z"/>
<path fill="#36393D" opacity="0.000000" stroke="none" 
	d="
M162.492386,66.498077 
	C162.511658,66.491524 162.473114,66.504623 162.492386,66.498077 
z"/>
<path fill="#ABACAD" opacity="0.000000" stroke="none" 
	d="
M176.435272,123.443909 
	C184.219879,129.269333 184.879440,136.023376 178.304810,143.559357 
	C178.336182,140.571671 178.770447,137.794876 179.329559,134.837418 
	C179.427887,134.101074 179.401382,133.545425 179.369843,132.625107 
	C178.865372,130.952606 178.365891,129.644760 177.773651,128.004578 
	C176.724350,127.235809 175.767807,126.799393 174.360397,126.279373 
	C163.666031,124.578690 153.036713,128.461731 142.773209,123.853012 
	C141.701691,123.780197 140.847855,123.881241 139.651123,124.033890 
	C138.858139,124.191223 138.408081,124.296951 137.950790,123.961456 
	C137.958984,123.227875 137.974396,122.935516 137.893204,122.490768 
	C137.796600,122.338387 137.707993,121.988586 137.924957,121.935081 
	C138.090439,120.900497 138.038956,119.919418 138.281189,118.818382 
	C140.361694,118.783142 142.148453,118.867859 144.030380,119.305733 
	C144.125259,120.145271 144.124954,120.631660 144.026459,121.185257 
	C143.928268,121.252472 143.910904,121.573036 143.910904,121.573036 
	C143.910904,121.573036 144.194199,121.754707 144.568024,121.841690 
	C148.283981,122.249260 151.626144,122.569839 155.301758,122.907066 
	C156.492142,122.722412 157.349075,122.521095 158.647369,122.293793 
	C162.345673,122.249741 165.602631,122.231697 169.065598,122.259491 
	C169.271622,122.305336 169.692200,122.341774 169.885895,122.610695 
	C171.712448,123.022392 173.345276,123.165169 174.978119,123.307953 
	C175.366943,123.342308 175.755753,123.376663 176.435272,123.443909 
z"/>
<path fill="#747578" opacity="0.000000" stroke="none" 
	d="
M170.872833,94.241333 
	C171.436813,96.076187 172.527405,97.936073 172.441681,99.740059 
	C172.312225,102.464485 171.362289,105.149918 170.456390,108.391006 
	C168.396790,110.246918 166.641861,111.563751 164.551605,113.001083 
	C161.387283,113.918594 158.558304,114.715599 155.797363,115.256226 
	C155.984482,114.473351 156.103592,113.946854 156.524887,113.376785 
	C157.229431,113.271362 157.631775,113.209518 158.275192,113.248970 
	C159.370895,112.608315 160.225540,111.866371 161.376404,110.945816 
	C165.054016,109.238472 168.443787,107.716713 168.074173,102.681946 
	C168.382172,100.525703 168.713730,98.762177 169.317993,96.880249 
	C170.018082,95.921692 170.445465,95.081512 170.872833,94.241333 
z"/>
<path fill="#4D4F53" opacity="0.000000" stroke="none" 
	d="
M164.886948,112.880585 
	C166.641861,111.563751 168.396790,110.246918 170.466675,108.795563 
	C170.860397,112.159943 170.939163,115.658844 170.681183,119.571777 
	C169.898438,119.989059 169.452408,119.992317 168.767670,119.760345 
	C166.966354,118.766479 165.403748,118.007835 163.933792,116.887100 
	C164.313263,115.310204 164.600113,114.095398 164.886948,112.880585 
z"/>
<path fill="#8C8D90" opacity="0.000000" stroke="none" 
	d="
M170.782700,93.871056 
	C170.445465,95.081512 170.018082,95.921692 169.058990,96.659981 
	C167.988586,95.062904 167.449890,93.567719 166.959778,91.698090 
	C167.093735,90.826935 167.179108,90.330208 167.264465,89.833481 
	C168.108536,90.479897 168.952591,91.126312 170.010345,91.910759 
	C170.380219,92.532784 170.536392,93.016777 170.782700,93.871056 
z"/>
<path fill="#4D4F53" opacity="0.000000" stroke="none" 
	d="
M185.093658,126.756332 
	C183.783981,125.807953 182.613983,124.600288 181.239563,123.148560 
	C184.553024,121.626396 185.241730,123.654427 185.093658,126.756332 
z"/>
<path fill="#747578" opacity="0.000000" stroke="none" 
	d="
M174.749512,123.032021 
	C173.345276,123.165169 171.712448,123.022392 170.228882,122.498917 
	C170.608841,122.053566 170.839508,121.988922 171.070160,121.924286 
	C172.220413,122.201553 173.370651,122.478828 174.749512,123.032021 
z"/>
<path fill="#5E5F61" opacity="0.000000" stroke="none" 
	d="
M171.056076,121.601349 
	C170.839508,121.988922 170.608841,122.053566 170.035187,122.229996 
	C169.692200,122.341774 169.271622,122.305336 169.099335,121.889046 
	C168.953506,120.980362 168.979950,120.487968 169.006409,119.995575 
	C169.452408,119.992317 169.898438,119.989059 170.679291,119.984695 
	C171.023407,120.415192 171.032700,120.846802 171.056076,121.601349 
z"/>
<path fill="#E0E1E2" opacity="1.000000" stroke="none" 
	d="
M96.579422,163.506531 
	C96.146118,163.171906 95.712814,162.837280 95.036758,161.996277 
	C94.104294,160.722382 93.414574,159.954849 92.724846,159.187317 
	C91.735191,158.120346 90.745537,157.053391 89.699066,155.312958 
	C88.296143,152.767853 86.950035,150.896194 85.603928,149.024536 
	C85.210693,147.927139 84.817451,146.829742 84.616638,145.385239 
	C84.997543,145.014053 85.186020,144.989975 85.627342,144.787689 
	C86.360603,143.678116 86.841034,142.746765 87.564209,142.008484 
	C89.186470,143.476990 90.565979,144.752441 92.007675,146.382751 
	C94.275665,149.251892 96.481476,151.766159 98.778320,154.448761 
	C98.869362,154.617096 99.086082,154.932602 99.105850,155.278809 
	C100.437347,156.726044 101.749069,157.827072 103.030701,158.961884 
	C103.000610,158.995682 103.061272,158.932327 103.157677,159.247742 
	C104.449669,160.846313 105.645256,162.129471 106.959633,163.726761 
	C108.760468,164.648605 110.442513,165.256348 112.450134,165.961365 
	C115.031876,167.442566 117.288025,168.826477 119.137772,170.286697 
	C116.153839,170.925308 113.576309,171.487625 110.996071,172.250366 
	C110.993362,172.450821 110.964912,172.850739 110.964912,172.850739 
	C107.375534,170.829163 103.786163,168.807602 99.932724,166.191315 
	C98.638908,164.899918 97.609161,164.203232 96.579422,163.506531 
z"/>
<path fill="#CDCFCF" opacity="1.000000" stroke="none" 
	d="
M120.838570,176.253693 
	C119.986809,175.668625 119.135040,175.083572 118.465134,174.000153 
	C120.430389,173.374191 122.213799,173.246552 124.364273,173.299530 
	C130.152603,173.983612 135.573868,174.487061 140.831726,175.227341 
	C140.198853,175.799088 139.729385,176.134018 138.996826,176.443542 
	C138.153259,176.724487 137.572784,177.030838 136.992310,177.337173 
	C132.729263,177.373199 128.466217,177.409210 123.567169,177.214828 
	C122.233643,176.740845 121.536110,176.497269 120.838570,176.253693 
z"/>
<path fill="#F6F7F8" opacity="1.000000" stroke="none" 
	d="
M123.997208,173.118927 
	C122.213799,173.246552 120.430389,173.374191 118.336861,173.714279 
	C117.266731,173.811905 116.506729,173.697067 115.205841,173.209167 
	C113.442902,172.574066 112.220840,172.311996 110.998779,172.049927 
	C113.576309,171.487625 116.153839,170.925308 119.561668,170.328247 
	C127.590714,170.179016 134.789459,170.064529 142.256256,170.123596 
	C144.327133,170.872620 146.129959,171.448105 147.925568,172.220306 
	C147.918381,172.417023 147.958344,172.808670 147.711746,172.892944 
	C147.291412,172.977524 147.117676,172.977829 146.803680,172.987488 
	C146.479050,173.035629 146.311523,173.111526 145.833282,173.353104 
	C145.039673,173.476486 144.573639,173.471283 144.096176,173.208405 
	C137.388916,173.006805 130.693054,173.062866 123.997208,173.118927 
z"/>
<path fill="#BFBFC1" opacity="1.000000" stroke="none" 
	d="
M79.739380,137.195267 
	C79.529770,136.185303 79.597900,135.427353 79.844986,134.331573 
	C81.201828,135.493225 82.379738,136.992706 83.798019,139.133133 
	C84.483765,141.504684 84.929131,143.235291 85.374496,144.965912 
	C85.186020,144.989975 84.997543,145.014053 84.521622,145.047241 
	C82.828506,142.520004 81.422813,139.983658 79.739380,137.195267 
z"/>
<path fill="#BFBFC1" opacity="1.000000" stroke="none" 
	d="
M85.516006,149.300262 
	C86.950035,150.896194 88.296143,152.767853 89.609100,155.002869 
	C88.193329,153.436142 86.810707,151.506058 85.516006,149.300262 
z"/>
<path fill="#CDCFCF" opacity="1.000000" stroke="none" 
	d="
M110.996071,172.250366 
	C112.220840,172.311996 113.442902,172.574066 114.840622,173.087540 
	C113.846489,173.250504 112.676697,173.162033 111.235901,172.962158 
	C110.964912,172.850739 110.993362,172.450821 110.996071,172.250366 
z"/>
<path fill="#BFBFC1" opacity="1.000000" stroke="none" 
	d="
M96.729370,163.770264 
	C97.609161,164.203232 98.638908,164.899918 99.682785,165.952087 
	C98.757713,165.549713 97.818520,164.791840 96.729370,163.770264 
z"/>
<path fill="#ABACAD" opacity="1.000000" stroke="none" 
	d="
M137.028503,177.668716 
	C137.572784,177.030838 138.153259,176.724487 138.936905,176.698715 
	C139.024246,177.504730 138.908417,178.030182 138.792587,178.555634 
	C138.427032,178.593643 138.061462,178.631653 137.420303,178.666046 
	C137.118027,178.441711 137.091354,178.220978 137.028503,177.668716 
z"/>
<path fill="#BFBFC1" opacity="1.000000" stroke="none" 
	d="
M92.785095,159.503357 
	C93.414574,159.954849 94.104294,160.722382 94.828201,161.818573 
	C94.190033,161.371277 93.517693,160.595322 92.785095,159.503357 
z"/>
<path fill="#ABACAD" opacity="1.000000" stroke="none" 
	d="
M120.998901,176.503326 
	C121.536110,176.497269 122.233643,176.740845 123.123093,177.185577 
	C122.596413,177.175476 121.877823,176.964218 120.998901,176.503326 
z"/>
<path fill="#414245" opacity="0.000000" stroke="none" 
	d="
M159.001373,74.002029 
	C159.002731,74.004066 159.066864,73.956497 159.031433,73.976898 
	C158.995987,73.997299 159.000000,74.000000 159.001373,74.002029 
z"/>
<path fill="#AEAFB0" opacity="1.000000" stroke="none" 
	d="
M172.089859,154.989838 
	C170.379639,158.006577 168.669403,161.023300 166.833450,164.346466 
	C166.265045,164.971085 165.822388,165.289246 164.899643,165.917633 
	C163.450546,167.269272 162.481522,168.310730 161.512482,169.352173 
	C160.331635,169.914413 159.150772,170.476654 157.345215,171.163239 
	C156.105881,171.810852 155.491257,172.334106 154.766068,173.069092 
	C154.506973,173.563431 154.412369,173.863068 154.371719,174.179718 
	C152.794998,174.462524 151.218277,174.745331 149.329742,174.779419 
	C149.012314,174.156387 149.006683,173.782074 149.082611,173.077423 
	C149.245667,172.535904 149.327148,172.324722 149.741302,172.130707 
	C151.399094,171.153687 152.724213,170.159485 154.358948,169.100830 
	C155.448303,168.725098 156.228073,168.413818 157.348846,168.023895 
	C159.187363,166.661484 160.684860,165.377701 162.460541,163.915314 
	C165.855759,160.821075 168.972809,157.905457 172.089859,154.989838 
z"/>
<path fill="#8C8D90" opacity="0.000000" stroke="none" 
	d="
M149.001068,173.407761 
	C149.006683,173.782074 149.012314,174.156387 149.005066,174.811707 
	C147.433243,176.171371 145.874283,177.250046 144.118988,178.578369 
	C142.494186,178.797958 141.065720,178.767929 139.214920,178.646759 
	C138.908417,178.030182 139.024246,177.504730 139.200012,176.724121 
	C139.729385,176.134018 140.198853,175.799088 141.189880,175.194016 
	C142.510162,174.437943 143.308884,173.952026 144.107590,173.466095 
	C144.573639,173.471283 145.039673,173.476486 145.982208,173.429749 
	C146.721283,173.367249 146.883026,173.234039 146.943954,172.978134 
	C147.117676,172.977829 147.291412,172.977524 147.957108,173.069580 
	C148.633072,173.243881 148.817062,173.325821 149.001068,173.407761 
z"/>
<path fill="#747578" opacity="0.000000" stroke="none" 
	d="
M161.870682,169.436295 
	C162.481522,168.310730 163.450546,167.269272 164.715088,166.119476 
	C164.083359,167.180893 163.156113,168.350647 161.870682,169.436295 
z"/>
<path fill="#747578" opacity="0.000000" stroke="none" 
	d="
M154.694626,174.278534 
	C154.412369,173.863068 154.506973,173.563431 155.125488,173.104050 
	C156.074493,172.959778 156.553543,172.992279 157.032578,173.024780 
	C156.360901,173.475616 155.689209,173.926468 154.694626,174.278534 
z"/>
<path fill="#8C8D90" opacity="1.000000" stroke="none" 
	d="
M157.117310,172.739777 
	C156.553543,172.992279 156.074493,172.959778 155.236038,172.892334 
	C155.491257,172.334106 156.105881,171.810852 157.041565,171.285095 
	C157.309097,171.673340 157.255554,172.064041 157.117310,172.739777 
z"/>
<path fill="#E5E5E5" opacity="1.000000" stroke="none" 
	d="
M172.229813,154.677826 
	C168.972809,157.905457 165.855759,160.821075 162.118958,163.802765 
	C160.624008,162.827667 159.748795,161.786499 159.058868,160.478119 
	C160.470901,158.456802 161.697617,156.702682 162.948669,154.971771 
	C162.973007,154.994965 163.032318,155.026337 163.358521,154.934296 
	C166.641556,152.122818 170.233978,149.781189 169.655090,144.607803 
	C169.869583,143.899033 170.013397,143.500336 170.494568,143.012070 
	C175.671326,138.169052 175.192169,136.204544 167.600525,130.964752 
	C163.325378,129.516083 159.900818,130.217911 156.724976,133.376343 
	C155.650864,133.467331 154.935776,133.537109 153.854370,133.426331 
	C150.012299,131.908096 146.536560,130.570419 142.844147,129.042191 
	C141.735931,129.152313 140.844406,129.452988 139.650055,129.911057 
	C137.941437,131.165817 136.535629,132.263184 134.662842,133.369720 
	C131.106384,133.333481 128.016876,133.288055 124.917480,132.971313 
	C124.885498,132.520340 124.863388,132.340698 124.767731,131.861298 
	C124.075417,131.092957 123.456642,130.624420 122.555611,130.032074 
	C121.271317,129.729263 120.269287,129.550247 118.867981,129.295685 
	C115.546257,130.350037 112.623810,131.479919 109.359802,132.619690 
	C107.996376,132.977707 106.974510,133.325851 105.589981,133.563385 
	C104.484726,133.302811 103.742149,133.152817 102.896996,132.770294 
	C102.568077,132.285126 102.341736,132.032501 102.033249,131.495361 
	C101.632805,130.490738 101.314507,129.770615 101.205856,128.835022 
	C102.259399,127.781448 103.103302,126.943359 104.312668,126.199875 
	C106.451347,126.237022 108.236534,126.290062 109.995361,126.099648 
	C113.950630,125.671432 117.892838,125.122505 122.049911,124.856247 
	C123.498428,125.079620 124.737411,125.069466 126.390854,125.109848 
	C128.192520,125.267349 129.579727,125.374313 131.015594,125.748207 
	C133.936890,127.934677 136.300797,127.679337 137.958008,124.402679 
	C138.408081,124.296951 138.858139,124.191223 139.876160,124.195671 
	C141.293045,124.212852 142.141968,124.119865 142.990891,124.026871 
	C153.036713,128.461731 163.666031,124.578690 174.429504,126.551041 
	C175.921799,127.383163 176.894119,127.860039 177.866425,128.336914 
	C178.365891,129.644760 178.865372,130.952606 179.181610,132.784134 
	C179.067139,133.877914 179.135925,134.447998 179.204697,135.018097 
	C178.770447,137.794876 178.336182,140.571671 177.990585,143.705383 
	C176.176102,147.496811 174.272934,150.931305 172.229813,154.677826 
z"/>
<path fill="#E5E5E5" opacity="1.000000" stroke="none" 
	d="
M97.748756,108.291473 
	C97.088730,107.912292 96.428711,107.533104 95.554901,106.543488 
	C95.133591,103.418839 94.926079,100.904617 94.768776,97.937820 
	C94.803101,96.878555 94.787224,96.271881 94.791580,95.272141 
	C94.852150,93.570435 94.892494,92.261795 94.932838,90.953163 
	C95.173492,90.736687 95.401642,90.507751 96.112488,90.129471 
	C97.066315,89.989311 97.524910,89.986015 98.156532,90.128922 
	C98.567940,90.461472 98.791191,90.664459 99.131721,90.972252 
	C99.264137,91.060417 99.736366,91.092995 99.736366,91.092995 
	C99.736366,91.092995 100.180733,90.904800 100.283630,90.877945 
	C100.386536,90.851082 100.598129,90.872612 100.919586,90.992935 
	C101.827415,91.742622 102.413780,92.371994 102.814255,93.200119 
	C102.141060,93.629555 101.653763,93.860237 100.817795,94.191650 
	C97.106270,98.056236 97.235794,99.908844 101.436028,103.065842 
	C103.256706,103.410591 104.716690,103.652466 106.547974,103.921371 
	C112.017853,104.104340 117.116425,104.260269 122.495361,104.569046 
	C123.834785,104.821342 124.893845,104.920792 126.311348,105.035431 
	C127.608421,105.299728 128.547043,105.548836 129.347992,106.152634 
	C127.657326,109.415588 126.204315,112.384132 124.504395,115.203819 
	C123.776993,116.410378 122.446449,118.214432 121.548615,118.126526 
	C120.276909,118.002014 119.131592,116.401703 117.969337,115.389557 
	C116.401871,114.024521 115.075958,111.864876 113.283043,111.374374 
	C108.203949,109.984863 102.939934,109.271278 97.748756,108.291473 
z"/>
<path fill="#B4B4B6" opacity="1.000000" stroke="none" 
	d="
M97.778923,108.597488 
	C102.939934,109.271278 108.203949,109.984863 113.283043,111.374374 
	C115.075958,111.864876 116.401871,114.024521 117.969337,115.389557 
	C119.131592,116.401703 120.276909,118.002014 121.548615,118.126526 
	C122.446449,118.214432 123.776993,116.410378 124.504395,115.203819 
	C126.204315,112.384132 127.657326,109.415588 129.626221,106.209015 
	C130.055969,107.352081 130.403641,108.892799 130.010727,110.213127 
	C129.300964,112.598145 128.148666,114.851479 126.940811,117.346100 
	C125.866638,118.412399 125.032806,119.292404 123.889938,120.196472 
	C123.025330,120.697617 122.469772,121.174706 121.914215,121.651787 
	C122.712708,121.968468 123.511200,122.285141 124.360466,122.823067 
	C124.411240,123.044319 124.327797,123.490593 124.025795,123.659653 
	C123.095985,124.093376 122.468170,124.358047 121.840363,124.622711 
	C117.892838,125.122505 113.950630,125.671432 109.995361,126.099648 
	C108.236534,126.290062 106.451347,126.237022 103.962120,125.996292 
	C98.821129,125.702438 94.396141,125.706779 89.850464,125.535553 
	C89.497772,124.999428 89.265785,124.638863 89.033798,124.278297 
	C89.287338,124.033607 89.540886,123.788910 90.376579,123.358322 
	C95.868553,123.346130 100.789421,123.372139 105.684845,123.738319 
	C109.921272,124.055206 113.892700,123.922844 117.816818,120.128685 
	C115.445312,117.982941 113.621254,115.355904 111.131180,114.301094 
	C107.070999,112.581154 102.576118,111.887398 98.252670,110.739273 
	C98.240669,110.717896 98.192245,110.711655 98.192245,110.711655 
	C98.064522,110.108940 97.936806,109.506226 97.778923,108.597488 
z"/>
<path fill="#5E5F61" opacity="0.000000" stroke="none" 
	d="
M89.977333,121.996201 
	C89.786392,121.988525 89.595459,121.980850 89.116989,121.952469 
	C91.742081,119.842110 94.654724,117.752472 97.707512,115.562286 
	C97.449821,114.904892 96.804619,113.258942 96.096443,111.272545 
	C96.515190,110.903183 96.996910,110.874275 97.835434,110.778503 
	C98.192245,110.711655 98.240669,110.717896 98.287262,111.104942 
	C99.930771,115.956573 103.930138,115.366615 107.454285,115.963600 
	C108.939140,116.215126 110.522331,116.886314 111.634399,117.855835 
	C112.091835,118.254639 111.720001,120.708122 111.215683,120.902145 
	C109.628044,121.512939 107.219521,122.323845 106.159660,121.582817 
	C100.518219,117.638519 95.285622,118.771034 89.977333,121.996201 
z"/>
<path fill="#ABACAD" opacity="1.000000" stroke="none" 
	d="
M94.616699,91.088699 
	C94.892494,92.261795 94.852150,93.570435 94.590294,95.419380 
	C94.485374,96.769928 94.601967,97.580170 94.718567,98.390404 
	C94.926079,100.904617 95.133591,103.418839 95.339432,106.352737 
	C89.939529,100.931976 89.720345,97.646194 94.616699,91.088699 
z"/>
<path fill="#CDCFCF" opacity="1.000000" stroke="none" 
	d="
M98.999306,90.884087 
	C98.791191,90.664459 98.567940,90.461472 98.280197,89.858521 
	C98.416931,88.878128 98.603020,88.314323 98.789101,87.750534 
	C101.369423,86.720314 103.949745,85.690094 106.789825,84.390396 
	C107.762650,84.051041 108.475708,83.981171 109.577774,84.169052 
	C109.988304,84.624451 110.009804,84.822098 109.756973,85.225929 
	C106.521133,87.245621 103.559639,89.059120 100.598129,90.872620 
	C100.598129,90.872612 100.386536,90.851082 99.986954,90.865662 
	C99.391357,90.881516 99.195328,90.882797 98.999306,90.884087 
z"/>
<path fill="#ABACAD" opacity="1.000000" stroke="none" 
	d="
M98.475357,87.810120 
	C98.603020,88.314323 98.416931,88.878128 98.107178,89.712326 
	C97.524910,89.986015 97.066315,89.989311 96.266983,89.942566 
	C96.671379,89.218254 97.416496,88.543983 98.475357,87.810120 
z"/>
<path fill="#B4B4B6" opacity="1.000000" stroke="none" 
	d="
M167.005463,89.628731 
	C167.179108,90.330208 167.093735,90.826935 166.657410,91.629333 
	C165.527084,91.657890 164.747726,91.380768 163.638977,90.985992 
	C157.897614,87.545685 152.485641,84.223038 146.814301,80.803688 
	C146.188782,80.676270 145.822647,80.645554 145.269775,80.381134 
	C144.398651,79.750267 143.714249,79.353088 142.797211,78.676239 
	C139.893692,76.582863 137.292114,76.081558 134.529358,78.866447 
	C133.781204,79.095413 133.364456,79.261383 132.587128,79.402870 
	C131.504715,79.400909 130.782867,79.423439 129.715714,79.297607 
	C128.632217,79.021362 127.894058,78.893494 126.940651,78.490112 
	C124.433624,78.404060 122.141830,78.593521 119.613266,78.921005 
	C119.239349,79.179771 119.102211,79.300514 118.589668,79.369949 
	C117.466721,79.196770 116.719177,79.074898 115.971619,78.953018 
	C115.903206,78.478310 115.834801,78.003609 115.704376,77.173531 
	C115.642357,76.818161 115.713737,76.743309 116.098282,76.720505 
	C117.650162,76.064575 118.817513,75.431450 119.984856,74.798317 
	C121.704979,74.797127 123.425110,74.795937 125.856773,75.031296 
	C129.812912,76.837494 133.003769,77.540443 135.974045,74.684784 
	C137.701920,74.718102 139.429810,74.751427 141.765289,75.102776 
	C144.623474,76.561394 146.874039,77.701988 149.124619,78.842583 
	C151.190353,80.349030 153.256073,81.855484 155.669525,83.513496 
	C157.834854,84.337791 159.652466,85.010529 161.830826,85.686279 
	C163.709885,86.934189 165.228180,88.179085 167.005463,89.628731 
z"/>
<path fill="#8C8D90" opacity="1.000000" stroke="none" 
	d="
M135.674561,74.557083 
	C133.003769,77.540443 129.812912,76.837494 126.286568,75.037170 
	C129.128235,74.680801 132.251648,74.555099 135.674561,74.557083 
z"/>
<path fill="#8C8D90" opacity="1.000000" stroke="none" 
	d="
M148.992233,78.547989 
	C146.874039,77.701988 144.623474,76.561394 142.196930,75.123154 
	C144.300598,75.968140 146.580231,77.110764 148.992233,78.547989 
z"/>
<path fill="#8C8D90" opacity="1.000000" stroke="none" 
	d="
M119.725723,74.658859 
	C118.817513,75.431450 117.650162,76.064575 116.137733,76.687073 
	C117.017296,75.957420 118.241943,75.238411 119.725723,74.658859 
z"/>
<path fill="#F6F7F8" opacity="1.000000" stroke="none" 
	d="
M130.061035,79.445976 
	C130.782867,79.423439 131.504715,79.400909 132.825775,79.665871 
	C137.435501,80.173851 141.445999,80.394348 145.456512,80.614838 
	C145.822647,80.645554 146.188782,80.676270 146.771301,81.068130 
	C145.659653,81.941933 144.331635,82.454575 142.657959,82.959305 
	C141.213181,83.167374 140.114059,83.383339 138.612747,83.567268 
	C137.137238,83.570671 136.063904,83.606117 134.777283,83.476685 
	C134.039124,83.193855 133.514236,83.075912 132.683014,82.788559 
	C131.453217,82.572815 130.529739,82.526489 129.188812,82.542099 
	C128.021393,82.959740 127.271461,83.315445 126.181290,83.572403 
	C124.012894,83.516434 122.184723,83.559204 119.995827,83.462128 
	C118.444977,83.701904 117.254860,84.081528 116.015121,84.094345 
	C115.024536,82.822319 114.083565,81.917107 113.142593,81.011887 
	C113.907501,80.414764 114.672409,79.817635 115.704468,79.086761 
	C116.719177,79.074898 117.466721,79.196770 118.819252,79.631767 
	C122.969833,79.778587 126.515434,79.612282 130.061035,79.445976 
z"/>
<path fill="#E0E1E2" opacity="1.000000" stroke="none" 
	d="
M112.833549,81.081871 
	C114.083565,81.917107 115.024536,82.822319 115.993835,84.387909 
	C115.361206,86.051079 114.700241,87.053864 113.878876,87.759430 
	C112.489410,86.648056 111.260361,85.833893 110.031303,85.019737 
	C110.009804,84.822098 109.988304,84.624451 109.934097,84.130325 
	C110.775764,82.939850 111.650131,82.045845 112.833549,81.081871 
z"/>
<path fill="#EBEBEB" opacity="1.000000" stroke="none" 
	d="
M89.971161,125.711113 
	C94.396141,125.706779 98.821129,125.702438 103.596657,125.901688 
	C103.103302,126.943359 102.259399,127.781448 100.773193,128.815247 
	C92.019768,128.910004 88.754074,131.092499 88.114807,137.426773 
	C88.258858,138.495026 88.360268,139.206436 88.241608,140.105347 
	C87.788170,140.800385 87.554817,141.307892 87.321457,141.815414 
	C86.841034,142.746765 86.360603,143.678116 85.627335,144.787689 
	C84.929131,143.235291 84.483765,141.504684 84.015373,139.388931 
	C83.696098,136.268127 83.399849,133.532440 83.367905,130.259415 
	C85.745193,128.385071 87.858177,127.048096 89.971161,125.711113 
z"/>
<path fill="#BFBFC1" opacity="1.000000" stroke="none" 
	d="
M89.850464,125.535553 
	C87.858177,127.048096 85.745193,128.385071 83.332031,129.891632 
	C82.498985,129.818283 81.966125,129.575378 81.207886,129.144791 
	C82.590240,127.627174 84.197983,126.297226 86.021698,124.711639 
	C86.936142,124.375397 87.634613,124.294800 88.683441,124.246246 
	C89.265785,124.638863 89.497772,124.999428 89.850464,125.535553 
z"/>
<path fill="#808183" opacity="1.000000" stroke="none" 
	d="
M89.996880,122.283394 
	C95.285622,118.771034 100.518219,117.638519 106.159660,121.582817 
	C107.219521,122.323845 109.628044,121.512939 111.215683,120.902145 
	C111.720001,120.708122 112.091835,118.254639 111.634399,117.855835 
	C110.522331,116.886314 108.939140,116.215126 107.454285,115.963600 
	C103.930138,115.366615 99.930771,115.956573 98.299263,111.126312 
	C102.576118,111.887398 107.070999,112.581154 111.131180,114.301094 
	C113.621254,115.355904 115.445312,117.982941 117.816818,120.128685 
	C113.892700,123.922844 109.921272,124.055206 105.684845,123.738319 
	C100.789421,123.372139 95.868553,123.346130 90.544029,123.153763 
	C90.091690,122.946930 90.054062,122.758759 89.996880,122.283394 
z"/>
<path fill="#DBDBDC" opacity="1.000000" stroke="none" 
	d="
M143.935211,118.952576 
	C142.148453,118.867859 140.361694,118.783142 137.932968,118.717529 
	C134.022415,116.323341 134.622208,113.648354 136.628540,110.746758 
	C137.613998,109.321587 138.324707,107.706421 139.573181,106.147003 
	C141.645981,106.064682 143.305389,106.012589 145.203598,106.265091 
	C147.103470,107.039345 148.771042,107.921822 150.424286,107.895767 
	C154.293839,107.834778 158.156509,107.338158 162.151245,107.151619 
	C162.280518,107.285316 162.539108,107.552666 162.272614,107.781769 
	C157.659836,109.290909 153.332520,110.641197 148.959869,111.823753 
	C146.467422,112.497826 144.025024,113.012489 144.609482,116.798737 
	C144.328430,117.724266 144.131821,118.338425 143.935211,118.952576 
z"/>
<path fill="#9A9A9C" opacity="0.000000" stroke="none" 
	d="
M139.159760,106.177238 
	C138.324707,107.706421 137.613998,109.321587 136.628540,110.746758 
	C134.622208,113.648354 134.022415,116.323341 137.639221,118.837479 
	C138.038956,119.919418 138.090439,120.900497 137.651855,121.767540 
	C135.308350,119.100594 133.454941,116.547684 131.415848,113.739006 
	C130.134064,114.774445 128.657608,115.967125 127.181168,117.159805 
	C128.148666,114.851479 129.300964,112.598145 130.010727,110.213127 
	C130.403641,108.892799 130.055969,107.352081 129.763885,105.854324 
	C128.547043,105.548836 127.608421,105.299728 126.390266,104.811584 
	C126.391121,104.230026 126.671501,103.887489 127.167694,103.286369 
	C128.475464,102.866882 129.567429,102.705978 130.864319,102.799400 
	C133.589996,103.902222 136.110748,104.750717 138.763626,105.743652 
	C138.895767,105.888100 139.159760,106.177238 139.159760,106.177238 
z"/>
<path fill="#747578" opacity="0.000000" stroke="none" 
	d="
M126.940811,117.346100 
	C128.657608,115.967125 130.134064,114.774445 131.415848,113.739006 
	C133.454941,116.547684 135.308350,119.100594 137.434875,121.821045 
	C137.707993,121.988586 137.796600,122.338387 137.545380,122.584534 
	C136.584061,122.936722 135.873993,123.042770 134.724579,123.070450 
	C131.528458,123.243782 128.771683,123.495483 125.732513,123.710846 
	C125.076019,123.613197 124.701912,123.551895 124.327797,123.490585 
	C124.327797,123.490593 124.411240,123.044319 124.318481,122.524849 
	C124.216805,121.394386 124.207886,120.783394 124.198975,120.172409 
	C125.032806,119.292404 125.866638,118.412399 126.940811,117.346100 
z"/>
<path fill="#5E5F61" opacity="0.000000" stroke="none" 
	d="
M164.551605,113.001091 
	C164.600113,114.095398 164.313263,115.310204 163.644714,117.016693 
	C161.577332,119.112175 159.891678,120.715988 158.206009,122.319794 
	C157.349075,122.521095 156.492142,122.722412 155.014130,122.730988 
	C148.929611,121.961967 151.219055,117.881706 150.929245,114.895660 
	C150.894394,114.839912 150.859283,114.712784 151.199188,114.846725 
	C152.935852,115.157974 154.332581,115.335289 155.729324,115.512604 
	C158.558304,114.715599 161.387283,113.918594 164.551605,113.001091 
z"/>
<path fill="#747578" opacity="0.000000" stroke="none" 
	d="
M150.964096,114.951416 
	C151.219055,117.881706 148.929611,121.961967 154.680664,122.714340 
	C151.626144,122.569839 148.283981,122.249260 144.553284,121.682976 
	C144.164734,121.437271 144.124664,121.118042 144.124664,121.118042 
	C144.124954,120.631660 144.125259,120.145271 144.030396,119.305740 
	C144.131821,118.338425 144.328430,117.724266 144.927551,116.663338 
	C147.208069,115.794846 149.086090,115.373131 150.964096,114.951416 
z"/>
<path fill="#747578" opacity="0.000000" stroke="none" 
	d="
M158.647369,122.293793 
	C159.891678,120.715988 161.577332,119.112175 163.552063,117.378784 
	C165.403748,118.007835 166.966354,118.766479 168.767670,119.760345 
	C168.979950,120.487968 168.953506,120.980362 168.893311,121.843201 
	C165.602631,122.231697 162.345673,122.249741 158.647369,122.293793 
z"/>
<path fill="#D6D8D8" opacity="1.000000" stroke="none" 
	d="
M135.163910,123.148819 
	C135.873993,123.042770 136.584061,122.936722 137.641968,122.736908 
	C137.974396,122.935516 137.958984,123.227875 137.950790,123.961456 
	C136.300797,127.679337 133.936890,127.934677 131.378082,125.659081 
	C132.849228,124.584953 134.006561,123.866882 135.163910,123.148819 
z"/>
<path fill="#CDCFCF" opacity="1.000000" stroke="none" 
	d="
M177.773651,128.004578 
	C176.894119,127.860039 175.921799,127.383163 174.880386,126.634628 
	C175.767807,126.799393 176.724350,127.235809 177.773651,128.004578 
z"/>
<path fill="#D6D8D8" opacity="1.000000" stroke="none" 
	d="
M142.773209,123.853012 
	C142.141968,124.119865 141.293045,124.212852 140.219070,124.144058 
	C140.847855,123.881241 141.701691,123.780197 142.773209,123.853012 
z"/>
<path fill="#CDCFCF" opacity="1.000000" stroke="none" 
	d="
M179.329559,134.837418 
	C179.135925,134.447998 179.067139,133.877914 179.186615,133.148788 
	C179.401382,133.545425 179.427887,134.101074 179.329559,134.837418 
z"/>
<path fill="#8C8D90" opacity="0.000000" stroke="none" 
	d="
M144.026459,121.185257 
	C144.124664,121.118042 144.164734,121.437271 144.179474,121.595993 
	C144.194199,121.754707 143.910904,121.573036 143.910904,121.573036 
	C143.910904,121.573036 143.928268,121.252472 144.026459,121.185257 
z"/>
<path fill="#DBDBDC" opacity="1.000000" stroke="none" 
	d="
M163.968369,91.103653 
	C164.747726,91.380768 165.527084,91.657890 166.608810,92.003769 
	C167.449890,93.567719 167.988586,95.062904 168.786285,96.778366 
	C168.713730,98.762177 168.382172,100.525703 167.740570,102.740250 
	C165.800064,104.645058 164.169586,106.098862 162.539108,107.552666 
	C162.539108,107.552666 162.280518,107.285316 162.061142,106.888451 
	C160.550247,105.960754 159.258728,105.429916 158.123596,104.573822 
	C159.021332,101.275429 159.762680,98.302299 160.856049,95.194817 
	C162.128174,93.741531 163.048279,92.422592 163.968369,91.103653 
z"/>
<path fill="#AEAFB0" opacity="1.000000" stroke="none" 
	d="
M162.272614,107.781769 
	C164.169586,106.098862 165.800064,104.645058 167.764130,103.132950 
	C168.443787,107.716713 165.054016,109.238472 161.055725,110.981949 
	C159.637268,111.847015 158.835709,112.497345 158.034134,113.147675 
	C157.631775,113.209518 157.229431,113.271362 156.139618,113.284073 
	C153.921219,113.727562 152.390244,114.220177 150.859283,114.712784 
	C150.859283,114.712784 150.894394,114.839912 150.929245,114.895660 
	C149.086090,115.373131 147.208069,115.794846 145.011993,116.351959 
	C144.025024,113.012489 146.467422,112.497826 148.959869,111.823753 
	C153.332520,110.641197 157.659836,109.290909 162.272614,107.781769 
z"/>
<path fill="#8C8D90" opacity="0.000000" stroke="none" 
	d="
M151.199188,114.846725 
	C152.390244,114.220177 153.921219,113.727562 155.837433,113.327660 
	C156.103592,113.946854 155.984482,114.473351 155.797363,115.256226 
	C154.332581,115.335289 152.935852,115.157974 151.199188,114.846725 
z"/>
<path fill="#8C8D90" opacity="0.000000" stroke="none" 
	d="
M158.275192,113.248970 
	C158.835709,112.497345 159.637268,111.847015 160.759521,111.160553 
	C160.225540,111.866371 159.370895,112.608315 158.275192,113.248970 
z"/>
<path fill="#ABACAD" opacity="0.000000" stroke="none" 
	d="
M162.924332,154.948563 
	C161.697617,156.702682 160.470901,158.456802 158.750458,160.590988 
	C157.143448,161.974838 156.030151,162.978622 154.751358,164.102203 
	C154.369827,164.386856 154.159622,164.558868 153.565247,164.747025 
	C149.446213,166.487350 145.717209,168.218704 141.988205,169.950058 
	C134.789459,170.064529 127.590714,170.179016 119.968071,170.251953 
	C117.288025,168.826477 115.031876,167.442566 112.299011,165.826752 
	C111.499092,165.081207 111.175888,164.567551 111.206177,163.949921 
	C112.868904,162.944153 115.376366,161.906067 115.291817,161.162842 
	C114.764793,156.529678 118.481194,151.009491 113.126480,147.325531 
	C114.658241,147.525665 115.829887,147.769104 117.141151,148.353668 
	C117.530350,150.144791 117.779922,151.594772 118.016167,153.478409 
	C118.792336,156.685425 119.581841,159.458771 120.731400,162.345154 
	C121.740723,162.823212 122.389992,163.188232 122.768204,163.743103 
	C121.205460,164.409897 119.913780,164.886826 117.957870,165.609009 
	C119.237869,166.628860 119.828751,167.509369 120.441750,167.525070 
	C127.014290,167.693176 133.594604,167.843735 140.158783,167.608459 
	C140.811630,167.585052 141.371994,164.981583 142.057846,163.311417 
	C142.889282,162.677994 143.638138,162.308762 144.736420,161.996185 
	C145.318634,162.086014 145.551407,162.119186 145.798096,162.176392 
	C145.812042,162.200424 145.866440,162.211685 145.989334,162.463470 
	C147.074234,162.804840 148.036255,162.894440 149.349319,162.959991 
	C150.883301,162.048157 152.066223,161.160370 153.503998,160.115295 
	C154.467224,159.602081 155.175568,159.246140 156.227661,158.856598 
	C158.689056,157.531509 160.806686,156.240036 162.924332,154.948563 
z"/>
<path fill="#808183" opacity="0.000000" stroke="none" 
	d="
M112.766357,147.368820 
	C118.481194,151.009491 114.764793,156.529678 115.291817,161.162842 
	C115.376366,161.906067 112.868904,162.944153 110.959549,163.803253 
	C109.815903,163.569672 109.272400,163.378784 108.607964,162.876343 
	C106.678452,161.353958 104.869858,160.143143 103.061272,158.932327 
	C103.061272,158.932327 103.000610,158.995682 102.974106,158.633118 
	C101.660431,157.157913 100.373260,156.045258 99.086082,154.932602 
	C99.086082,154.932602 98.869362,154.617096 98.799477,154.094269 
	C97.799469,151.733200 96.869339,149.894943 96.302612,148.072235 
	C97.620773,148.660095 98.742653,149.066666 99.502289,149.832520 
	C103.448776,153.811325 107.302910,157.881729 111.189209,161.920242 
	C111.647995,161.672363 112.106781,161.424469 112.565575,161.176590 
	C111.761398,157.106842 115.437363,152.300369 109.280632,148.990097 
	C107.927719,148.262680 107.389450,145.273376 107.227066,143.264954 
	C107.017776,140.676575 107.564705,138.027023 108.139671,135.330734 
	C109.663353,135.493530 110.833305,135.729401 112.140060,136.148254 
	C112.470871,136.566360 112.686516,136.779572 112.774864,137.186661 
	C112.373886,137.858948 112.121857,138.315491 111.627945,138.944153 
	C111.157753,140.362488 110.929436,141.608704 110.542542,142.758118 
	C110.383965,142.661331 110.031090,142.777679 109.897736,142.940994 
	C110.029572,143.858490 110.294746,144.612656 110.691940,145.646423 
	C111.471413,146.406937 112.118889,146.887878 112.766357,147.368820 
z"/>
<path fill="#ABACAD" opacity="0.000000" stroke="none" 
	d="
M95.939209,148.056686 
	C96.869339,149.894943 97.799469,151.733200 98.708435,153.925934 
	C96.481476,151.766159 94.275665,149.251892 91.951904,146.045471 
	C90.709869,143.541489 89.585777,141.729675 88.461685,139.917847 
	C88.360268,139.206436 88.258858,138.495026 88.342751,137.391251 
	C88.953789,136.870636 89.379517,136.742401 90.065887,136.945068 
	C92.071083,140.595032 93.815643,143.914062 95.646576,147.442856 
	C95.732941,147.652618 95.939209,148.056686 95.939209,148.056686 
z"/>
<path fill="#CDCFCF" opacity="1.000000" stroke="none" 
	d="
M88.241608,140.105347 
	C89.585777,141.729675 90.709869,143.541489 91.889725,145.690613 
	C90.565979,144.752441 89.186470,143.476990 87.564209,142.008484 
	C87.554817,141.307892 87.788170,140.800385 88.241608,140.105347 
z"/>
<path fill="#ABACAD" opacity="0.000000" stroke="none" 
	d="
M103.157677,159.247742 
	C104.869858,160.143143 106.678452,161.353958 108.293968,162.901520 
	C107.680878,163.296387 107.260864,163.354523 106.840843,163.412643 
	C105.645256,162.129471 104.449669,160.846313 103.157677,159.247742 
z"/>
<path fill="#CDCFCF" opacity="1.000000" stroke="none" 
	d="
M106.959633,163.726761 
	C107.260864,163.354523 107.680878,163.296387 108.414894,163.213074 
	C109.272400,163.378784 109.815903,163.569672 110.606049,163.907227 
	C111.175888,164.567551 111.499092,165.081207 111.973434,165.729477 
	C110.442513,165.256348 108.760468,164.648605 106.959633,163.726761 
z"/>
<path fill="#ABACAD" opacity="0.000000" stroke="none" 
	d="
M99.105850,155.278809 
	C100.373260,156.045258 101.660431,157.157913 103.004196,158.599335 
	C101.749069,157.827072 100.437347,156.726044 99.105850,155.278809 
z"/>
<path fill="#E5E5E5" opacity="1.000000" stroke="none" 
	d="
M144.096176,173.208420 
	C143.308884,173.952026 142.510162,174.437943 141.353287,174.957184 
	C135.573868,174.487061 130.152603,173.983612 124.364273,173.299530 
	C130.693054,173.062866 137.388916,173.006805 144.096176,173.208420 
z"/>
<path fill="#E0E1E2" opacity="1.000000" stroke="none" 
	d="
M142.256256,170.123596 
	C145.717209,168.218704 149.446213,166.487350 153.577728,165.193176 
	C154.003281,166.808655 154.026321,167.986969 154.049347,169.165283 
	C152.724213,170.159485 151.399094,171.153687 149.371094,172.106628 
	C148.423065,172.051437 148.177917,172.037506 147.932770,172.023590 
	C146.129959,171.448105 144.327133,170.872620 142.256256,170.123596 
z"/>
<path fill="#E5E5E5" opacity="1.000000" stroke="none" 
	d="
M146.803680,172.987488 
	C146.883026,173.234039 146.721283,173.367249 146.309769,173.301147 
	C146.311523,173.111526 146.479050,173.035629 146.803680,172.987488 
z"/>
<path fill="#E5E5E5" opacity="1.000000" stroke="none" 
	d="
M147.925568,172.220306 
	C148.177917,172.037506 148.423065,172.051437 149.038422,172.089462 
	C149.327148,172.324722 149.245667,172.535904 149.082626,173.077423 
	C148.817062,173.325821 148.633072,173.243881 148.203705,172.985321 
	C147.958344,172.808670 147.918381,172.417023 147.925568,172.220306 
z"/>
<path fill="#E0E1E2" opacity="1.000000" stroke="none" 
	d="
M154.916840,163.982391 
	C156.030151,162.978622 157.143448,161.974838 158.565170,160.858200 
	C159.748795,161.786499 160.624008,162.827667 161.840790,163.981384 
	C160.684860,165.377701 159.187363,166.661484 157.400848,167.697449 
	C156.380188,166.293900 155.648514,165.138138 154.916840,163.982391 
z"/>
<path fill="#E5E5E5" opacity="1.000000" stroke="none" 
	d="
M154.751358,164.102203 
	C155.648514,165.138138 156.380188,166.293900 157.059845,167.776093 
	C156.228073,168.413818 155.448303,168.725098 154.358948,169.100830 
	C154.026321,167.986969 154.003281,166.808655 153.967773,165.184204 
	C154.159622,164.558868 154.369827,164.386856 154.751358,164.102203 
z"/>
<path fill="#AEAFB0" opacity="0.000000" stroke="none" 
	d="
M143.060822,129.232742 
	C146.536560,130.570419 150.012299,131.908096 153.818665,133.662354 
	C154.070282,134.552094 153.991257,135.025269 153.559738,135.516754 
	C152.737946,135.558029 152.268646,135.580978 151.561829,135.480316 
	C150.272736,135.604126 149.221176,135.851547 147.634567,136.224869 
	C154.706589,142.296768 154.196121,145.241455 146.499130,148.883545 
	C145.147400,149.523148 144.162827,150.938660 142.814636,151.970306 
	C142.620560,151.944794 142.232986,151.890411 142.181610,151.660614 
	C142.130249,151.430801 142.017731,150.973495 141.936813,150.661102 
	C140.942368,149.546997 140.028824,148.745316 138.878937,147.688583 
	C137.575897,146.990005 136.509171,146.546478 135.517639,145.722961 
	C135.706314,145.111008 135.819809,144.879044 135.818848,144.362183 
	C135.715225,143.872467 135.726059,143.667648 136.082413,143.496109 
	C139.209763,141.128067 141.991562,138.726730 145.719086,135.509018 
	C143.487793,134.715210 141.773453,133.896774 139.967224,133.526062 
	C138.409073,133.206268 136.746323,133.396057 135.129822,133.360565 
	C136.535629,132.263184 137.941437,131.165817 139.969513,129.941406 
	C141.414780,129.620499 142.237808,129.426620 143.060822,129.232742 
M149.847885,141.809372 
	C148.197067,140.915359 146.622925,139.659790 144.861725,139.286407 
	C144.034241,139.110992 141.872818,140.919769 141.995117,141.336288 
	C142.463928,142.932800 143.277466,144.821381 144.573334,145.706711 
	C148.210449,148.191605 148.897797,144.964249 149.847885,141.809372 
z"/>
<path fill="#8C8D90" opacity="0.000000" stroke="none" 
	d="
M134.662857,133.369736 
	C136.746323,133.396057 138.409073,133.206268 139.967224,133.526062 
	C141.773453,133.896774 143.487793,134.715210 145.719086,135.509018 
	C141.991562,138.726730 139.209763,141.128067 136.225464,143.220612 
	C137.180588,140.808044 138.338196,138.704285 139.813751,136.022720 
	C133.919601,136.022720 128.680298,136.083603 123.443367,135.998657 
	C120.550003,135.951721 121.155388,137.474442 121.470543,139.139801 
	C120.180389,139.034088 119.243874,138.929779 118.095184,138.677124 
	C117.619209,138.311249 117.355408,138.093719 117.117615,137.520782 
	C117.787102,131.986298 121.923592,133.738266 124.927361,133.242630 
	C128.016876,133.288055 131.106384,133.333481 134.662857,133.369736 
z"/>
<path fill="#8C8D90" opacity="0.000000" stroke="none" 
	d="
M153.912231,135.498428 
	C153.991257,135.025269 154.070282,134.552094 154.184998,133.842896 
	C154.935776,133.537109 155.650864,133.467331 157.048676,133.497253 
	C161.137604,133.421402 164.543823,133.245880 168.161285,133.339020 
	C172.046036,136.193619 169.791214,139.893951 170.157227,143.101624 
	C170.013397,143.500336 169.869583,143.899033 169.377472,144.750946 
	C167.030212,148.478226 165.031265,151.752289 163.032318,155.026337 
	C163.032318,155.026337 162.973007,154.994965 162.948669,154.971771 
	C160.806686,156.240036 158.689056,157.531509 156.325104,158.527679 
	C159.316132,153.727402 162.827499,149.386581 165.668961,144.644333 
	C166.981964,142.453003 166.987106,139.477997 167.585205,136.858307 
	C165.162125,136.306396 162.762772,135.534149 160.308716,135.269806 
	C158.209122,135.043655 156.046799,135.399826 153.912231,135.498428 
z"/>
<path fill="#AEAFB0" opacity="0.000000" stroke="none" 
	d="
M124.917480,132.971313 
	C121.923592,133.738266 117.787102,131.986298 116.834396,137.651077 
	C116.032509,138.500900 115.539856,138.865005 114.643463,139.226776 
	C113.449760,139.073608 112.659790,138.922821 111.869820,138.772034 
	C112.121857,138.315491 112.373886,137.858948 112.956223,137.142273 
	C112.858765,136.576523 112.431015,136.270905 112.003258,135.965271 
	C110.833305,135.729401 109.663353,135.493530 107.838089,135.261078 
	C106.771812,135.220886 106.360840,135.177261 105.946899,134.889282 
	C105.886513,134.320724 105.889412,133.997086 105.952644,133.673981 
	C106.974510,133.325851 107.996376,132.977707 109.574043,132.808350 
	C113.175652,131.781815 116.221451,130.576523 119.267258,129.371231 
	C120.269287,129.550247 121.271317,129.729263 122.677551,130.297714 
	C123.668266,131.178452 124.254768,131.669754 124.841278,132.161072 
	C124.863388,132.340698 124.885498,132.520340 124.917480,132.971313 
z"/>
<path fill="#808183" opacity="0.000000" stroke="none" 
	d="
M105.589981,133.563385 
	C105.889412,133.997086 105.886513,134.320724 105.613747,135.059174 
	C103.508789,135.525436 101.671272,135.898529 99.971619,135.566299 
	C95.714752,134.734222 94.708458,136.837051 95.017876,140.457123 
	C95.210838,142.714752 95.380226,144.974365 95.560204,147.233093 
	C93.815643,143.914062 92.071083,140.595032 90.286598,136.679596 
	C90.477570,135.695206 90.708466,135.307220 91.284943,134.886459 
	C94.407845,134.266205 97.185165,133.678726 100.203781,133.229218 
	C101.296570,133.245728 102.148071,133.124283 102.999565,133.002823 
	C103.742149,133.152817 104.484726,133.302811 105.589981,133.563385 
z"/>
<path fill="#CDCFCF" opacity="1.000000" stroke="none" 
	d="
M90.939362,134.919250 
	C90.708466,135.307220 90.477570,135.695206 90.025955,136.348663 
	C89.379517,136.742401 88.953789,136.870636 88.300125,137.034409 
	C88.754074,131.092499 92.019768,128.910004 100.563553,129.030716 
	C101.314507,129.770615 101.632805,130.490738 101.681595,131.552170 
	C100.940552,131.934921 100.469040,131.976364 99.663895,131.850555 
	C95.534737,130.172638 92.836082,131.506226 90.939362,134.919250 
z"/>
<path fill="#BFBFC1" opacity="0.000000" stroke="none" 
	d="
M170.494568,143.012070 
	C169.791214,139.893951 172.046036,136.193619 168.170074,133.011826 
	C167.962082,131.981018 167.956543,131.546112 167.951004,131.111191 
	C175.192169,136.204544 175.671326,138.169052 170.494568,143.012070 
z"/>
<path fill="#AEAFB0" opacity="0.000000" stroke="none" 
	d="
M167.600525,130.964752 
	C167.956543,131.546112 167.962082,131.981018 167.958832,132.743134 
	C164.543823,133.245880 161.137604,133.421402 157.407684,133.476028 
	C159.900818,130.217911 163.325378,129.516083 167.600525,130.964752 
z"/>
<path fill="#BFBFC1" opacity="0.000000" stroke="none" 
	d="
M163.358521,154.934296 
	C165.031265,151.752289 167.030212,148.478226 169.306778,145.061005 
	C170.233978,149.781189 166.641556,152.122818 163.358521,154.934296 
z"/>
<path fill="#CDCFCF" opacity="1.000000" stroke="none" 
	d="
M118.867981,129.295685 
	C116.221451,130.576523 113.175652,131.781815 109.915604,132.798462 
	C112.623810,131.479919 115.546257,130.350037 118.867981,129.295685 
z"/>
<path fill="#9A9A9C" opacity="0.000000" stroke="none" 
	d="
M134.724579,123.070450 
	C134.006561,123.866882 132.849228,124.584953 131.329407,125.392143 
	C129.579727,125.374313 128.192520,125.267349 126.394714,124.781616 
	C125.994362,124.184288 126.004631,123.965736 126.014900,123.747192 
	C128.771683,123.495483 131.528458,123.243782 134.724579,123.070450 
z"/>
<path fill="#D6D8D8" opacity="1.000000" stroke="none" 
	d="
M125.732513,123.710846 
	C126.004631,123.965736 125.994362,124.184288 125.980240,124.731071 
	C124.737411,125.069466 123.498428,125.079620 122.049911,124.856247 
	C122.468170,124.358047 123.095985,124.093376 124.025795,123.659645 
	C124.701912,123.551895 125.076019,123.613197 125.732513,123.710846 
z"/>
<path fill="#D6D8D8" opacity="1.000000" stroke="none" 
	d="
M142.844147,129.042191 
	C142.237808,129.426620 141.414780,129.620499 140.272324,129.784027 
	C140.844406,129.452988 141.735931,129.152313 142.844147,129.042191 
z"/>
<path fill="#AEAFB0" opacity="0.000000" stroke="none" 
	d="
M99.997520,132.017822 
	C100.469040,131.976364 100.940552,131.934921 101.763733,131.836670 
	C102.341736,132.032501 102.568077,132.285126 102.896996,132.770294 
	C102.148071,133.124283 101.296570,133.245728 100.214050,132.960632 
	C99.987846,132.375336 99.992683,132.196564 99.997520,132.017822 
z"/>
<path fill="#CDCFCF" opacity="1.000000" stroke="none" 
	d="
M124.767731,131.861298 
	C124.254768,131.669754 123.668266,131.178452 122.959816,130.421509 
	C123.456642,130.624420 124.075417,131.092957 124.767731,131.861298 
z"/>
<path fill="#EBEBEB" opacity="1.000000" stroke="none" 
	d="
M109.756973,85.225929 
	C111.260361,85.833893 112.489410,86.648056 113.838577,88.103691 
	C113.385841,90.254532 112.812996,91.763901 111.838440,93.345497 
	C110.350189,93.422256 109.263657,93.426781 107.763031,93.288971 
	C105.899353,93.098206 104.449753,93.049782 103.000153,93.001358 
	C102.413780,92.371994 101.827415,91.742622 100.919594,90.992935 
	C103.559639,89.059120 106.521133,87.245621 109.756973,85.225929 
z"/>
<path fill="#656669" opacity="0.000000" stroke="none" 
	d="
M122.214989,104.416199 
	C117.116425,104.260269 112.017853,104.104340 106.777489,103.633957 
	C106.763885,103.110382 106.892090,102.901260 107.238564,102.614258 
	C109.760292,101.940414 111.239616,101.111916 108.992317,98.622475 
	C108.401237,97.967705 108.354599,96.821465 108.488144,95.904358 
	C110.924072,95.894226 112.929817,95.880661 114.920486,96.231796 
	C114.571823,98.138931 114.238220,99.681374 113.899620,101.246941 
	C116.853188,101.860931 119.406380,102.391693 122.021347,103.296249 
	C122.127068,103.918755 122.171028,104.167473 122.214989,104.416199 
z"/>
<path fill="#AEAFB0" opacity="0.000000" stroke="none" 
	d="
M107.020294,102.692139 
	C106.892090,102.901260 106.763885,103.110382 106.406174,103.606918 
	C104.716690,103.652466 103.256706,103.410591 101.377151,102.687424 
	C101.027199,99.501060 101.096832,96.795982 101.166458,94.090912 
	C101.653763,93.860237 102.141060,93.629555 102.814255,93.200119 
	C104.449753,93.049782 105.899353,93.098206 107.758110,93.588165 
	C108.103798,94.423828 108.040329,94.817963 107.606155,95.237396 
	C103.125687,96.853806 103.059341,99.144623 107.020294,102.692139 
z"/>
<path fill="#D6D8D8" opacity="1.000000" stroke="none" 
	d="
M100.817795,94.191650 
	C101.096832,96.795982 101.027199,99.501060 101.016449,102.584549 
	C97.235794,99.908844 97.106270,98.056236 100.817795,94.191650 
z"/>
<path fill="#D6D8D8" opacity="1.000000" stroke="none" 
	d="
M122.495361,104.569046 
	C122.171028,104.167473 122.127068,103.918755 122.419594,103.437866 
	C124.154686,103.318779 125.553284,103.431870 126.951889,103.544952 
	C126.671501,103.887489 126.391121,104.230026 126.031822,104.796402 
	C124.893845,104.920792 123.834785,104.821342 122.495361,104.569046 
z"/>
<path fill="#D6D8D8" opacity="1.000000" stroke="none" 
	d="
M94.768776,97.937820 
	C94.601967,97.580170 94.485374,96.769928 94.570068,95.812454 
	C94.787224,96.271881 94.803101,96.878555 94.768776,97.937820 
z"/>
<path fill="#EBEBEB" opacity="1.000000" stroke="none" 
	d="
M99.131721,90.972252 
	C99.195328,90.882797 99.391357,90.881516 99.884056,90.892517 
	C100.180733,90.904800 99.736366,91.092995 99.736366,91.092995 
	C99.736366,91.092995 99.264137,91.060417 99.131721,90.972252 
z"/>
<path fill="#9A9A9C" opacity="0.000000" stroke="none" 
	d="
M123.889931,120.196465 
	C124.207886,120.783394 124.216805,121.394386 124.267700,122.303596 
	C123.511200,122.285141 122.712708,121.968468 121.914215,121.651787 
	C122.469772,121.174706 123.025330,120.697617 123.889931,120.196465 
z"/>
<path fill="#E5E5E5" opacity="1.000000" stroke="none" 
	d="
M163.638977,90.985992 
	C163.048279,92.422592 162.128174,93.741531 160.682739,95.165421 
	C160.157425,95.270386 159.820953,95.161621 159.773666,94.795746 
	C157.820068,90.522461 155.173935,92.334808 152.247574,93.510735 
	C150.921906,93.431549 149.958939,93.351074 148.795868,92.974045 
	C146.718307,90.128723 144.840866,87.579941 142.982010,85.016190 
	C143.000610,85.001221 142.965500,85.035591 142.994690,84.691711 
	C143.017105,83.887627 143.010361,83.427429 143.003601,82.967224 
	C144.331635,82.454575 145.659653,81.941933 147.030685,81.164841 
	C152.485641,84.223038 157.897614,87.545685 163.638977,90.985992 
z"/>
<path fill="#E5E5E5" opacity="1.000000" stroke="none" 
	d="
M145.269775,80.381134 
	C141.445999,80.394348 137.435501,80.173851 133.186356,79.690361 
	C133.364456,79.261383 133.781204,79.095413 134.985580,78.917252 
	C138.192108,78.922012 140.610977,78.938957 143.029861,78.955910 
	C143.714249,79.353088 144.398651,79.750267 145.269775,80.381134 
z"/>
<path fill="#E5E5E5" opacity="1.000000" stroke="none" 
	d="
M129.715714,79.297607 
	C126.515434,79.612282 122.969833,79.778587 119.194649,79.683075 
	C119.102211,79.300514 119.239349,79.179771 120.069565,78.977127 
	C122.893738,78.852028 125.024811,78.808830 127.155891,78.765625 
	C127.894058,78.893494 128.632217,79.021362 129.715714,79.297607 
z"/>
<path fill="#CDCFCF" opacity="1.000000" stroke="none" 
	d="
M142.797211,78.676239 
	C140.610977,78.938957 138.192108,78.922012 135.317001,78.854263 
	C137.292114,76.081558 139.893692,76.582863 142.797211,78.676239 
z"/>
<path fill="#CDCFCF" opacity="1.000000" stroke="none" 
	d="
M126.940651,78.490112 
	C125.024811,78.808830 122.893738,78.852028 120.306351,78.839104 
	C122.141830,78.593521 124.433624,78.404060 126.940651,78.490112 
z"/>
<path fill="#8C8D90" opacity="0.000000" stroke="none" 
	d="
M148.995987,93.270592 
	C149.958939,93.351074 150.921906,93.431549 152.262207,93.835976 
	C152.644363,94.377304 152.649139,94.594681 152.370270,94.937752 
	C150.068024,95.345680 148.049393,95.627914 145.775238,95.810440 
	C145.028732,95.469429 144.537750,95.228119 143.979736,94.666702 
	C143.314011,93.208496 142.715302,92.070389 142.143005,90.925095 
	C142.169418,90.917915 142.149704,90.866859 142.105530,90.512703 
	C140.376770,88.765823 138.692215,87.373100 136.762390,85.989861 
	C136.517120,85.999352 136.033188,86.081741 135.721619,86.237762 
	C132.527405,89.152077 129.694138,89.551689 126.149872,87.155075 
	C125.032120,86.399254 122.625916,87.548874 120.765259,88.197975 
	C120.707962,89.566116 120.694801,90.562714 120.393372,91.718956 
	C118.950600,93.175392 117.796082,94.472183 116.356415,95.759995 
	C115.692696,95.789696 115.314125,95.828400 114.935555,95.867096 
	C112.929817,95.880661 110.924072,95.894226 108.457413,95.733635 
	C107.996498,95.559471 107.976860,95.212097 107.976852,95.212097 
	C108.040329,94.817963 108.103798,94.423828 108.172195,93.730499 
	C109.263657,93.426781 110.350189,93.422256 112.197800,93.326355 
	C115.424759,90.023979 117.890656,86.812981 120.356552,83.601982 
	C122.184723,83.559204 124.012894,83.516434 126.345612,83.780655 
	C129.681732,86.094208 132.428116,86.546104 134.990570,83.641563 
	C136.063904,83.606117 137.137238,83.570671 138.848846,83.846031 
	C140.646591,84.449753 141.806046,84.742668 142.965500,85.035591 
	C142.965500,85.035591 143.000610,85.001221 142.987244,85.405937 
	C144.203354,88.925262 142.684341,94.258621 148.995987,93.270592 
z"/>
<path fill="#BFBFC1" opacity="0.000000" stroke="none" 
	d="
M119.995827,83.462128 
	C117.890656,86.812981 115.424759,90.023979 112.599510,93.254120 
	C112.812996,91.763901 113.385841,90.254532 113.998978,88.400909 
	C114.700241,87.053864 115.361206,86.051079 116.043449,84.754715 
	C117.254860,84.081528 118.444977,83.701904 119.995827,83.462128 
z"/>
<path fill="#BFBFC1" opacity="0.000000" stroke="none" 
	d="
M134.777283,83.476685 
	C132.428116,86.546104 129.681732,86.094208 126.685837,83.879410 
	C127.271461,83.315445 128.021393,82.959740 129.375519,82.751282 
	C130.982925,82.918335 131.986145,82.938148 132.989349,82.957962 
	C133.514236,83.075912 134.039124,83.193855 134.777283,83.476685 
z"/>
<path fill="#BFBFC1" opacity="0.000000" stroke="none" 
	d="
M142.994690,84.691711 
	C141.806046,84.742668 140.646591,84.449753 139.251038,83.878075 
	C140.114059,83.383339 141.213181,83.167374 142.657959,82.959312 
	C143.010361,83.427429 143.017105,83.887627 142.994690,84.691711 
z"/>
<path fill="#E5E5E5" opacity="1.000000" stroke="none" 
	d="
M132.683014,82.788559 
	C131.986145,82.938148 130.982925,82.918335 129.792999,82.689346 
	C130.529739,82.526489 131.453217,82.572815 132.683014,82.788559 
z"/>
<path fill="#9A9A9C" opacity="0.000000" stroke="none" 
	d="
M159.820953,95.161621 
	C159.820953,95.161621 160.157425,95.270386 160.330719,95.299774 
	C159.762680,98.302299 159.021332,101.275429 157.703308,104.643295 
	C153.072678,105.345528 149.018738,105.653015 144.964783,105.960495 
	C143.305389,106.012589 141.645981,106.064682 139.573181,106.147003 
	C139.159760,106.177238 138.895767,105.888100 138.941360,105.506805 
	C139.761780,104.235306 140.536591,103.345093 141.751434,102.443375 
	C145.496872,102.351105 148.802292,102.270332 152.516800,102.217926 
	C158.631393,102.701599 158.100327,98.837242 158.166779,95.138214 
	C158.938797,95.133141 159.379868,95.147385 159.820953,95.161621 
z"/>
<path fill="#F6F7F8" opacity="1.000000" stroke="none" 
	d="
M145.203598,106.265099 
	C149.018738,105.653015 153.072678,105.345528 157.546921,104.968559 
	C159.258728,105.429916 160.550247,105.960754 161.931870,106.754753 
	C158.156509,107.338158 154.293839,107.834778 150.424286,107.895767 
	C148.771042,107.921822 147.103470,107.039345 145.203598,106.265099 
z"/>
<path fill="#58595D" opacity="0.000000" stroke="none" 
	d="
M152.107697,102.189560 
	C148.802292,102.270332 145.496872,102.351105 141.271439,102.339005 
	C137.120743,102.345787 133.890060,102.445435 130.659393,102.545074 
	C129.567429,102.705978 128.475464,102.866882 127.167694,103.286377 
	C125.553284,103.431870 124.154686,103.318779 122.357834,103.064072 
	C119.406380,102.391693 116.853188,101.860931 113.899620,101.246941 
	C114.238220,99.681374 114.571823,98.138931 114.920486,96.231796 
	C115.314125,95.828400 115.692696,95.789696 116.728882,95.735252 
	C118.484879,94.332771 119.583260,92.946045 120.681641,91.559311 
	C120.694801,90.562714 120.707962,89.566116 121.131790,88.326691 
	C123.172852,88.890884 124.737831,89.891617 126.445946,90.468468 
	C131.484467,92.170013 134.533096,90.709839 136.033188,86.081741 
	C136.033188,86.081741 136.517120,85.999352 136.800537,86.346924 
	C138.772537,88.085289 140.461121,89.476074 142.149704,90.866859 
	C142.149704,90.866859 142.169418,90.917915 142.128693,91.284042 
	C142.740906,92.762383 143.393845,93.874603 144.046768,94.986816 
	C144.537750,95.228119 145.028732,95.469429 145.865814,96.148300 
	C148.177170,98.453751 150.142441,100.321655 152.107697,102.189560 
z"/>
<path fill="#747578" opacity="0.000000" stroke="none" 
	d="
M130.864319,102.799408 
	C133.890060,102.445435 137.120743,102.345787 140.831406,102.350510 
	C140.536591,103.345093 139.761780,104.235306 138.809219,105.362366 
	C136.110748,104.750717 133.589996,103.902222 130.864319,102.799408 
z"/>
<path fill="#5E5F61" opacity="0.000000" stroke="none" 
	d="
M153.559738,135.516754 
	C156.046799,135.399826 158.209122,135.043655 160.308716,135.269806 
	C162.762772,135.534149 165.162125,136.306396 167.585205,136.858307 
	C166.987106,139.477997 166.981964,142.453003 165.668961,144.644333 
	C162.827499,149.386581 159.316132,153.727402 155.981339,158.561310 
	C155.175568,159.246140 154.467224,159.602081 153.197906,159.908676 
	C150.758011,158.211899 148.879044,156.564453 146.716721,154.859192 
	C145.865570,154.763168 145.297775,154.724960 144.510437,154.528625 
	C144.144287,154.265381 143.997711,154.160248 144.090576,153.840363 
	C144.411575,153.427399 144.493118,153.229156 144.867462,152.901779 
	C146.044556,152.047256 146.825562,151.101364 147.829376,150.631165 
	C156.314255,146.656860 157.331879,142.901550 151.799347,135.603928 
	C152.268646,135.580978 152.737946,135.558029 153.559738,135.516754 
z"/>
<path fill="#EBEBEB" opacity="1.000000" stroke="none" 
	d="
M143.851120,154.055115 
	C143.997711,154.160248 144.144287,154.265381 144.275909,154.890244 
	C144.302963,157.586502 144.344986,159.763016 144.387009,161.939529 
	C143.638138,162.308762 142.889282,162.677994 141.698792,163.339966 
	C139.845215,163.443329 138.433273,163.253983 136.973343,162.718658 
	C136.578156,161.526993 136.230957,160.681290 135.975449,159.520218 
	C137.073105,155.293579 135.810455,152.851227 131.408722,152.358826 
	C130.940857,152.435593 130.674057,152.413956 130.044113,152.327057 
	C128.459106,153.222336 127.241577,154.129257 126.014603,155.015442 
	C126.005142,154.994690 126.041061,155.023788 125.732468,155.143433 
	C124.913292,156.197220 124.402695,157.131348 123.508041,158.057526 
	C122.099724,158.038498 121.075470,158.027405 119.992493,157.602570 
	C120.210327,154.762253 120.486877,152.335663 121.045273,149.823532 
	C121.515244,149.681686 121.703362,149.625412 122.203293,149.593018 
	C123.462318,148.403015 124.409531,147.189087 125.624039,145.816742 
	C126.351433,145.249298 126.811516,144.840302 127.316986,144.422760 
	C127.362366,144.414215 127.451584,144.438141 127.462891,144.654999 
	C127.809753,144.711655 128.145309,144.551422 128.947739,144.312820 
	C131.587524,144.371994 133.760406,144.509537 135.933304,144.647079 
	C135.819809,144.879044 135.706314,145.111008 135.334229,145.849838 
	C136.402985,147.557236 137.730331,148.757782 139.240936,150.098541 
	C139.662659,150.435074 139.880325,150.652237 140.148666,151.177689 
	C140.753937,152.002884 141.287689,152.540665 142.033508,153.284241 
	C142.780777,153.678391 143.315948,153.866760 143.851120,154.055115 
M121.476936,155.504013 
	C121.476936,155.504013 121.515511,155.490082 121.476936,155.504013 
z"/>
<path fill="#808183" opacity="0.000000" stroke="none" 
	d="
M137.021317,163.064636 
	C138.433273,163.253983 139.845215,163.443329 141.616211,163.604126 
	C141.371994,164.981583 140.811630,167.585052 140.158783,167.608459 
	C133.594604,167.843735 127.014290,167.693176 120.441750,167.525070 
	C119.828751,167.509369 119.237869,166.628860 117.957870,165.609009 
	C119.913780,164.886826 121.205460,164.409897 123.175491,163.729187 
	C128.242996,163.371826 132.632156,163.218231 137.021317,163.064636 
z"/>
<path fill="#F6F7F8" opacity="1.000000" stroke="none" 
	d="
M136.973343,162.718658 
	C132.632156,163.218231 128.242996,163.371826 123.446556,163.539337 
	C122.389992,163.188232 121.740723,162.823212 120.757538,161.989700 
	C120.299484,160.352905 120.175346,159.184616 120.051216,158.016327 
	C121.075470,158.027405 122.099724,158.038498 123.779076,158.269073 
	C126.282539,158.707932 128.130905,158.927292 130.376099,159.131638 
	C131.825485,159.007996 132.878052,158.899399 134.133118,158.992889 
	C134.851654,159.408524 135.367706,159.622055 135.883743,159.835602 
	C136.230957,160.681290 136.578156,161.526993 136.973343,162.718658 
z"/>
<path fill="#AEAFB0" opacity="0.000000" stroke="none" 
	d="
M127.271599,144.431305 
	C126.811516,144.840302 126.351433,145.249298 125.313202,145.955826 
	C123.787186,147.358597 122.839333,148.463867 121.891472,149.569122 
	C121.703362,149.625412 121.515244,149.681686 120.782822,149.959656 
	C119.502190,151.135803 118.765846,152.090271 118.029495,153.044739 
	C117.779922,151.594772 117.530350,150.144791 117.304222,148.077286 
	C117.720184,145.581070 118.112701,143.702377 118.440369,141.516190 
	C118.238510,140.814011 118.101494,140.419357 118.042877,139.722794 
	C118.183311,139.222427 118.245338,139.023941 118.307358,138.825470 
	C119.243874,138.929779 120.180389,139.034088 121.478935,139.153931 
	C121.840965,139.169449 121.852631,139.201309 121.939720,139.533020 
	C123.472183,141.011520 124.917564,142.158310 126.583878,143.432739 
	C126.960403,143.850693 127.115997,144.141006 127.271599,144.431305 
z"/>
<path fill="#747578" opacity="0.000000" stroke="none" 
	d="
M147.000061,154.917007 
	C148.879044,156.564453 150.758011,158.211899 152.943054,160.065948 
	C152.066223,161.160370 150.883301,162.048157 149.071808,162.783554 
	C147.584290,162.491333 146.725372,162.351501 145.866440,162.211685 
	C145.866440,162.211685 145.812042,162.200424 145.884552,161.772339 
	C146.304718,159.201843 146.652390,157.059418 147.000061,154.917007 
z"/>
<path fill="#CDCFCF" opacity="1.000000" stroke="none" 
	d="
M118.505219,141.823700 
	C118.112701,143.702377 117.720184,145.581070 117.164597,147.736145 
	C115.829887,147.769104 114.658241,147.525665 113.126480,147.325531 
	C112.118889,146.887878 111.471413,146.406937 110.712357,145.195587 
	C110.410881,143.902664 110.220985,143.340179 110.031090,142.777679 
	C110.031090,142.777679 110.383965,142.661331 110.913483,142.850479 
	C113.998306,143.803055 116.792160,145.952072 118.505219,141.823700 
z"/>
<path fill="#BFBFC1" opacity="0.000000" stroke="none" 
	d="
M118.016174,153.478409 
	C118.765846,152.090271 119.502190,151.135803 120.500977,150.045212 
	C120.486877,152.335663 120.210327,154.762253 119.992493,157.602570 
	C120.175346,159.184616 120.299484,160.352905 120.397484,161.876648 
	C119.581841,159.458771 118.792336,156.685425 118.016174,153.478409 
z"/>
<path fill="#8C8D90" opacity="0.000000" stroke="none" 
	d="
M146.716705,154.859192 
	C146.652390,157.059418 146.304718,159.201843 145.870605,161.748322 
	C145.551407,162.119186 145.318634,162.086014 144.736420,161.996185 
	C144.344986,159.763016 144.302963,157.586502 144.495453,155.048370 
	C145.297775,154.724960 145.865570,154.763168 146.716705,154.859192 
z"/>
<path fill="#8C8D90" opacity="0.000000" stroke="none" 
	d="
M145.989334,162.463470 
	C146.725372,162.351501 147.584290,162.491333 148.720734,162.807602 
	C148.036255,162.894440 147.074234,162.804840 145.989334,162.463470 
z"/>
<path fill="#5E5F61" opacity="0.000000" stroke="none" 
	d="
M95.646576,147.442856 
	C95.380226,144.974365 95.210838,142.714752 95.017876,140.457123 
	C94.708458,136.837051 95.714752,134.734222 99.971619,135.566299 
	C101.671272,135.898529 103.508789,135.525436 105.616714,135.303513 
	C106.360840,135.177261 106.771812,135.220886 107.484360,135.334167 
	C107.564705,138.027023 107.017776,140.676575 107.227066,143.264954 
	C107.389450,145.273376 107.927719,148.262680 109.280632,148.990097 
	C115.437363,152.300369 111.761398,157.106842 112.565575,161.176590 
	C112.106781,161.424469 111.647995,161.672363 111.189209,161.920242 
	C107.302910,157.881729 103.448776,153.811325 99.502289,149.832520 
	C98.742653,149.066666 97.620773,148.660095 96.302612,148.072235 
	C95.939209,148.056686 95.732941,147.652618 95.646576,147.442856 
M104.596199,141.153168 
	C103.364624,138.986053 102.051712,136.060486 99.502213,139.551239 
	C98.760597,140.566666 99.723404,143.173706 100.467484,144.792572 
	C100.888802,145.709183 102.452751,146.100616 103.502060,146.728607 
	C103.961662,145.116074 104.421265,143.503525 104.596199,141.153168 
z"/>
<path fill="#E5E5E5" opacity="1.000000" stroke="none" 
	d="
M118.440369,141.516190 
	C116.792160,145.952072 113.998306,143.803055 111.072067,142.947266 
	C110.929436,141.608704 111.157753,140.362488 111.627945,138.944153 
	C112.659790,138.922821 113.449760,139.073608 114.912201,139.367279 
	C116.377930,139.681671 117.171204,139.853180 117.964478,140.024689 
	C118.101494,140.419357 118.238510,140.814011 118.440369,141.516190 
z"/>
<path fill="#AEAFB0" opacity="0.000000" stroke="none" 
	d="
M109.897736,142.940994 
	C110.220985,143.340179 110.410881,143.902664 110.580353,144.916000 
	C110.294746,144.612656 110.029572,143.858490 109.897736,142.940994 
z"/>
<path fill="#8C8D90" opacity="0.000000" stroke="none" 
	d="
M112.140060,136.148254 
	C112.431015,136.270905 112.858765,136.576523 113.105164,136.926544 
	C112.686516,136.779572 112.470871,136.566360 112.140060,136.148254 
z"/>
<path fill="#656669" opacity="0.000000" stroke="none" 
	d="
M127.316986,144.422760 
	C127.115997,144.141006 126.960403,143.850693 126.399673,143.191528 
	C124.613899,141.615555 123.233261,140.408432 121.852631,139.201309 
	C121.852631,139.201309 121.840965,139.169449 121.832573,139.155334 
	C121.155388,137.474442 120.550003,135.951721 123.443367,135.998657 
	C128.680298,136.083603 133.919601,136.022720 139.813751,136.022720 
	C138.338196,138.704285 137.180588,140.808044 135.879913,143.187317 
	C135.726059,143.667648 135.715225,143.872467 135.818848,144.362183 
	C133.760406,144.509537 131.587524,144.371994 128.785583,144.198090 
	C127.857986,144.091873 127.623009,144.184006 127.451584,144.438141 
	C127.451584,144.438141 127.362366,144.414215 127.316986,144.422760 
z"/>
<path fill="#8C8D90" opacity="0.000000" stroke="none" 
	d="
M151.561829,135.480316 
	C157.331879,142.901550 156.314255,146.656860 147.829376,150.631165 
	C146.825562,151.101364 146.044556,152.047256 144.567230,152.792694 
	C143.652359,152.540436 143.330521,152.268127 143.008698,151.995819 
	C144.162827,150.938660 145.147400,149.523148 146.499130,148.883545 
	C154.196121,145.241455 154.706589,142.296768 147.634567,136.224869 
	C149.221176,135.851547 150.272736,135.604126 151.561829,135.480316 
z"/>
<path fill="#D6D8D8" opacity="1.000000" stroke="none" 
	d="
M149.841599,142.160263 
	C148.897797,144.964249 148.210449,148.191605 144.573334,145.706711 
	C143.277466,144.821381 142.463928,142.932800 141.995117,141.336288 
	C141.872818,140.919769 144.034241,139.110992 144.861725,139.286407 
	C146.622925,139.659790 148.197067,140.915359 149.841599,142.160263 
z"/>
<path fill="#DBDBDC" opacity="1.000000" stroke="none" 
	d="
M139.057693,149.958313 
	C137.730331,148.757782 136.402985,147.557236 135.259033,146.229828 
	C136.509171,146.546478 137.575897,146.990005 138.856796,148.024612 
	C139.066544,149.063232 139.062119,149.510773 139.057693,149.958313 
z"/>
<path fill="#BFBFC1" opacity="1.000000" stroke="none" 
	d="
M139.240936,150.098541 
	C139.062119,149.510773 139.066544,149.063232 139.093140,148.279663 
	C140.028824,148.745316 140.942368,149.546997 141.612823,150.650452 
	C140.938889,150.931580 140.508011,150.910934 140.077148,150.890274 
	C139.880325,150.652237 139.662659,150.435074 139.240936,150.098541 
z"/>
<path fill="#DBDBDC" opacity="1.000000" stroke="none" 
	d="
M140.148666,151.177689 
	C140.508011,150.910934 140.938889,150.931580 141.693741,150.962860 
	C142.017731,150.973495 142.130249,151.430801 142.076843,151.957626 
	C141.956085,152.682449 141.888763,152.880447 141.821426,153.078445 
	C141.287689,152.540665 140.753937,152.002884 140.148666,151.177689 
z"/>
<path fill="#BFBFC1" opacity="1.000000" stroke="none" 
	d="
M142.033508,153.284241 
	C141.888763,152.880447 141.956085,152.682449 142.128204,152.187439 
	C142.232986,151.890411 142.620560,151.944794 142.814621,151.970306 
	C143.330521,152.268127 143.652359,152.540436 144.274429,152.921844 
	C144.493118,153.229156 144.411575,153.427399 144.090576,153.840363 
	C143.315948,153.866760 142.780777,153.678391 142.033508,153.284241 
z"/>
<path fill="#CDCFCF" opacity="1.000000" stroke="none" 
	d="
M118.042877,139.722809 
	C117.171204,139.853180 116.377930,139.681671 115.315933,139.369644 
	C115.539856,138.865005 116.032509,138.500900 116.808380,138.006485 
	C117.355408,138.093719 117.619209,138.311249 118.095184,138.677124 
	C118.245338,139.023941 118.183311,139.222427 118.042877,139.722809 
z"/>
<path fill="#ABACAD" opacity="0.000000" stroke="none" 
	d="
M99.663895,131.850555 
	C99.992683,132.196564 99.987846,132.375336 99.972748,132.822678 
	C97.185165,133.678726 94.407845,134.266205 91.284943,134.886459 
	C92.836082,131.506226 95.534737,130.172638 99.663895,131.850555 
z"/>
<path fill="#58595D" opacity="0.000000" stroke="none" 
	d="
M107.606163,95.237396 
	C107.976860,95.212097 107.996498,95.559471 108.027222,95.730194 
	C108.354599,96.821465 108.401237,97.967705 108.992317,98.622475 
	C111.239616,101.111916 109.760292,101.940414 107.238564,102.614258 
	C103.059341,99.144623 103.125687,96.853806 107.606163,95.237396 
z"/>
<path fill="#BFBFC1" opacity="1.000000" stroke="none" 
	d="
M148.795868,92.974045 
	C142.684341,94.258621 144.203354,88.925262 142.968643,85.420914 
	C144.840866,87.579941 146.718307,90.128723 148.795868,92.974045 
z"/>
<path fill="#BFBFC1" opacity="1.000000" stroke="none" 
	d="
M159.773666,94.795746 
	C159.379868,95.147385 158.938797,95.133141 157.834656,94.976578 
	C155.665695,94.826851 154.159790,94.819450 152.653900,94.812057 
	C152.649139,94.594681 152.644363,94.377304 152.624939,93.834679 
	C155.173935,92.334808 157.820068,90.522461 159.773666,94.795746 
z"/>
<path fill="#656669" opacity="0.000000" stroke="none" 
	d="
M152.370270,94.937744 
	C154.159790,94.819450 155.665695,94.826851 157.503708,94.995888 
	C158.100327,98.837242 158.631393,102.701599 152.516800,102.217926 
	C150.142441,100.321655 148.177170,98.453751 146.121338,96.248001 
	C148.049393,95.627914 150.068024,95.345680 152.370270,94.937744 
z"/>
<path fill="#656669" opacity="0.000000" stroke="none" 
	d="
M135.721619,86.237762 
	C134.533096,90.709839 131.484467,92.170013 126.445946,90.468468 
	C124.737831,89.891617 123.172852,88.890884 121.175934,87.955139 
	C122.625916,87.548874 125.032120,86.399254 126.149872,87.155075 
	C129.694138,89.551689 132.527405,89.152077 135.721619,86.237762 
z"/>
<path fill="#656669" opacity="0.000000" stroke="none" 
	d="
M142.105530,90.512703 
	C140.461121,89.476074 138.772537,88.085289 137.045807,86.337433 
	C138.692215,87.373100 140.376770,88.765823 142.105530,90.512703 
z"/>
<path fill="#656669" opacity="0.000000" stroke="none" 
	d="
M120.393379,91.718964 
	C119.583260,92.946045 118.484879,94.332771 117.014030,95.744247 
	C117.796082,94.472183 118.950600,93.175392 120.393379,91.718964 
z"/>
<path fill="#656669" opacity="0.000000" stroke="none" 
	d="
M143.979736,94.666702 
	C143.393845,93.874603 142.740906,92.762383 142.102295,91.291229 
	C142.715302,92.070389 143.314011,93.208496 143.979736,94.666702 
z"/>
<path fill="#B4B4B6" opacity="0.000000" stroke="none" 
	d="
M133.930603,158.790802 
	C132.878052,158.899399 131.825485,159.007996 130.141525,158.895493 
	C128.353760,157.457520 127.197418,156.240646 126.041061,155.023788 
	C126.041061,155.023788 126.005142,154.994690 126.360107,154.996155 
	C127.947258,154.111313 129.179428,153.224991 130.411606,152.338684 
	C130.674057,152.413956 130.940857,152.435593 131.577911,152.664886 
	C132.606079,154.881042 133.268341,156.835907 133.930603,158.790802 
z"/>
<path fill="#DBDBDC" opacity="1.000000" stroke="none" 
	d="
M134.133118,158.992889 
	C133.268341,156.835907 132.606079,154.881042 131.774628,152.620102 
	C135.810455,152.851227 137.073105,155.293579 135.975449,159.520218 
	C135.367706,159.622055 134.851654,159.408524 134.133118,158.992889 
z"/>
<path fill="#DBDBDC" opacity="1.000000" stroke="none" 
	d="
M125.732468,155.143433 
	C127.197418,156.240646 128.353760,157.457520 129.744690,158.910522 
	C128.130905,158.927292 126.282539,158.707932 124.163139,158.277023 
	C124.402695,157.131348 124.913292,156.197220 125.732468,155.143433 
z"/>
<path fill="#BFBFC1" opacity="1.000000" stroke="none" 
	d="
M122.203293,149.593018 
	C122.839333,148.463867 123.787186,147.358597 125.045891,146.114258 
	C124.409531,147.189087 123.462318,148.403015 122.203293,149.593018 
z"/>
<path fill="#DBDBDC" opacity="1.000000" stroke="none" 
	d="
M130.044113,152.327057 
	C129.179428,153.224991 127.947258,154.111313 126.369568,155.016907 
	C127.241577,154.129257 128.459106,153.222336 130.044113,152.327057 
z"/>
<path fill="#AEAFB0" opacity="0.000000" stroke="none" 
	d="
M127.462891,144.654999 
	C127.623009,144.184006 127.857986,144.091873 128.318695,144.276459 
	C128.145309,144.551422 127.809753,144.711655 127.462891,144.654999 
z"/>
<path fill="#F6F7F8" opacity="1.000000" stroke="none" 
	d="
M121.496223,155.497040 
	C121.515511,155.490082 121.476936,155.504013 121.496223,155.497040 
z"/>
<path fill="#8C8D90" opacity="0.000000" stroke="none" 
	d="
M121.939720,139.533020 
	C123.233261,140.408432 124.613899,141.615555 126.178741,143.063889 
	C124.917564,142.158310 123.472183,141.011520 121.939720,139.533020 
z"/>
<path fill="#000000" opacity="0.000000" stroke="none" 
	d="
M104.738533,141.522079 
	C104.421265,143.503525 103.961662,145.116074 103.502060,146.728607 
	C102.452751,146.100616 100.888802,145.709183 100.467484,144.792572 
	C99.723404,143.173706 98.760597,140.566666 99.502213,139.551239 
	C102.051712,136.060486 103.364624,138.986053 104.738533,141.522079 
z"/>
</svg>