<?xml version="1.0" encoding="UTF-8"?>
<svg version="1.1" xmlns="http://www.w3.org/2000/svg" width="485" height="553">
<path d="M0 0 C3.25970543 2.41743255 6.0012618 5.19675728 8.734375 8.1875 C10.19864349 9.95811498 10.19864349 9.95811498 12.328125 9.7265625 C12.99479167 11.7265625 13.66145833 13.7265625 14.328125 15.7265625 C14.988125 16.3865625 15.648125 17.0465625 16.328125 17.7265625 C16.70491544 19.0482727 17.02948856 20.3850316 17.328125 21.7265625 C18.32439548 24.74443184 19.3571884 27.74858143 20.390625 30.75390625 C26.6194049 50.50432919 21.66572271 72.46325323 13.328125 90.7265625 C12.99039062 91.63921875 12.65265625 92.551875 12.3046875 93.4921875 C11.328125 95.7265625 11.328125 95.7265625 9.328125 96.7265625 C8.998125 97.3865625 8.668125 98.0465625 8.328125 98.7265625 C7.328125 99.7265625 6.328125 100.7265625 5.328125 101.7265625 C4.668125 102.7165625 4.008125 103.7065625 3.328125 104.7265625 C1.34122769 106.07934365 -0.65932718 107.41224555 -2.671875 108.7265625 C-4.57145581 110.03974512 -4.57145581 110.03974512 -5.671875 111.7265625 C-5.92257413 114.35226954 -5.92257413 114.35226954 -5.671875 116.7265625 C-4.681875 117.0565625 -3.691875 117.3865625 -2.671875 117.7265625 C-2.33457491 119.05889787 -2.00178259 120.3923774 -1.671875 121.7265625 C3.08424362 127.04079708 9.3413436 130.94324925 15.328125 134.7265625 C25.86687615 130.21695736 34.93466976 118.2116918 42.83251953 110.18554688 C46.21111454 106.76718604 49.60063448 103.43428381 53.25 100.3046875 C58.20615957 96.04292819 62.7435705 91.38057995 67.328125 86.7265625 C72.60185338 81.37292914 77.88304848 76.13695645 83.59082031 71.24560547 C86.73061158 68.50027365 89.56216892 65.45793479 92.4453125 62.44921875 C94.328125 60.7265625 94.328125 60.7265625 96.328125 60.7265625 C97.52734375 61.94921875 97.52734375 61.94921875 99.015625 63.7890625 C103.43725712 69.03091209 108.3410678 73.76462969 113.26049805 78.53344727 C114.2182312 79.47401978 114.2182312 79.47401978 115.1953125 80.43359375 C116.06325439 81.27627808 116.06325439 81.27627808 116.94873047 82.13598633 C118.328125 83.7265625 118.328125 83.7265625 119.328125 86.7265625 C118.01497314 87.54966919 118.01497314 87.54966919 116.67529297 88.3894043 C113.3278118 90.62508246 110.59759661 93.24542048 107.7734375 96.12109375 C107.01557449 96.88675911 107.01557449 96.88675911 106.24240112 97.66789246 C104.64107589 99.2868688 103.04663923 100.91240046 101.453125 102.5390625 C99.35504141 104.67402772 97.25368971 106.80569685 95.1484375 108.93359375 C94.63871399 109.44890656 94.12899048 109.96421936 93.6038208 110.49514771 C90.29482964 113.8173899 86.87472708 116.93219408 83.30810547 119.97143555 C79.12005596 123.68387548 75.25398511 127.74121966 71.328125 131.7265625 C66.04173034 137.09305405 60.76299508 142.37376057 55.01953125 147.25390625 C53.36918839 148.69080985 51.78457561 150.09195279 50.328125 151.7265625 C50.328125 152.3865625 50.328125 153.0465625 50.328125 153.7265625 C52.89001487 155.59286506 55.50486249 157.31228052 58.1796875 159.00976562 C67.85779862 165.39951853 70.79182212 172.79940557 73.8828125 183.78515625 C74.30050398 185.21694522 74.71989979 186.6482379 75.14085388 188.07907104 C76.04258835 191.15630144 76.93311515 194.23646845 77.81484985 197.31948853 C79.21477763 202.21383066 80.63855563 207.10101644 82.06713867 211.98706055 C83.57427359 217.14461933 85.08039905 222.30244776 86.57884216 227.46253967 C90.34178056 240.41262942 94.18593955 253.33702328 98.07421875 266.25 C98.35072014 267.16857599 98.62722153 268.08715199 98.91210175 269.03356361 C101.08836419 276.26197211 103.26823465 283.4892914 105.44826508 290.71656418 C106.98365844 295.80759035 108.51704248 300.89921289 110.047472 305.99173355 C110.73571058 308.27936332 111.42657689 310.56618833 112.11753845 312.85299683 C112.53204061 314.23178686 112.94640158 315.61061935 113.3605957 316.98950195 C113.71837601 318.17639114 114.07615631 319.36328033 114.44477844 320.58613586 C115.95643887 325.96031052 116.5194625 330.90259629 116.515625 336.4765625 C116.51771973 337.21156982 116.51981445 337.94657715 116.52197266 338.70385742 C116.47298443 344.94058875 115.83383665 351.0341116 114.86401367 357.19238281 C114.29712448 361.09604867 114.03950349 363.45526542 116.328125 366.7265625 C118.71350105 368.06554384 118.71350105 368.06554384 121.62890625 369.03125 C122.73661377 369.4422998 123.84432129 369.85334961 124.9855957 370.27685547 C126.19175537 370.71400879 127.39791504 371.15116211 128.640625 371.6015625 C157.00871734 382.24600235 183.76914908 396.4885183 209.328125 412.7265625 C208.11217938 415.80458385 206.84892284 418.78635334 205.328125 421.7265625 C204.998125 422.3865625 204.668125 423.0465625 204.328125 423.7265625 C196.078125 436.1015625 196.078125 436.1015625 192.328125 440.7265625 C188.26758255 440.07647566 185.12742072 437.92508507 181.703125 435.7890625 C156.40932869 420.37439765 130.00908558 408.16094458 102.328125 397.7265625 C99.64903514 404.36200645 97.05445965 411.02409798 94.52734375 417.71875 C83.17002048 447.67766444 71.5985289 477.54075849 58.16015625 506.640625 C56.35394729 510.5848155 54.75033161 514.60018281 53.16674805 518.63818359 C52.24511458 520.933279 51.41037795 522.62717352 49.828125 524.5390625 C48.16364137 526.96643447 47.72941049 528.83730699 47.328125 531.7265625 C46.668125 531.7265625 46.008125 531.7265625 45.328125 531.7265625 C44.47535716 533.02253267 43.66191022 534.34450761 42.86865234 535.67773438 C41.02881524 538.19675816 40.02166882 539.51225261 37.01397705 540.44165039 C34.20567937 540.65106975 31.493357 540.62694098 28.6796875 540.5078125 C27.66715912 540.49649292 26.65463074 540.48517334 25.61141968 540.47351074 C22.39003063 540.42886724 19.17315898 540.32852623 15.953125 540.2265625 C13.76438738 540.18642 11.57557971 540.14992058 9.38671875 540.1171875 C4.0323233 540.02917373 -1.31945318 539.89546238 -6.671875 539.7265625 C-4.75222233 533.01025015 -2.54052665 526.48707501 -0.00390625 519.98046875 C0.34808334 519.06788803 0.70007294 518.15530731 1.06272888 517.21507263 C1.81821024 515.25666829 2.57519352 513.29884277 3.33355713 511.34155273 C5.36339132 506.09984945 7.37901783 500.852692 9.39453125 495.60546875 C9.80632629 494.5337442 10.21812134 493.46201965 10.64239502 492.3578186 C19.13320774 470.23029022 27.50848904 448.03902455 35.328125 425.6640625 C35.80886475 424.29024414 35.80886475 424.29024414 36.29931641 422.88867188 C37.78393019 418.90048162 37.78393019 418.90048162 38.328125 414.7265625 C-10.23357427 402.07097407 -49.91524013 401.01147917 -98.671875 414.7265625 C-96.71014256 422.32746639 -94.39743943 429.71886066 -91.734375 437.1015625 C-91.32106934 438.25293701 -90.90776367 439.40431152 -90.48193359 440.59057617 C-81.24703247 466.17513521 -71.55986503 491.61491453 -61.7109375 516.96875 C-61.42159332 517.71362167 -61.13224915 518.45849335 -60.83413696 519.22593689 C-59.53697146 522.56062521 -58.23411407 525.89294605 -56.92236328 529.22192383 C-56.4839209 530.34107178 -56.04547852 531.46021973 -55.59375 532.61328125 C-55.21831055 533.56420654 -54.84287109 534.51513184 -54.45605469 535.49487305 C-53.671875 537.7265625 -53.671875 537.7265625 -53.671875 539.7265625 C-60.1496631 539.8026169 -66.62733608 539.85516404 -73.10546875 539.89135742 C-75.30928856 539.90644541 -77.51307835 539.92691826 -79.71679688 539.95288086 C-82.88418997 539.98926308 -86.05118611 540.00628882 -89.21875 540.01953125 C-90.69707306 540.04275703 -90.69707306 540.04275703 -92.20526123 540.06645203 C-93.1259137 540.06667862 -94.04656616 540.06690521 -94.99511719 540.06713867 C-95.8034198 540.07380051 -96.61172241 540.08046234 -97.44451904 540.08732605 C-100.25678487 539.63182499 -101.57824674 538.62999879 -103.671875 536.7265625 C-106.23639285 532.87978572 -107.99809412 529.03057047 -109.671875 524.7265625 C-110.331875 524.7265625 -110.991875 524.7265625 -111.671875 524.7265625 C-111.795625 523.9221875 -111.919375 523.1178125 -112.046875 522.2890625 C-112.253125 521.4434375 -112.459375 520.5978125 -112.671875 519.7265625 C-113.331875 519.3965625 -113.991875 519.0665625 -114.671875 518.7265625 C-114.80327881 517.87795654 -114.93468262 517.02935059 -115.07006836 516.1550293 C-115.80828158 511.94946004 -117.41473432 508.67019577 -119.30078125 504.87109375 C-123.34836084 496.49172965 -127.04780057 488.00962058 -130.609375 479.4140625 C-131.07402664 478.29709488 -131.07402664 478.29709488 -131.54806519 477.15756226 C-137.1403047 463.69486797 -142.47891815 450.13632614 -147.734375 436.5390625 C-148.08950165 435.62152191 -148.4446283 434.70398132 -148.81051636 433.75863647 C-153.29684384 422.14813823 -157.60213005 410.48969254 -161.671875 398.7265625 C-164.6210171 398.7265625 -166.14419395 399.13760986 -168.85546875 400.16015625 C-169.68965332 400.4742041 -170.52383789 400.78825195 -171.38330078 401.11181641 C-172.73270752 401.63267822 -172.73270752 401.63267822 -174.109375 402.1640625 C-175.05022949 402.52677246 -175.99108398 402.88948242 -176.96044922 403.26318359 C-200.30631242 412.37576496 -224.05329407 423.01641822 -244.5612793 437.52685547 C-248.0530922 439.94982117 -250.36353928 441.33267817 -254.671875 440.7265625 C-254.754375 440.0253125 -254.836875 439.3240625 -254.921875 438.6015625 C-255.85196505 435.0362173 -257.43873869 432.63640678 -259.671875 429.7265625 C-260.331875 429.7265625 -260.991875 429.7265625 -261.671875 429.7265625 C-261.754375 429.1078125 -261.836875 428.4890625 -261.921875 427.8515625 C-262.45998233 425.54309446 -262.45998233 425.54309446 -264.671875 424.7265625 C-265.331875 424.3965625 -265.991875 424.0665625 -266.671875 423.7265625 C-267.02599844 422.39859959 -267.35709054 421.06439643 -267.671875 419.7265625 C-269.65089074 417.49678254 -269.65089074 417.49678254 -271.671875 415.7265625 C-270.07771997 411.81446942 -267.53294168 409.35438164 -264.546875 406.4140625 C-263.63679688 405.51042969 -262.72671875 404.60679687 -261.7890625 403.67578125 C-259.56764776 401.53334049 -257.27175531 399.50551493 -254.9296875 397.49609375 C-249.92717015 393.15523795 -245.31758503 388.44266207 -240.671875 383.7265625 C-235.50015524 378.47648334 -230.3214829 373.35584478 -224.7265625 368.55859375 C-220.5220131 364.80967043 -216.62355516 360.7381166 -212.671875 356.7265625 C-198.98956646 342.83694625 -198.98956646 342.83694625 -192.41748047 338.10253906 C-171.73342211 323.19028148 -167.9183139 301.516183 -161.67333984 278.08203125 C-159.55844659 270.21248811 -157.2510031 262.40613713 -154.91015625 254.6015625 C-154.60320107 253.57696552 -154.60320107 253.57696552 -154.29004478 252.53166962 C-153.25141805 249.06569764 -152.21093571 245.60028658 -151.16958618 242.13513184 C-149.12335506 235.32133248 -147.09923704 228.50097256 -145.078125 221.6796875 C-144.88505579 221.02867317 -144.69198658 220.37765884 -144.49306679 219.70691681 C-142.02790895 211.39020263 -139.618046 203.06017146 -137.265625 194.7109375 C-136.5385441 192.15941292 -135.80986377 189.60835204 -135.08044434 187.05749512 C-134.44793648 184.81880418 -133.83908909 182.57464179 -133.23144531 180.32910156 C-130.22494631 169.59082563 -125.53188095 162.96686005 -116.171875 156.9765625 C-115.54804932 156.56809082 -114.92422363 156.15961914 -114.28149414 155.73876953 C-105.6409312 150.23581811 -96.40929732 145.74916168 -87.30224609 141.08251953 C-69.40103785 132.31354072 -69.40103785 132.31354072 -56.671875 117.7265625 C-56.011875 117.0665625 -55.351875 116.4065625 -54.671875 115.7265625 C-54.0293515 113.65782216 -54.0293515 113.65782216 -53.671875 111.7265625 C-54.51492187 111.12328125 -55.35796875 110.52 -56.2265625 109.8984375 C-57.33364856 109.09157817 -58.44040207 108.28426242 -59.546875 107.4765625 C-60.10246094 107.08082031 -60.65804687 106.68507813 -61.23046875 106.27734375 C-64.24781469 104.05977625 -66.37836291 102.29600093 -67.671875 98.7265625 C-68.331875 98.7265625 -68.991875 98.7265625 -69.671875 98.7265625 C-69.8575 97.7984375 -69.8575 97.7984375 -70.046875 96.8515625 C-70.54384856 94.53535418 -70.54384856 94.53535418 -72.671875 92.7265625 C-73.001875 91.7365625 -73.331875 90.7465625 -73.671875 89.7265625 C-74.10242188 88.78167969 -74.53296875 87.83679688 -74.9765625 86.86328125 C-84.5025242 65.9393405 -85.55519802 43.70343721 -78.671875 21.7265625 C-77.46461297 19.31203843 -76.06048788 17.0409173 -74.671875 14.7265625 C-74.341875 14.0665625 -74.011875 13.4065625 -73.671875 12.7265625 C-71.16473683 8.96585525 -68.15164284 6.56550181 -64.671875 3.7265625 C-64.07246094 3.21609375 -63.47304687 2.705625 -62.85546875 2.1796875 C-44.85862576 -12.39813104 -19.10003091 -12.01453557 0 0 Z M-76.671875 345.7265625 C-78.3719873 345.91992188 -78.3719873 345.91992188 -80.10644531 346.1171875 C-110.30448224 348.5968482 -110.30448224 348.5968482 -138.671875 357.7265625 C-137.681875 357.7265625 -136.691875 357.7265625 -135.671875 357.7265625 C-136.661875 358.2215625 -136.661875 358.2215625 -137.671875 358.7265625 C-137.671875 365.6565625 -137.671875 372.5865625 -137.671875 379.7265625 C-140.07533203 379.92572266 -140.07533203 379.92572266 -142.52734375 380.12890625 C-144.63803345 380.30714227 -146.74870985 380.48553593 -148.859375 380.6640625 C-150.44202148 380.79458008 -150.44202148 380.79458008 -152.05664062 380.92773438 C-153.58901367 381.05825195 -153.58901367 381.05825195 -155.15234375 381.19140625 C-156.08973389 381.2699585 -157.02712402 381.34851074 -157.99291992 381.42944336 C-160.59753335 381.71831737 -163.11185244 382.17233081 -165.671875 382.7265625 C-164.681875 383.3865625 -163.691875 384.0465625 -162.671875 384.7265625 C-162.878125 385.4278125 -163.084375 386.1290625 -163.296875 386.8515625 C-163.75037857 390.32842322 -162.94727777 392.50054373 -161.671875 395.7265625 C-156.02817786 394.19250237 -150.387492 392.64894828 -144.75390625 391.078125 C-66.09802137 369.30255493 12.04553217 370.98204108 90.328125 392.7265625 C93.99381271 393.73016646 97.6607733 394.72905782 101.328125 395.7265625 C102.63969606 391.94015687 103.93941171 388.14991146 105.22827148 384.35571289 C105.66838727 383.06553935 106.111728 381.77646126 106.55834961 380.48852539 C107.19971737 378.63719131 107.82855104 376.78152991 108.45703125 374.92578125 C108.83931885 373.81033936 109.22160645 372.69489746 109.61547852 371.5456543 C110.61054831 368.67534934 110.61054831 368.67534934 109.328125 365.7265625 C106.71133095 364.55195413 106.71133095 364.55195413 103.43359375 363.67578125 C102.18288086 363.31000977 100.93216797 362.94423828 99.64355469 362.56738281 C98.26795896 362.18158222 96.89197069 361.79717896 95.515625 361.4140625 C94.81763794 361.21647339 94.11965088 361.01888428 93.4005127 360.81530762 C38.52770733 345.30580395 -19.88624313 339.2548646 -76.671875 345.7265625 Z M-169.671875 368.7265625 C-169.341875 369.7165625 -169.011875 370.7065625 -168.671875 371.7265625 C-168.671875 370.7365625 -168.671875 369.7465625 -168.671875 368.7265625 C-169.001875 368.7265625 -169.331875 368.7265625 -169.671875 368.7265625 Z M-168.671875 371.7265625 C-167.671875 374.7265625 -167.671875 374.7265625 -167.671875 374.7265625 Z M-164.671875 384.7265625 C-163.671875 386.7265625 -163.671875 386.7265625 -163.671875 386.7265625 Z " fill="#e04646" transform="translate(274.671875,11.2734375)"/>
<path d="M0 0 C3.25970543 2.41743255 6.0012618 5.19675728 8.734375 8.1875 C10.19864349 9.95811498 10.19864349 9.95811498 12.328125 9.7265625 C12.99479167 11.7265625 13.66145833 13.7265625 14.328125 15.7265625 C15.318125 16.7165625 15.318125 16.7165625 16.328125 17.7265625 C16.70491544 19.0482727 17.02948856 20.3850316 17.328125 21.7265625 C18.32439548 24.74443184 19.3571884 27.74858143 20.390625 30.75390625 C26.6194049 50.50432919 21.66572271 72.46325323 13.328125 90.7265625 C12.99039063 91.63921875 12.65265625 92.551875 12.3046875 93.4921875 C11.328125 95.7265625 11.328125 95.7265625 9.328125 96.7265625 C8.998125 97.3865625 8.668125 98.0465625 8.328125 98.7265625 C7.328125 99.7265625 6.328125 100.7265625 5.328125 101.7265625 C4.668125 102.7165625 4.008125 103.7065625 3.328125 104.7265625 C1.34122769 106.07934365 -0.65932718 107.41224555 -2.671875 108.7265625 C-4.57145581 110.03974512 -4.57145581 110.03974512 -5.671875 111.7265625 C-5.92257413 114.35226954 -5.92257413 114.35226954 -5.671875 116.7265625 C-4.681875 117.0565625 -3.691875 117.3865625 -2.671875 117.7265625 C-2.33457491 119.05889787 -2.00178259 120.3923774 -1.671875 121.7265625 C3.08424362 127.04079708 9.3413436 130.94324925 15.328125 134.7265625 C25.86687615 130.21695736 34.93466976 118.2116918 42.83251953 110.18554688 C46.21111454 106.76718604 49.60063448 103.43428381 53.25 100.3046875 C58.20615957 96.04292819 62.7435705 91.38057995 67.328125 86.7265625 C72.60185338 81.37292914 77.88304848 76.13695645 83.59082031 71.24560547 C86.73061158 68.50027365 89.56216892 65.45793479 92.4453125 62.44921875 C94.328125 60.7265625 94.328125 60.7265625 96.328125 60.7265625 C97.52734375 61.94921875 97.52734375 61.94921875 99.015625 63.7890625 C103.43725712 69.03091209 108.3410678 73.76462969 113.26049805 78.53344727 C114.2182312 79.47401978 114.2182312 79.47401978 115.1953125 80.43359375 C116.06325439 81.27627808 116.06325439 81.27627808 116.94873047 82.13598633 C118.328125 83.7265625 118.328125 83.7265625 119.328125 86.7265625 C118.01497314 87.54966919 118.01497314 87.54966919 116.67529297 88.3894043 C113.3278118 90.62508246 110.59759661 93.24542048 107.7734375 96.12109375 C107.01557449 96.88675911 107.01557449 96.88675911 106.24240112 97.66789246 C104.64107589 99.2868688 103.04663923 100.91240046 101.453125 102.5390625 C99.35504141 104.67402772 97.25368971 106.80569685 95.1484375 108.93359375 C94.63871399 109.44890656 94.12899048 109.96421936 93.6038208 110.49514771 C90.29482964 113.8173899 86.87472708 116.93219408 83.30810547 119.97143555 C79.12005596 123.68387548 75.25398511 127.74121966 71.328125 131.7265625 C66.019799 137.11531768 60.7244885 142.410522 54.93408203 147.28442383 C53.12638934 148.82589758 53.12638934 148.82589758 51.203125 151.4140625 C49.328125 153.7265625 49.328125 153.7265625 46.828125 155.2578125 C41.72016718 158.57373489 37.68324273 163.2052346 33.453125 167.5390625 C28.24028803 172.85740666 23.0356785 178.0568181 17.37841797 182.90112305 C13.17311672 186.64523324 9.27791746 190.7169247 5.328125 194.7265625 C0.14632506 199.98687456 -5.04248382 205.11906997 -10.6484375 209.92578125 C-14.67000552 213.50482151 -18.39704486 217.39114119 -22.171875 221.2265625 C-31.1255299 230.32393578 -31.1255299 230.32393578 -35.640625 234.1953125 C-40.58355165 238.43844296 -45.10293857 243.08839976 -49.671875 247.7265625 C-54.85367494 252.98687456 -60.04248382 258.11906997 -65.6484375 262.92578125 C-69.67000552 266.50482151 -73.39704486 270.39114119 -77.171875 274.2265625 C-86.1255299 283.32393578 -86.1255299 283.32393578 -90.640625 287.1953125 C-95.58355165 291.43844296 -100.10293857 296.08839976 -104.671875 300.7265625 C-109.86576801 305.99915086 -115.06210516 311.17122905 -120.67578125 315.99707031 C-124.44245839 319.26066387 -128.0711263 322.65682544 -131.671875 326.1015625 C-132.44660156 326.80539062 -133.22132813 327.50921875 -134.01953125 328.234375 C-138.06336589 332.0311138 -138.06336589 332.0311138 -140.18554688 337.00463867 C-140.20322078 339.30543698 -139.99846138 341.45066368 -139.671875 343.7265625 C-139.56359375 345.67755859 -139.56359375 345.67755859 -139.453125 347.66796875 C-139.31390625 349.46041016 -139.31390625 349.46041016 -139.171875 351.2890625 C-139.0790625 352.50722656 -138.98625 353.72539062 -138.890625 354.98046875 C-138.8184375 355.88667969 -138.74625 356.79289062 -138.671875 357.7265625 C-137.681875 357.7265625 -136.691875 357.7265625 -135.671875 357.7265625 C-135.64498284 359.20563142 -135.62552879 360.68483733 -135.609375 362.1640625 C-135.59777344 362.98777344 -135.58617187 363.81148438 -135.57421875 364.66015625 C-135.671875 366.7265625 -135.671875 366.7265625 -136.671875 367.7265625 C-136.71837406 369.72602189 -136.70960413 371.7269184 -136.671875 373.7265625 C-136.63414587 375.7262066 -136.62537594 377.72710311 -136.671875 379.7265625 C-138.50310598 381.55779348 -141.42339244 381.09549865 -143.89453125 381.26171875 C-145.15458984 381.34873047 -146.41464844 381.43574219 -147.71289062 381.52539062 C-149.05337893 381.61338014 -150.39387381 381.70126945 -151.734375 381.7890625 C-153.07880476 381.88043779 -154.42320631 381.97222925 -155.76757812 382.06445312 C-159.06875474 382.28926444 -162.37016348 382.5097723 -165.671875 382.7265625 C-167.66692143 378.95302088 -167.97588846 376.07747245 -168.1328125 371.84765625 C-168.45924591 369.53976734 -168.45924591 369.53976734 -170.66748047 368.47851562 C-172.671875 366.7265625 -172.671875 366.7265625 -173.21777344 363.94946289 C-173.2387207 362.83563232 -173.25966797 361.72180176 -173.28125 360.57421875 C-173.31347656 359.32060547 -173.34570312 358.06699219 -173.37890625 356.77539062 C-173.39308594 355.45990234 -173.40726562 354.14441406 -173.421875 352.7890625 C-173.45152344 351.53931641 -173.48117188 350.28957031 -173.51171875 349.00195312 C-173.56830579 346.33562572 -173.59902073 343.67778656 -173.60498047 341.01171875 C-173.62140678 338.12894309 -173.77483895 335.29734004 -174.02392578 332.42578125 C-175.14457452 316.12518636 -169.679343 301.23690326 -164.78841019 285.93314743 C-163.53006429 281.97657143 -162.30159462 278.01075977 -161.07202148 274.04516602 C-160.56460045 272.40942652 -160.05713859 270.77369969 -159.54963684 269.13798523 C-159.29566446 268.31926123 -159.04169209 267.50053722 -158.78002357 266.6570034 C-157.99943298 264.14576529 -157.21485941 261.63579987 -156.42948914 259.12605286 C-152.92528492 247.90747678 -149.56783565 236.65267153 -146.30893707 225.36048889 C-145.56435883 222.78168578 -144.81682539 220.20375809 -144.06829834 217.62609863 C-143.57821991 215.93775202 -143.08816844 214.24939759 -142.59814453 212.56103516 C-142.35852242 211.73543468 -142.1189003 210.90983421 -141.87201691 210.05921555 C-140.6875014 205.97251085 -139.51052687 201.88389087 -138.34857178 197.79071045 C-137.25657793 193.94539068 -136.14445598 190.10644279 -135.01767921 186.27117729 C-134.60950217 184.86793776 -134.2088158 183.46249253 -133.81650352 182.05473518 C-130.6364323 170.66121257 -126.14584228 163.35978833 -116.171875 156.9765625 C-115.23613647 156.36385498 -115.23613647 156.36385498 -114.28149414 155.73876953 C-105.6409312 150.23581811 -96.40929732 145.74916168 -87.30224609 141.08251953 C-69.40103785 132.31354072 -69.40103785 132.31354072 -56.671875 117.7265625 C-56.011875 117.0665625 -55.351875 116.4065625 -54.671875 115.7265625 C-54.0293515 113.65782216 -54.0293515 113.65782216 -53.671875 111.7265625 C-54.51492187 111.12328125 -55.35796875 110.52 -56.2265625 109.8984375 C-57.33364856 109.09157817 -58.44040207 108.28426242 -59.546875 107.4765625 C-60.10246094 107.08082031 -60.65804687 106.68507813 -61.23046875 106.27734375 C-64.24781469 104.05977625 -66.37836291 102.29600093 -67.671875 98.7265625 C-68.331875 98.7265625 -68.991875 98.7265625 -69.671875 98.7265625 C-69.8575 97.7984375 -69.8575 97.7984375 -70.046875 96.8515625 C-70.54384856 94.53535418 -70.54384856 94.53535418 -72.671875 92.7265625 C-73.001875 91.7365625 -73.331875 90.7465625 -73.671875 89.7265625 C-74.10242188 88.78167969 -74.53296875 87.83679688 -74.9765625 86.86328125 C-84.5025242 65.9393405 -85.55519802 43.70343721 -78.671875 21.7265625 C-77.46461297 19.31203843 -76.06048788 17.0409173 -74.671875 14.7265625 C-74.341875 14.0665625 -74.011875 13.4065625 -73.671875 12.7265625 C-71.16473683 8.96585525 -68.15164284 6.56550181 -64.671875 3.7265625 C-64.07246094 3.21609375 -63.47304687 2.705625 -62.85546875 2.1796875 C-44.85862576 -12.39813104 -19.10003091 -12.01453557 0 0 Z " fill="#e04646" transform="translate(274.671875,11.2734375)"/>
<path d="M0 0 C10.21704066 4.98910037 20.19595152 10.24012152 30 16 C28.46488177 19.64160099 26.28003346 21.96443215 23.4921875 24.73828125 C22.58726562 25.64126953 21.68234375 26.54425781 20.75 27.47460938 C20.04037109 28.17493286 20.04037109 28.17493286 19.31640625 28.8894043 C17.89541817 30.29234121 16.48279557 31.70373493 15.0703125 33.11523438 C11.1213408 37.03910668 7.17138184 40.91713299 2.9453125 44.54296875 C-1.96840494 48.76052419 -6.45834508 53.38953213 -11 58 C-16.18179994 63.26031206 -21.37060882 68.39250747 -26.9765625 73.19921875 C-30.99813052 76.77825901 -34.72516986 80.66457869 -38.5 84.5 C-47.4536549 93.59737328 -47.4536549 93.59737328 -51.96875 97.46875 C-56.91167665 101.71188046 -61.43106357 106.36183726 -66 111 C-71.18179994 116.26031206 -76.37060882 121.39250747 -81.9765625 126.19921875 C-85.99813052 129.77825901 -89.72516986 133.66457869 -93.5 137.5 C-102.4536549 146.59737328 -102.4536549 146.59737328 -106.96875 150.46875 C-111.91167665 154.71188046 -116.43106357 159.36183726 -121 164 C-126.19389301 169.27258836 -131.39023016 174.44466655 -137.00390625 179.27050781 C-140.77058339 182.53410137 -144.3992513 185.93026294 -148 189.375 C-148.77472656 190.07882812 -149.54945313 190.78265625 -150.34765625 191.5078125 C-154.39149089 195.3045513 -154.39149089 195.3045513 -156.51367188 200.27807617 C-156.53134578 202.57887448 -156.32658638 204.72410118 -156 207 C-155.89171875 208.95099609 -155.89171875 208.95099609 -155.78125 210.94140625 C-155.6884375 212.13636719 -155.595625 213.33132813 -155.5 214.5625 C-155.4071875 215.78066406 -155.314375 216.99882812 -155.21875 218.25390625 C-155.11046875 219.61322266 -155.11046875 219.61322266 -155 221 C-154.01 221 -153.02 221 -152 221 C-151.97310784 222.47906892 -151.95365379 223.95827483 -151.9375 225.4375 C-151.92589844 226.26121094 -151.91429687 227.08492187 -151.90234375 227.93359375 C-152 230 -152 230 -153 231 C-153.04649906 232.99945939 -153.03772913 235.0003559 -153 237 C-152.96227087 238.9996441 -152.95350094 241.00054061 -153 243 C-154.83123098 244.83123098 -157.75151744 244.36893615 -160.22265625 244.53515625 C-161.48271484 244.62216797 -162.74277344 244.70917969 -164.04101562 244.79882812 C-165.38150393 244.88681764 -166.72199881 244.97470695 -168.0625 245.0625 C-169.40692976 245.15387529 -170.75133131 245.24566675 -172.09570312 245.33789062 C-175.39687974 245.56270194 -178.69828848 245.7832098 -182 246 C-183.99504643 242.22645838 -184.30401346 239.35090995 -184.4609375 235.12109375 C-184.63882813 234.42113281 -184.81671875 233.72117187 -185 233 C-185.64275879 232.65904297 -186.28551758 232.31808594 -186.94775391 231.96679688 C-192.26804316 226.86802811 -190.79255311 214.98754978 -191 208.0625 C-191.04870239 206.46873535 -191.04870239 206.46873535 -191.09838867 204.84277344 C-191.29255995 191.82048462 -190.20254469 181.80365375 -181.23266602 171.92066956 C-175.48568975 166.09316906 -169.11945312 160.99431874 -162.53833008 156.14819336 C-155.20678861 150.67600807 -148.90400298 143.9958825 -142.5 137.5 C-137.16601368 132.0894859 -131.83955219 126.78827169 -126.06835938 121.84570312 C-121.68533919 117.93450948 -117.62254675 113.68169376 -113.5 109.5 C-108.16601368 104.0894859 -102.83955219 98.78827169 -97.06835938 93.84570312 C-92.68533919 89.93450948 -88.62254675 85.68169376 -84.5 81.5 C-79.16601368 76.0894859 -73.83955219 70.78827169 -68.06835938 65.84570312 C-63.68533919 61.93450948 -59.62254675 57.68169376 -55.5 53.5 C-50.16601368 48.0894859 -44.83955219 42.78827169 -39.06835938 37.84570312 C-34.68533919 33.93450948 -30.62254675 29.68169376 -26.5 25.5 C-21.04591907 19.96766827 -15.59999291 14.52521002 -9.69726562 9.47021484 C-7.53238741 7.59494203 -5.50674014 5.60507479 -3.5 3.5625 C-2.8296875 2.88316406 -2.159375 2.20382813 -1.46875 1.50390625 C-0.74171875 0.75947266 -0.74171875 0.75947266 0 0 Z " fill="#e04646" transform="translate(291,148)"/>
<path d="M0 0 C14.85 0 29.7 0 45 0 C45 0.33 45 0.66 45 1 C30.15 1 15.3 1 0 1 C0 0.67 0 0.34 0 0 Z " fill="#e04646" transform="translate(269,552)"/>
<path d="M0 0 C14.85 0 29.7 0 45 0 C45 0.33 45 0.66 45 1 C30.15 1 15.3 1 0 1 C0 0.67 0 0.34 0 0 Z " fill="#e04646" transform="translate(175,552)"/>
<path d="M0 0 C11.88 0 23.76 0 36 0 C36 0.33 36 0.66 36 1 C24.12 1 12.24 1 0 1 C0 0.67 0 0.34 0 0 Z " fill="#e04646" transform="translate(226,356)"/>
<path d="M0 0 C0.33 0 0.66 0 1 0 C1 6.6 1 13.2 1 20 C0.67 20 0.34 20 0 20 C0 13.4 0 6.8 0 0 Z " fill="#e04646" transform="translate(298,52)"/>
<path d="M0 0 C0.33 0 0.66 0 1 0 C1 6.27 1 12.54 1 19 C0.67 19 0.34 19 0 19 C0 12.73 0 6.46 0 0 Z " fill="#e04646" transform="translate(190,52)"/>
<path d="M0 0 C5.28 0 10.56 0 16 0 C16 0.33 16 0.66 16 1 C10.72 1 5.44 1 0 1 C0 0.67 0 0.34 0 0 Z " fill="#e04646" transform="translate(254,384)"/>
<path d="M0 0 C5.28 0 10.56 0 16 0 C16 0.33 16 0.66 16 1 C10.72 1 5.44 1 0 1 C0 0.67 0 0.34 0 0 Z " fill="#e04646" transform="translate(218,384)"/>
<path d="M0 0 C0.33 0 0.66 0 1 0 C1 4.95 1 9.9 1 15 C0.67 15 0.34 15 0 15 C0 10.05 0 5.1 0 0 Z " fill="#e04646" transform="translate(392,341)"/>
<path d="M0 0 C3.96 0 7.92 0 12 0 C12 0.33 12 0.66 12 1 C8.04 1 4.08 1 0 1 C0 0.67 0 0.34 0 0 Z " fill="#e04646" transform="translate(238,414)"/>
<path d="M0 0 C3.63 0 7.26 0 11 0 C11 0.33 11 0.66 11 1 C7.37 1 3.74 1 0 1 C0 0.67 0 0.34 0 0 Z " fill="#e04646" transform="translate(268,357)"/>
<path d="M0 0 C3.63 0 7.26 0 11 0 C11 0.33 11 0.66 11 1 C7.37 1 3.74 1 0 1 C0 0.67 0 0.34 0 0 Z " fill="#e04646" transform="translate(209,357)"/>
<path d="M0 0 C2.97 0 5.94 0 9 0 C9 0.33 9 0.66 9 1 C6.03 1 3.06 1 0 1 C0 0.67 0 0.34 0 0 Z " fill="#e04646" transform="translate(274,385)"/>
<path d="M0 0 C2.97 0 5.94 0 9 0 C9 0.33 9 0.66 9 1 C6.03 1 3.06 1 0 1 C0 0.67 0 0.34 0 0 Z " fill="#e04646" transform="translate(205,385)"/>
<path d="M0 0 C2.64 0 5.28 0 8 0 C8 0.33 8 0.66 8 1 C5.36 1 2.72 1 0 1 C0 0.67 0 0.34 0 0 Z " fill="#e04646" transform="translate(116,394)"/>
<path d="M0 0 C2.64 0 5.28 0 8 0 C8 0.33 8 0.66 8 1 C5.36 1 2.72 1 0 1 C0 0.67 0 0.34 0 0 Z " fill="#e04646" transform="translate(126,393)"/>
<path d="M0 0 C0.33 0 0.66 0 1 0 C1 2.64 1 5.28 1 8 C0.67 8 0.34 8 0 8 C0 5.36 0 2.72 0 0 Z " fill="#e04646" transform="translate(139,381)"/>
<path d="M0 0 C2.64 0 5.28 0 8 0 C8 0.33 8 0.66 8 1 C5.36 1 2.72 1 0 1 C0 0.67 0 0.34 0 0 Z " fill="#e04646" transform="translate(246,1)"/>
<path d="M0 0 C2.64 0 5.28 0 8 0 C8 0.33 8 0.66 8 1 C5.36 1 2.72 1 0 1 C0 0.67 0 0.34 0 0 Z " fill="#e04646" transform="translate(235,1)"/>
<path d="M0 0 C2.31 0 4.62 0 7 0 C7 0.33 7 0.66 7 1 C4.69 1 2.38 1 0 1 C0 0.67 0 0.34 0 0 Z " fill="#e04646" transform="translate(286,386)"/>
<path d="M0 0 C2.31 0 4.62 0 7 0 C7 0.33 7 0.66 7 1 C4.69 1 2.38 1 0 1 C0 0.67 0 0.34 0 0 Z " fill="#e04646" transform="translate(195,386)"/>
<path d="M0 0 C2.31 0 4.62 0 7 0 C7 0.33 7 0.66 7 1 C4.69 1 2.38 1 0 1 C0 0.67 0 0.34 0 0 Z " fill="#e04646" transform="translate(190,359)"/>
<path d="M0 0 C2.31 0 4.62 0 7 0 C7 0.33 7 0.66 7 1 C4.69 1 2.38 1 0 1 C0 0.67 0 0.34 0 0 Z " fill="#e04646" transform="translate(282,358)"/>
<path d="M0 0 C2.31 0 4.62 0 7 0 C7 0.33 7 0.66 7 1 C4.69 1 2.38 1 0 1 C0 0.67 0 0.34 0 0 Z " fill="#e04646" transform="translate(199,358)"/>
<path d="M0 0 C1.98 0 3.96 0 6 0 C6 0.33 6 0.66 6 1 C4.02 1 2.04 1 0 1 C0 0.67 0 0.34 0 0 Z " fill="#e04646" transform="translate(262,416)"/>
<path d="M0 0 C1.98 0 3.96 0 6 0 C6 0.33 6 0.66 6 1 C4.02 1 2.04 1 0 1 C0 0.67 0 0.34 0 0 Z " fill="#e04646" transform="translate(254,415)"/>
<path d="M0 0 C1.98 0 3.96 0 6 0 C6 0.33 6 0.66 6 1 C4.02 1 2.04 1 0 1 C0 0.67 0 0.34 0 0 Z " fill="#e04646" transform="translate(228,415)"/>
<path d="M0 0 C1.98 0 3.96 0 6 0 C6 0.33 6 0.66 6 1 C4.02 1 2.04 1 0 1 C0 0.67 0 0.34 0 0 Z " fill="#e04646" transform="translate(292,359)"/>
<path d="M0 0 C1.65 0 3.3 0 5 0 C5 0.33 5 0.66 5 1 C3.35 1 1.7 1 0 1 C0 0.67 0 0.34 0 0 Z " fill="#e04646" transform="translate(269,417)"/>
<path d="M0 0 C1.65 0 3.3 0 5 0 C5 0.33 5 0.66 5 1 C3.35 1 1.7 1 0 1 C0 0.67 0 0.34 0 0 Z " fill="#e04646" transform="translate(221,416)"/>
<path d="M0 0 C0.99 0 1.98 0 3 0 C2.67 0.99 2.34 1.98 2 3 C2 2.34 2 1.68 2 1 C1.34 0.67 0.68 0.34 0 0 Z " fill="#e04646" transform="translate(110,410)"/>
<path d="M0 0 C1.32 0 2.64 0 4 0 C3.67 0.66 3.34 1.32 3 2 C2.01 1.34 1.02 0.68 0 0 Z " fill="#e04646" transform="translate(371,404)"/>
<path d="M0 0 C1.65 0 3.3 0 5 0 C5 0.33 5 0.66 5 1 C3.35 1 1.7 1 0 1 C0 0.67 0 0.34 0 0 Z " fill="#e04646" transform="translate(309,389)"/>
<path d="M0 0 C1.65 0 3.3 0 5 0 C5 0.33 5 0.66 5 1 C3.35 1 1.7 1 0 1 C0 0.67 0 0.34 0 0 Z " fill="#e04646" transform="translate(302,388)"/>
<path d="M0 0 C1.65 0 3.3 0 5 0 C5 0.33 5 0.66 5 1 C3.35 1 1.7 1 0 1 C0 0.67 0 0.34 0 0 Z " fill="#e04646" transform="translate(181,388)"/>
<path d="M0 0 C1.65 0 3.3 0 5 0 C5 0.33 5 0.66 5 1 C3.35 1 1.7 1 0 1 C0 0.67 0 0.34 0 0 Z " fill="#e04646" transform="translate(188,387)"/>
<path d="M0 0 C1.65 0 3.3 0 5 0 C5 0.33 5 0.66 5 1 C3.35 1 1.7 1 0 1 C0 0.67 0 0.34 0 0 Z " fill="#e04646" transform="translate(314,362)"/>
<path d="M0 0 C1.65 0 3.3 0 5 0 C5 0.33 5 0.66 5 1 C3.35 1 1.7 1 0 1 C0 0.67 0 0.34 0 0 Z " fill="#e04646" transform="translate(307,361)"/>
<path d="M0 0 C1.65 0 3.3 0 5 0 C5 0.33 5 0.66 5 1 C3.35 1 1.7 1 0 1 C0 0.67 0 0.34 0 0 Z " fill="#e04646" transform="translate(176,361)"/>
<path d="M0 0 C1.65 0 3.3 0 5 0 C5 0.33 5 0.66 5 1 C3.35 1 1.7 1 0 1 C0 0.67 0 0.34 0 0 Z " fill="#e04646" transform="translate(301,360)"/>
<path d="M0 0 C1.65 0 3.3 0 5 0 C5 0.33 5 0.66 5 1 C3.35 1 1.7 1 0 1 C0 0.67 0 0.34 0 0 Z " fill="#e04646" transform="translate(183,360)"/>
<path d="M0 0 C0.33 0 0.66 0 1 0 C1 1.65 1 3.3 1 5 C0.67 5 0.34 5 0 5 C0 3.35 0 1.7 0 0 Z " fill="#e04646" transform="translate(391,358)"/>
<path d="M0 0 C0.33 0 0.66 0 1 0 C1 1.65 1 3.3 1 5 C0.67 5 0.34 5 0 5 C0 3.35 0 1.7 0 0 Z " fill="#e04646" transform="translate(297,73)"/>
<path d="M0 0 C0.99 0 1.98 0 3 0 C2.67 0.66 2.34 1.32 2 2 C1.34 1.34 0.68 0.68 0 0 Z " fill="#e04646" transform="translate(310,426)"/>
<path d="M0 0 C0.99 0.33 1.98 0.66 3 1 C2.01 1.33 1.02 1.66 0 2 C0 1.34 0 0.68 0 0 Z " fill="#e04646" transform="translate(176,426)"/>
<path d="M0 0 C4 1 4 1 4 1 Z " fill="#e04646" transform="translate(285,420)"/>
<path d="M0 0 C4 1 4 1 4 1 Z " fill="#e04646" transform="translate(280,419)"/>
<path d="M0 0 C4 1 4 1 4 1 Z " fill="#e04646" transform="translate(275,418)"/>
<path d="M0 0 C4 1 4 1 4 1 Z " fill="#e04646" transform="translate(209,418)"/>
<path d="M0 0 C4 1 4 1 4 1 Z " fill="#e04646" transform="translate(215,417)"/>
<path d="M0 0 C0.99 0.33 1.98 0.66 3 1 C2.01 1.33 1.02 1.66 0 2 C0 1.34 0 0.68 0 0 Z " fill="#e04646" transform="translate(376,410)"/>
<path d="M0 0 C0.99 0.33 1.98 0.66 3 1 C2.01 1.33 1.02 1.66 0 2 C0 1.34 0 0.68 0 0 Z " fill="#e04646" transform="translate(114,404)"/>
<path d="M0 0 C4 1 4 1 4 1 Z " fill="#e04646" transform="translate(326,392)"/>
<path d="M0 0 C4 1 4 1 4 1 Z " fill="#e04646" transform="translate(159,392)"/>
<path d="M0 0 C4 1 4 1 4 1 Z " fill="#e04646" transform="translate(320,391)"/>
<path d="M0 0 C4 1 4 1 4 1 Z " fill="#e04646" transform="translate(164,391)"/>
<path d="M0 0 C4 1 4 1 4 1 Z " fill="#e04646" transform="translate(315,390)"/>
<path d="M0 0 C4 1 4 1 4 1 Z " fill="#e04646" transform="translate(169,390)"/>
<path d="M0 0 C4 1 4 1 4 1 Z " fill="#e04646" transform="translate(175,389)"/>
<path d="M0 0 C4 1 4 1 4 1 Z " fill="#e04646" transform="translate(296,387)"/>
<path d="M0 0 C4 1 4 1 4 1 Z " fill="#e04646" transform="translate(140,368)"/>
<path d="M0 0 C4 1 4 1 4 1 Z " fill="#e04646" transform="translate(336,366)"/>
<path d="M0 0 C4 1 4 1 4 1 Z " fill="#e04646" transform="translate(331,365)"/>
<path d="M0 0 C4 1 4 1 4 1 Z " fill="#e04646" transform="translate(326,364)"/>
<path d="M0 0 C4 1 4 1 4 1 Z " fill="#e04646" transform="translate(159,364)"/>
<path d="M0 0 C4 1 4 1 4 1 Z " fill="#e04646" transform="translate(321,363)"/>
<path d="M0 0 C4 1 4 1 4 1 Z " fill="#e04646" transform="translate(164,363)"/>
<path d="M0 0 C4 1 4 1 4 1 Z " fill="#e04646" transform="translate(170,362)"/>
<path d="M0 0 C1 4 1 4 1 4 Z " fill="#e04646" transform="translate(191,74)"/>
<path d="M0 0 C1 4 1 4 1 4 Z " fill="#e04646" transform="translate(297,46)"/>
<path d="M0 0 C1 4 1 4 1 4 Z " fill="#e04646" transform="translate(191,45)"/>
<path d="" fill="#e04646" transform="translate(0,0)"/>
<path d="" fill="#e04646" transform="translate(0,0)"/>
<path d="M0 0 C3 1 3 1 3 1 Z " fill="#e04646" transform="translate(306,425)"/>
<path d="M0 0 C3 1 3 1 3 1 Z " fill="#e04646" transform="translate(302,424)"/>
<path d="M0 0 C3 1 3 1 3 1 Z " fill="#e04646" transform="translate(298,423)"/>
<path d="M0 0 C3 1 3 1 3 1 Z " fill="#e04646" transform="translate(187,423)"/>
<path d="M0 0 C3 1 3 1 3 1 Z " fill="#e04646" transform="translate(294,422)"/>
<path d="M0 0 C3 1 3 1 3 1 Z " fill="#e04646" transform="translate(191,422)"/>
<path d="M0 0 C3 1 3 1 3 1 Z " fill="#e04646" transform="translate(290,421)"/>
<path d="M0 0 C3 1 3 1 3 1 Z " fill="#e04646" transform="translate(196,421)"/>
<path d="M0 0 C3 1 3 1 3 1 Z " fill="#e04646" transform="translate(200,420)"/>
<path d="M0 0 C3 1 3 1 3 1 Z " fill="#e04646" transform="translate(205,419)"/>
<path d="M0 0 C3 1 3 1 3 1 Z " fill="#e04646" transform="translate(368,403)"/>
<path d="M0 0 C3 1 3 1 3 1 Z " fill="#e04646" transform="translate(118,403)"/>
<path d="M0 0 C3 1 3 1 3 1 Z " fill="#e04646" transform="translate(355,399)"/>
<path d="M0 0 C3 1 3 1 3 1 Z " fill="#e04646" transform="translate(131,399)"/>
<path d="M0 0 C3 1 3 1 3 1 Z " fill="#e04646" transform="translate(351,398)"/>
<path d="M0 0 C3 1 3 1 3 1 Z " fill="#e04646" transform="translate(135,398)"/>
<path d="M0 0 C3 1 3 1 3 1 Z " fill="#e04646" transform="translate(344,396)"/>
<path d="M0 0 C3 1 3 1 3 1 Z " fill="#e04646" transform="translate(142,396)"/>
<path d="M0 0 C3 1 3 1 3 1 Z " fill="#e04646" transform="translate(340,395)"/>
<path d="M0 0 C3 1 3 1 3 1 Z " fill="#e04646" transform="translate(146,395)"/>
<path d="M0 0 C3 1 3 1 3 1 Z " fill="#e04646" transform="translate(335,394)"/>
<path d="M0 0 C3 1 3 1 3 1 Z " fill="#e04646" transform="translate(151,394)"/>
<path d="M0 0 C3 1 3 1 3 1 Z " fill="#e04646" transform="translate(331,393)"/>
<path d="M0 0 C3 1 3 1 3 1 Z " fill="#e04646" transform="translate(155,393)"/>
<path d="" fill="#e04646" transform="translate(0,0)"/>
<path d="" fill="#e04646" transform="translate(0,0)"/>
<path d="" fill="#e04646" transform="translate(0,0)"/>
<path d="M0 0 C0.66 0 1.32 0 2 0 C1.67 0.66 1.34 1.32 1 2 C0.67 1.34 0.34 0.68 0 0 Z " fill="#e04646" transform="translate(382,378)"/>
<path d="M0 0 C3 1 3 1 3 1 Z " fill="#e04646" transform="translate(378,377)"/>
<path d="M0 0 C3 1 3 1 3 1 Z " fill="#e04646" transform="translate(365,373)"/>
<path d="M0 0 C3 1 3 1 3 1 Z " fill="#e04646" transform="translate(361,372)"/>
<path d="" fill="#e04646" transform="translate(0,0)"/>
<path d="M0 0 C3 1 3 1 3 1 Z " fill="#e04646" transform="translate(357,371)"/>
<path d="M0 0 C3 1 3 1 3 1 Z " fill="#e04646" transform="translate(350,369)"/>
<path d="M0 0 C3 1 3 1 3 1 Z " fill="#e04646" transform="translate(345,368)"/>
<path d="M0 0 C3 1 3 1 3 1 Z " fill="#e04646" transform="translate(341,367)"/>
<path d="M0 0 C3 1 3 1 3 1 Z " fill="#e04646" transform="translate(145,367)"/>
<path d="" fill="#e04646" transform="translate(0,0)"/>
<path d="M0 0 C3 1 3 1 3 1 Z " fill="#e04646" transform="translate(149,366)"/>
<path d="M0 0 C3 1 3 1 3 1 Z " fill="#e04646" transform="translate(154,365)"/>
<path d="" fill="#e04646" transform="translate(0,0)"/>
<path d="" fill="#e04646" transform="translate(0,0)"/>
<path d="" fill="#e04646" transform="translate(0,0)"/>
<path d="" fill="#e04646" transform="translate(0,0)"/>
<path d="" fill="#e04646" transform="translate(0,0)"/>
<path d="" fill="#e04646" transform="translate(0,0)"/>
<path d="" fill="#e04646" transform="translate(0,0)"/>
<path d="" fill="#e04646" transform="translate(0,0)"/>
<path d="" fill="#e04646" transform="translate(0,0)"/>
<path d="" fill="#e04646" transform="translate(0,0)"/>
<path d="" fill="#e04646" transform="translate(0,0)"/>
<path d="" fill="#e04646" transform="translate(0,0)"/>
<path d="" fill="#e04646" transform="translate(0,0)"/>
<path d="" fill="#e04646" transform="translate(0,0)"/>
<path d="" fill="#e04646" transform="translate(0,0)"/>
<path d="" fill="#e04646" transform="translate(0,0)"/>
<path d="" fill="#e04646" transform="translate(0,0)"/>
<path d="" fill="#e04646" transform="translate(0,0)"/>
<path d="" fill="#e04646" transform="translate(0,0)"/>
<path d="" fill="#e04646" transform="translate(0,0)"/>
<path d="" fill="#e04646" transform="translate(0,0)"/>
<path d="" fill="#e04646" transform="translate(0,0)"/>
<path d="" fill="#e04646" transform="translate(0,0)"/>
<path d="" fill="#e04646" transform="translate(0,0)"/>
<path d="" fill="#e04646" transform="translate(0,0)"/>
<path d="" fill="#e04646" transform="translate(0,0)"/>
<path d="" fill="#e04646" transform="translate(0,0)"/>
<path d="" fill="#e04646" transform="translate(0,0)"/>
<path d="" fill="#e04646" transform="translate(0,0)"/>
<path d="" fill="#e04646" transform="translate(0,0)"/>
<path d="" fill="#e04646" transform="translate(0,0)"/>
<path d="" fill="#e04646" transform="translate(0,0)"/>
<path d="" fill="#e04646" transform="translate(0,0)"/>
<path d="" fill="#e04646" transform="translate(0,0)"/>
<path d="" fill="#e04646" transform="translate(0,0)"/>
<path d="" fill="#e04646" transform="translate(0,0)"/>
<path d="" fill="#e04646" transform="translate(0,0)"/>
<path d="M0 0 C0.66 0.66 1.32 1.32 2 2 C1.34 2 0.68 2 0 2 C0 1.34 0 0.68 0 0 Z " fill="#e04646" transform="translate(325,163)"/>
<path d="" fill="#e04646" transform="translate(0,0)"/>
<path d="" fill="#e04646" transform="translate(0,0)"/>
<path d="" fill="#e04646" transform="translate(0,0)"/>
<path d="" fill="#e04646" transform="translate(0,0)"/>
<path d="" fill="#e04646" transform="translate(0,0)"/>
<path d="" fill="#e04646" transform="translate(0,0)"/>
<path d="" fill="#e04646" transform="translate(0,0)"/>
<path d="M0 0 C3 1 3 1 3 1 Z " fill="#e04646" transform="translate(259,3)"/>
<path d="M0 0 C3 1 3 1 3 1 Z " fill="#e04646" transform="translate(255,2)"/>
<path d="M0 0 C3 1 3 1 3 1 Z " fill="#e04646" transform="translate(231,2)"/>
<path d="" fill="#e04646" transform="translate(0,0)"/>
<path d="" fill="#e04646" transform="translate(0,0)"/>
<path d="" fill="#e04646" transform="translate(0,0)"/>
<path d="" fill="#e04646" transform="translate(0,0)"/>
<path d="" fill="#e04646" transform="translate(0,0)"/>
<path d="" fill="#e04646" transform="translate(0,0)"/>
<path d="" fill="#e04646" transform="translate(0,0)"/>
<path d="" fill="#e04646" transform="translate(0,0)"/>
<path d="" fill="#e04646" transform="translate(0,0)"/>
<path d="" fill="#e04646" transform="translate(0,0)"/>
<path d="" fill="#e04646" transform="translate(0,0)"/>
<path d="" fill="#e04646" transform="translate(0,0)"/>
<path d="" fill="#e04646" transform="translate(0,0)"/>
<path d="" fill="#e04646" transform="translate(0,0)"/>
<path d="" fill="#e04646" transform="translate(0,0)"/>
<path d="" fill="#e04646" transform="translate(0,0)"/>
<path d="" fill="#e04646" transform="translate(0,0)"/>
<path d="" fill="#e04646" transform="translate(0,0)"/>
<path d="" fill="#e04646" transform="translate(0,0)"/>
<path d="" fill="#e04646" transform="translate(0,0)"/>
<path d="" fill="#e04646" transform="translate(0,0)"/>
<path d="" fill="#e04646" transform="translate(0,0)"/>
<path d="" fill="#e04646" transform="translate(0,0)"/>
<path d="" fill="#e04646" transform="translate(0,0)"/>
<path d="" fill="#e04646" transform="translate(0,0)"/>
<path d="" fill="#e04646" transform="translate(0,0)"/>
<path d="" fill="#e04646" transform="translate(0,0)"/>
<path d="" fill="#e04646" transform="translate(0,0)"/>
<path d="" fill="#e04646" transform="translate(0,0)"/>
<path d="" fill="#e04646" transform="translate(0,0)"/>
<path d="" fill="#e04646" transform="translate(0,0)"/>
<path d="" fill="#e04646" transform="translate(0,0)"/>
<path d="" fill="#e04646" transform="translate(0,0)"/>
<path d="" fill="#e04646" transform="translate(0,0)"/>
<path d="" fill="#e04646" transform="translate(0,0)"/>
<path d="" fill="#e04646" transform="translate(0,0)"/>
<path d="" fill="#e04646" transform="translate(0,0)"/>
<path d="" fill="#e04646" transform="translate(0,0)"/>
<path d="" fill="#e04646" transform="translate(0,0)"/>
<path d="" fill="#e04646" transform="translate(0,0)"/>
<path d="" fill="#e04646" transform="translate(0,0)"/>
<path d="" fill="#e04646" transform="translate(0,0)"/>
<path d="" fill="#e04646" transform="translate(0,0)"/>
<path d="" fill="#e04646" transform="translate(0,0)"/>
<path d="" fill="#e04646" transform="translate(0,0)"/>
<path d="" fill="#e04646" transform="translate(0,0)"/>
<path d="" fill="#e04646" transform="translate(0,0)"/>
<path d="" fill="#e04646" transform="translate(0,0)"/>
<path d="" fill="#e04646" transform="translate(0,0)"/>
<path d="" fill="#e04646" transform="translate(0,0)"/>
<path d="" fill="#e04646" transform="translate(0,0)"/>
<path d="" fill="#e04646" transform="translate(0,0)"/>
<path d="" fill="#e04646" transform="translate(0,0)"/>
<path d="" fill="#e04646" transform="translate(0,0)"/>
<path d="" fill="#e04646" transform="translate(0,0)"/>
<path d="" fill="#e04646" transform="translate(0,0)"/>
<path d="" fill="#e04646" transform="translate(0,0)"/>
<path d="" fill="#e04646" transform="translate(0,0)"/>
<path d="" fill="#e04646" transform="translate(0,0)"/>
<path d="" fill="#e04646" transform="translate(0,0)"/>
<path d="" fill="#e04646" transform="translate(0,0)"/>
<path d="" fill="#e04646" transform="translate(0,0)"/>
<path d="" fill="#e04646" transform="translate(0,0)"/>
<path d="" fill="#e04646" transform="translate(0,0)"/>
<path d="" fill="#e04646" transform="translate(0,0)"/>
<path d="" fill="#e04646" transform="translate(0,0)"/>
<path d="" fill="#e04646" transform="translate(0,0)"/>
<path d="" fill="#e04646" transform="translate(0,0)"/>
<path d="" fill="#e04646" transform="translate(0,0)"/>
<path d="" fill="#e04646" transform="translate(0,0)"/>
<path d="" fill="#e04646" transform="translate(0,0)"/>
<path d="" fill="#e04646" transform="translate(0,0)"/>
<path d="" fill="#e04646" transform="translate(0,0)"/>
<path d="" fill="#e04646" transform="translate(0,0)"/>
<path d="" fill="#e04646" transform="translate(0,0)"/>
<path d="" fill="#e04646" transform="translate(0,0)"/>
<path d="" fill="#e04646" transform="translate(0,0)"/>
<path d="" fill="#e04646" transform="translate(0,0)"/>
<path d="" fill="#e04646" transform="translate(0,0)"/>
<path d="" fill="#e04646" transform="translate(0,0)"/>
<path d="" fill="#e04646" transform="translate(0,0)"/>
<path d="" fill="#e04646" transform="translate(0,0)"/>
<path d="" fill="#e04646" transform="translate(0,0)"/>
<path d="" fill="#e04646" transform="translate(0,0)"/>
<path d="" fill="#e04646" transform="translate(0,0)"/>
<path d="" fill="#e04646" transform="translate(0,0)"/>
<path d="" fill="#e04646" transform="translate(0,0)"/>
<path d="" fill="#e04646" transform="translate(0,0)"/>
<path d="" fill="#e04646" transform="translate(0,0)"/>
<path d="" fill="#e04646" transform="translate(0,0)"/>
<path d="" fill="#e04646" transform="translate(0,0)"/>
<path d="" fill="#e04646" transform="translate(0,0)"/>
<path d="" fill="#e04646" transform="translate(0,0)"/>
<path d="" fill="#e04646" transform="translate(0,0)"/>
<path d="" fill="#e04646" transform="translate(0,0)"/>
<path d="" fill="#e04646" transform="translate(0,0)"/>
<path d="" fill="#e04646" transform="translate(0,0)"/>
<path d="" fill="#e04646" transform="translate(0,0)"/>
<path d="" fill="#e04646" transform="translate(0,0)"/>
<path d="" fill="#e04646" transform="translate(0,0)"/>
<path d="" fill="#e04646" transform="translate(0,0)"/>
<path d="" fill="#e04646" transform="translate(0,0)"/>
<path d="" fill="#e04646" transform="translate(0,0)"/>
<path d="" fill="#e04646" transform="translate(0,0)"/>
<path d="" fill="#e04646" transform="translate(0,0)"/>
<path d="" fill="#e04646" transform="translate(0,0)"/>
<path d="" fill="#e04646" transform="translate(0,0)"/>
<path d="" fill="#e04646" transform="translate(0,0)"/>
<path d="" fill="#e04646" transform="translate(0,0)"/>
<path d="" fill="#e04646" transform="translate(0,0)"/>
<path d="" fill="#e04646" transform="translate(0,0)"/>
<path d="" fill="#e04646" transform="translate(0,0)"/>
<path d="" fill="#e04646" transform="translate(0,0)"/>
<path d="" fill="#e04646" transform="translate(0,0)"/>
<path d="" fill="#e04646" transform="translate(0,0)"/>
<path d="" fill="#e04646" transform="translate(0,0)"/>
<path d="" fill="#e04646" transform="translate(0,0)"/>
<path d="" fill="#e04646" transform="translate(0,0)"/>
<path d="" fill="#e04646" transform="translate(0,0)"/>
<path d="" fill="#e04646" transform="translate(0,0)"/>
<path d="" fill="#e04646" transform="translate(0,0)"/>
<path d="" fill="#e04646" transform="translate(0,0)"/>
<path d="" fill="#e04646" transform="translate(0,0)"/>
<path d="" fill="#e04646" transform="translate(0,0)"/>
<path d="" fill="#e04646" transform="translate(0,0)"/>
<path d="" fill="#e04646" transform="translate(0,0)"/>
<path d="" fill="#e04646" transform="translate(0,0)"/>
<path d="" fill="#e04646" transform="translate(0,0)"/>
<path d="" fill="#e04646" transform="translate(0,0)"/>
<path d="" fill="#e04646" transform="translate(0,0)"/>
<path d="" fill="#e04646" transform="translate(0,0)"/>
<path d="M0 0 C2 1 2 1 2 1 Z " fill="#e04646" transform="translate(22,453)"/>
<path d="" fill="#e04646" transform="translate(0,0)"/>
<path d="" fill="#e04646" transform="translate(0,0)"/>
<path d="" fill="#e04646" transform="translate(0,0)"/>
<path d="" fill="#e04646" transform="translate(0,0)"/>
<path d="" fill="#e04646" transform="translate(0,0)"/>
<path d="M0 0 C2 1 2 1 2 1 Z " fill="#e04646" transform="translate(458,449)"/>
<path d="" fill="#e04646" transform="translate(0,0)"/>
<path d="" fill="#e04646" transform="translate(0,0)"/>
<path d="" fill="#e04646" transform="translate(0,0)"/>
<path d="" fill="#e04646" transform="translate(0,0)"/>
<path d="" fill="#e04646" transform="translate(0,0)"/>
<path d="" fill="#e04646" transform="translate(0,0)"/>
<path d="" fill="#e04646" transform="translate(0,0)"/>
<path d="" fill="#e04646" transform="translate(0,0)"/>
<path d="" fill="#e04646" transform="translate(0,0)"/>
<path d="" fill="#e04646" transform="translate(0,0)"/>
<path d="" fill="#e04646" transform="translate(0,0)"/>
<path d="" fill="#e04646" transform="translate(0,0)"/>
<path d="" fill="#e04646" transform="translate(0,0)"/>
<path d="" fill="#e04646" transform="translate(0,0)"/>
<path d="" fill="#e04646" transform="translate(0,0)"/>
<path d="" fill="#e04646" transform="translate(0,0)"/>
<path d="" fill="#e04646" transform="translate(0,0)"/>
<path d="" fill="#e04646" transform="translate(0,0)"/>
<path d="M0 0 C2 1 2 1 2 1 Z " fill="#e04646" transform="translate(443,440)"/>
<path d="M0 0 C2 1 2 1 2 1 Z " fill="#e04646" transform="translate(44,440)"/>
<path d="" fill="#e04646" transform="translate(0,0)"/>
<path d="" fill="#e04646" transform="translate(0,0)"/>
<path d="" fill="#e04646" transform="translate(0,0)"/>
<path d="" fill="#e04646" transform="translate(0,0)"/>
<path d="" fill="#e04646" transform="translate(0,0)"/>
<path d="" fill="#e04646" transform="translate(0,0)"/>
<path d="" fill="#e04646" transform="translate(0,0)"/>
<path d="" fill="#e04646" transform="translate(0,0)"/>
<path d="M0 0 C2 1 2 1 2 1 Z " fill="#e04646" transform="translate(434,435)"/>
<path d="M0 0 C2 1 2 1 2 1 Z " fill="#e04646" transform="translate(53,435)"/>
<path d="M0 0 C2 1 2 1 2 1 Z " fill="#e04646" transform="translate(432,434)"/>
<path d="M0 0 C2 1 2 1 2 1 Z " fill="#e04646" transform="translate(55,434)"/>
<path d="M0 0 C2 1 2 1 2 1 Z " fill="#e04646" transform="translate(430,433)"/>
<path d="" fill="#e04646" transform="translate(0,0)"/>
<path d="" fill="#e04646" transform="translate(0,0)"/>
<path d="" fill="#e04646" transform="translate(0,0)"/>
<path d="" fill="#e04646" transform="translate(0,0)"/>
<path d="M0 0 C2 1 2 1 2 1 Z " fill="#e04646" transform="translate(428,432)"/>
<path d="M0 0 C2 1 2 1 2 1 Z " fill="#e04646" transform="translate(59,432)"/>
<path d="" fill="#e04646" transform="translate(0,0)"/>
<path d="" fill="#e04646" transform="translate(0,0)"/>
<path d="" fill="#e04646" transform="translate(0,0)"/>
<path d="" fill="#e04646" transform="translate(0,0)"/>
<path d="" fill="#e04646" transform="translate(0,0)"/>
<path d="" fill="#e04646" transform="translate(0,0)"/>
<path d="M0 0 C2 1 2 1 2 1 Z " fill="#e04646" transform="translate(420,428)"/>
<path d="" fill="#e04646" transform="translate(0,0)"/>
<path d="" fill="#e04646" transform="translate(0,0)"/>
<path d="M0 0 C2 1 2 1 2 1 Z " fill="#e04646" transform="translate(418,427)"/>
<path d="M0 0 C2 1 2 1 2 1 Z " fill="#e04646" transform="translate(69,427)"/>
<path d="M0 0 C2 1 2 1 2 1 Z " fill="#e04646" transform="translate(416,426)"/>
<path d="M0 0 C2 1 2 1 2 1 Z " fill="#e04646" transform="translate(71,426)"/>
<path d="" fill="#e04646" transform="translate(0,0)"/>
<path d="M0 0 C2 1 2 1 2 1 Z " fill="#e04646" transform="translate(414,425)"/>
<path d="" fill="#e04646" transform="translate(0,0)"/>
<path d="M0 0 C2 1 2 1 2 1 Z " fill="#e04646" transform="translate(180,425)"/>
<path d="" fill="#e04646" transform="translate(0,0)"/>
<path d="M0 0 C2 1 2 1 2 1 Z " fill="#e04646" transform="translate(73,425)"/>
<path d="M0 0 C2 1 2 1 2 1 Z " fill="#e04646" transform="translate(184,424)"/>
<path d="M0 0 C2 1 2 1 2 1 Z " fill="#e04646" transform="translate(75,424)"/>
<path d="" fill="#e04646" transform="translate(0,0)"/>
<path d="" fill="#e04646" transform="translate(0,0)"/>
<path d="M0 0 C2 1 2 1 2 1 Z " fill="#e04646" transform="translate(407,422)"/>
<path d="M0 0 C2 1 2 1 2 1 Z " fill="#e04646" transform="translate(80,422)"/>
<path d="M0 0 C2 1 2 1 2 1 Z " fill="#e04646" transform="translate(405,421)"/>
<path d="M0 0 C2 1 2 1 2 1 Z " fill="#e04646" transform="translate(82,421)"/>
<path d="" fill="#e04646" transform="translate(0,0)"/>
<path d="" fill="#e04646" transform="translate(0,0)"/>
<path d="M0 0 C2 1 2 1 2 1 Z " fill="#e04646" transform="translate(400,419)"/>
<path d="M0 0 C2 1 2 1 2 1 Z " fill="#e04646" transform="translate(475,418)"/>
<path d="M0 0 C2 1 2 1 2 1 Z " fill="#e04646" transform="translate(398,418)"/>
<path d="M0 0 C2 1 2 1 2 1 Z " fill="#e04646" transform="translate(89,418)"/>
<path d="" fill="#e04646" transform="translate(0,0)"/>
<path d="" fill="#e04646" transform="translate(0,0)"/>
<path d="M0 0 C2 1 2 1 2 1 Z " fill="#e04646" transform="translate(393,416)"/>
<path d="M0 0 C2 1 2 1 2 1 Z " fill="#e04646" transform="translate(94,416)"/>
<path d="M0 0 C2 1 2 1 2 1 Z " fill="#e04646" transform="translate(388,414)"/>
<path d="" fill="#e04646" transform="translate(0,0)"/>
<path d="" fill="#e04646" transform="translate(0,0)"/>
<path d="M0 0 C2 1 2 1 2 1 Z " fill="#e04646" transform="translate(99,414)"/>
<path d="M0 0 C2 1 2 1 2 1 Z " fill="#e04646" transform="translate(385,413)"/>
<path d="M0 0 C2 1 2 1 2 1 Z " fill="#e04646" transform="translate(102,413)"/>
<path d="M0 0 C2 1 2 1 2 1 Z " fill="#e04646" transform="translate(380,411)"/>
<path d="M0 0 C2 1 2 1 2 1 Z " fill="#e04646" transform="translate(107,411)"/>
<path d="M0 0 C2 1 2 1 2 1 Z " fill="#e04646" transform="translate(453,405)"/>
<path d="" fill="#e04646" transform="translate(0,0)"/>
<path d="M0 0 C2 1 2 1 2 1 Z " fill="#e04646" transform="translate(365,402)"/>
<path d="M0 0 C2 1 2 1 2 1 Z " fill="#e04646" transform="translate(122,402)"/>
<path d="" fill="#e04646" transform="translate(0,0)"/>
<path d="M0 0 C2 1 2 1 2 1 Z " fill="#e04646" transform="translate(362,401)"/>
<path d="M0 0 C2 1 2 1 2 1 Z " fill="#e04646" transform="translate(125,401)"/>
<path d="M0 0 C2 1 2 1 2 1 Z " fill="#e04646" transform="translate(359,400)"/>
<path d="M0 0 C2 1 2 1 2 1 Z " fill="#e04646" transform="translate(128,400)"/>
<path d="" fill="#e04646" transform="translate(0,0)"/>
<path d="" fill="#e04646" transform="translate(0,0)"/>
<path d="M0 0 C2 1 2 1 2 1 Z " fill="#e04646" transform="translate(440,398)"/>
<path d="M0 0 C2 1 2 1 2 1 Z " fill="#e04646" transform="translate(438,397)"/>
<path d="M0 0 C2 1 2 1 2 1 Z " fill="#e04646" transform="translate(348,397)"/>
<path d="M0 0 C2 1 2 1 2 1 Z " fill="#e04646" transform="translate(139,397)"/>
<path d="M0 0 C2 1 2 1 2 1 Z " fill="#e04646" transform="translate(436,396)"/>
<path d="" fill="#e04646" transform="translate(0,0)"/>
<path d="M0 0 C2 1 2 1 2 1 Z " fill="#e04646" transform="translate(434,395)"/>
<path d="M0 0 C2 1 2 1 2 1 Z " fill="#e04646" transform="translate(432,394)"/>
<path d="" fill="#e04646" transform="translate(0,0)"/>
<path d="" fill="#e04646" transform="translate(0,0)"/>
<path d="M0 0 C2 1 2 1 2 1 Z " fill="#e04646" transform="translate(421,389)"/>
<path d="M0 0 C2 1 2 1 2 1 Z " fill="#e04646" transform="translate(419,388)"/>
<path d="M0 0 C2 1 2 1 2 1 Z " fill="#e04646" transform="translate(414,386)"/>
<path d="M0 0 C2 1 2 1 2 1 Z " fill="#e04646" transform="translate(412,385)"/>
<path d="M0 0 C2 1 2 1 2 1 Z " fill="#e04646" transform="translate(407,383)"/>
<path d="M0 0 C2 1 2 1 2 1 Z " fill="#e04646" transform="translate(404,382)"/>
<path d="M0 0 C2 1 2 1 2 1 Z " fill="#e04646" transform="translate(402,381)"/>
<path d="M0 0 C2 1 2 1 2 1 Z " fill="#e04646" transform="translate(399,380)"/>
<path d="M0 0 C2 1 2 1 2 1 Z " fill="#e04646" transform="translate(397,379)"/>
<path d="M0 0 C2 1 2 1 2 1 Z " fill="#e04646" transform="translate(394,378)"/>
<path d="M0 0 C2 1 2 1 2 1 Z " fill="#e04646" transform="translate(391,377)"/>
<path d="M0 0 C2 1 2 1 2 1 Z " fill="#e04646" transform="translate(375,376)"/>
<path d="M0 0 C2 1 2 1 2 1 Z " fill="#e04646" transform="translate(372,375)"/>
<path d="M0 0 C2 1 2 1 2 1 Z " fill="#e04646" transform="translate(369,374)"/>
<path d="M0 0 C2 1 2 1 2 1 Z " fill="#e04646" transform="translate(354,370)"/>
<path d="" fill="#e04646" transform="translate(0,0)"/>
<path d="" fill="#e04646" transform="translate(0,0)"/>
<path d="" fill="#e04646" transform="translate(0,0)"/>
<path d="" fill="#e04646" transform="translate(0,0)"/>
<path d="" fill="#e04646" transform="translate(0,0)"/>
<path d="" fill="#e04646" transform="translate(0,0)"/>
<path d="" fill="#e04646" transform="translate(0,0)"/>
<path d="" fill="#e04646" transform="translate(0,0)"/>
<path d="" fill="#e04646" transform="translate(0,0)"/>
<path d="" fill="#e04646" transform="translate(0,0)"/>
<path d="" fill="#e04646" transform="translate(0,0)"/>
<path d="" fill="#e04646" transform="translate(0,0)"/>
<path d="" fill="#e04646" transform="translate(0,0)"/>
<path d="" fill="#e04646" transform="translate(0,0)"/>
<path d="" fill="#e04646" transform="translate(0,0)"/>
<path d="" fill="#e04646" transform="translate(0,0)"/>
<path d="" fill="#e04646" transform="translate(0,0)"/>
<path d="" fill="#e04646" transform="translate(0,0)"/>
<path d="" fill="#e04646" transform="translate(0,0)"/>
<path d="" fill="#e04646" transform="translate(0,0)"/>
<path d="" fill="#e04646" transform="translate(0,0)"/>
<path d="" fill="#e04646" transform="translate(0,0)"/>
<path d="" fill="#e04646" transform="translate(0,0)"/>
<path d="" fill="#e04646" transform="translate(0,0)"/>
<path d="" fill="#e04646" transform="translate(0,0)"/>
<path d="" fill="#e04646" transform="translate(0,0)"/>
<path d="" fill="#e04646" transform="translate(0,0)"/>
<path d="" fill="#e04646" transform="translate(0,0)"/>
<path d="" fill="#e04646" transform="translate(0,0)"/>
<path d="" fill="#e04646" transform="translate(0,0)"/>
<path d="" fill="#e04646" transform="translate(0,0)"/>
<path d="" fill="#e04646" transform="translate(0,0)"/>
<path d="" fill="#e04646" transform="translate(0,0)"/>
<path d="" fill="#e04646" transform="translate(0,0)"/>
<path d="" fill="#e04646" transform="translate(0,0)"/>
<path d="" fill="#e04646" transform="translate(0,0)"/>
<path d="" fill="#e04646" transform="translate(0,0)"/>
<path d="" fill="#e04646" transform="translate(0,0)"/>
<path d="" fill="#e04646" transform="translate(0,0)"/>
<path d="" fill="#e04646" transform="translate(0,0)"/>
<path d="" fill="#e04646" transform="translate(0,0)"/>
<path d="" fill="#e04646" transform="translate(0,0)"/>
<path d="" fill="#e04646" transform="translate(0,0)"/>
<path d="" fill="#e04646" transform="translate(0,0)"/>
<path d="" fill="#e04646" transform="translate(0,0)"/>
<path d="" fill="#e04646" transform="translate(0,0)"/>
<path d="" fill="#e04646" transform="translate(0,0)"/>
<path d="" fill="#e04646" transform="translate(0,0)"/>
<path d="" fill="#e04646" transform="translate(0,0)"/>
<path d="" fill="#e04646" transform="translate(0,0)"/>
<path d="" fill="#e04646" transform="translate(0,0)"/>
<path d="" fill="#e04646" transform="translate(0,0)"/>
<path d="" fill="#e04646" transform="translate(0,0)"/>
<path d="" fill="#e04646" transform="translate(0,0)"/>
<path d="" fill="#e04646" transform="translate(0,0)"/>
<path d="" fill="#e04646" transform="translate(0,0)"/>
<path d="" fill="#e04646" transform="translate(0,0)"/>
<path d="M0 0 C2 1 2 1 2 1 Z " fill="#e04646" transform="translate(162,164)"/>
<path d="M0 0 C2 1 2 1 2 1 Z " fill="#e04646" transform="translate(167,161)"/>
<path d="M0 0 C2 1 2 1 2 1 Z " fill="#e04646" transform="translate(192,148)"/>
<path d="M0 0 C2 1 2 1 2 1 Z " fill="#e04646" transform="translate(290,145)"/>
<path d="M0 0 C2 1 2 1 2 1 Z " fill="#e04646" transform="translate(285,142)"/>
<path d="M0 0 C2 1 2 1 2 1 Z " fill="#e04646" transform="translate(202,142)"/>
<path d="M0 0 C2 1 2 1 2 1 Z " fill="#e04646" transform="translate(277,136)"/>
<path d="M0 0 C2 1 2 1 2 1 Z " fill="#e04646" transform="translate(210,136)"/>
<path d="" fill="#e04646" transform="translate(0,0)"/>
<path d="" fill="#e04646" transform="translate(0,0)"/>
<path d="" fill="#e04646" transform="translate(0,0)"/>
<path d="" fill="#e04646" transform="translate(0,0)"/>
<path d="" fill="#e04646" transform="translate(0,0)"/>
<path d="" fill="#e04646" transform="translate(0,0)"/>
<path d="" fill="#e04646" transform="translate(0,0)"/>
<path d="" fill="#e04646" transform="translate(0,0)"/>
<path d="" fill="#e04646" transform="translate(0,0)"/>
<path d="" fill="#e04646" transform="translate(0,0)"/>
<path d="" fill="#e04646" transform="translate(0,0)"/>
<path d="" fill="#e04646" transform="translate(0,0)"/>
<path d="" fill="#e04646" transform="translate(0,0)"/>
<path d="" fill="#e04646" transform="translate(0,0)"/>
<path d="" fill="#e04646" transform="translate(0,0)"/>
<path d="" fill="#e04646" transform="translate(0,0)"/>
<path d="" fill="#e04646" transform="translate(0,0)"/>
<path d="M0 0 C2 1 2 1 2 1 Z " fill="#e04646" transform="translate(269,7)"/>
<path d="M0 0 C2 1 2 1 2 1 Z " fill="#e04646" transform="translate(218,7)"/>
<path d="M0 0 C2 1 2 1 2 1 Z " fill="#e04646" transform="translate(267,6)"/>
<path d="M0 0 C2 1 2 1 2 1 Z " fill="#e04646" transform="translate(220,6)"/>
<path d="M0 0 C2 1 2 1 2 1 Z " fill="#e04646" transform="translate(265,5)"/>
<path d="M0 0 C2 1 2 1 2 1 Z " fill="#e04646" transform="translate(222,5)"/>
<path d="M0 0 C2 1 2 1 2 1 Z " fill="#e04646" transform="translate(262,4)"/>
<path d="M0 0 C2 1 2 1 2 1 Z " fill="#e04646" transform="translate(225,4)"/>
<path d="M0 0 C2 1 2 1 2 1 Z " fill="#e04646" transform="translate(227,3)"/>
<path d="" fill="#e04646" transform="translate(0,0)"/>
<path d="" fill="#e04646" transform="translate(0,0)"/>
<path d="" fill="#e04646" transform="translate(0,0)"/>
<path d="" fill="#e04646" transform="translate(0,0)"/>
<path d="" fill="#e04646" transform="translate(0,0)"/>
<path d="" fill="#e04646" transform="translate(0,0)"/>
<path d="" fill="#e04646" transform="translate(0,0)"/>
<path d="" fill="#e04646" transform="translate(0,0)"/>
<path d="" fill="#e04646" transform="translate(0,0)"/>
<path d="" fill="#e04646" transform="translate(0,0)"/>
<path d="" fill="#e04646" transform="translate(0,0)"/>
<path d="" fill="#e04646" transform="translate(0,0)"/>
<path d="" fill="#e04646" transform="translate(0,0)"/>
<path d="" fill="#e04646" transform="translate(0,0)"/>
<path d="" fill="#e04646" transform="translate(0,0)"/>
<path d="" fill="#e04646" transform="translate(0,0)"/>
<path d="" fill="#e04646" transform="translate(0,0)"/>
<path d="" fill="#e04646" transform="translate(0,0)"/>
<path d="" fill="#e04646" transform="translate(0,0)"/>
<path d="" fill="#e04646" transform="translate(0,0)"/>
<path d="" fill="#e04646" transform="translate(0,0)"/>
<path d="" fill="#e04646" transform="translate(0,0)"/>
<path d="" fill="#e04646" transform="translate(0,0)"/>
<path d="" fill="#e04646" transform="translate(0,0)"/>
<path d="" fill="#e04646" transform="translate(0,0)"/>
<path d="" fill="#e04646" transform="translate(0,0)"/>
<path d="" fill="#e04646" transform="translate(0,0)"/>
<path d="" fill="#e04646" transform="translate(0,0)"/>
<path d="" fill="#e04646" transform="translate(0,0)"/>
<path d="" fill="#e04646" transform="translate(0,0)"/>
<path d="" fill="#e04646" transform="translate(0,0)"/>
<path d="" fill="#e04646" transform="translate(0,0)"/>
<path d="" fill="#e04646" transform="translate(0,0)"/>
<path d="" fill="#e04646" transform="translate(0,0)"/>
<path d="" fill="#e04646" transform="translate(0,0)"/>
<path d="" fill="#e04646" transform="translate(0,0)"/>
<path d="" fill="#e04646" transform="translate(0,0)"/>
<path d="" fill="#e04646" transform="translate(0,0)"/>
<path d="" fill="#e04646" transform="translate(0,0)"/>
<path d="" fill="#e04646" transform="translate(0,0)"/>
<path d="" fill="#e04646" transform="translate(0,0)"/>
<path d="" fill="#e04646" transform="translate(0,0)"/>
<path d="" fill="#e04646" transform="translate(0,0)"/>
<path d="" fill="#e04646" transform="translate(0,0)"/>
<path d="" fill="#e04646" transform="translate(0,0)"/>
<path d="" fill="#e04646" transform="translate(0,0)"/>
<path d="" fill="#e04646" transform="translate(0,0)"/>
<path d="" fill="#e04646" transform="translate(0,0)"/>
<path d="" fill="#e04646" transform="translate(0,0)"/>
<path d="" fill="#e04646" transform="translate(0,0)"/>
<path d="" fill="#e04646" transform="translate(0,0)"/>
<path d="" fill="#e04646" transform="translate(0,0)"/>
<path d="" fill="#e04646" transform="translate(0,0)"/>
<path d="" fill="#e04646" transform="translate(0,0)"/>
<path d="" fill="#e04646" transform="translate(0,0)"/>
<path d="" fill="#e04646" transform="translate(0,0)"/>
<path d="" fill="#e04646" transform="translate(0,0)"/>
<path d="" fill="#e04646" transform="translate(0,0)"/>
<path d="" fill="#e04646" transform="translate(0,0)"/>
<path d="" fill="#e04646" transform="translate(0,0)"/>
<path d="" fill="#e04646" transform="translate(0,0)"/>
<path d="" fill="#e04646" transform="translate(0,0)"/>
<path d="" fill="#e04646" transform="translate(0,0)"/>
<path d="" fill="#e04646" transform="translate(0,0)"/>
<path d="" fill="#e04646" transform="translate(0,0)"/>
<path d="" fill="#e04646" transform="translate(0,0)"/>
<path d="" fill="#e04646" transform="translate(0,0)"/>
<path d="" fill="#e04646" transform="translate(0,0)"/>
<path d="" fill="#e04646" transform="translate(0,0)"/>
<path d="" fill="#e04646" transform="translate(0,0)"/>
<path d="" fill="#e04646" transform="translate(0,0)"/>
<path d="" fill="#e04646" transform="translate(0,0)"/>
<path d="" fill="#e04646" transform="translate(0,0)"/>
<path d="" fill="#e04646" transform="translate(0,0)"/>
<path d="" fill="#e04646" transform="translate(0,0)"/>
<path d="" fill="#e04646" transform="translate(0,0)"/>
<path d="" fill="#e04646" transform="translate(0,0)"/>
<path d="" fill="#e04646" transform="translate(0,0)"/>
<path d="" fill="#e04646" transform="translate(0,0)"/>
<path d="" fill="#e04646" transform="translate(0,0)"/>
<path d="" fill="#e04646" transform="translate(0,0)"/>
<path d="" fill="#e04646" transform="translate(0,0)"/>
<path d="" fill="#e04646" transform="translate(0,0)"/>
<path d="" fill="#e04646" transform="translate(0,0)"/>
<path d="" fill="#e04646" transform="translate(0,0)"/>
<path d="" fill="#e04646" transform="translate(0,0)"/>
<path d="" fill="#e04646" transform="translate(0,0)"/>
<path d="" fill="#e04646" transform="translate(0,0)"/>
<path d="" fill="#e04646" transform="translate(0,0)"/>
<path d="" fill="#e04646" transform="translate(0,0)"/>
<path d="" fill="#e04646" transform="translate(0,0)"/>
<path d="" fill="#e04646" transform="translate(0,0)"/>
<path d="" fill="#e04646" transform="translate(0,0)"/>
<path d="" fill="#e04646" transform="translate(0,0)"/>
<path d="" fill="#e04646" transform="translate(0,0)"/>
<path d="" fill="#e04646" transform="translate(0,0)"/>
<path d="" fill="#e04646" transform="translate(0,0)"/>
<path d="" fill="#e04646" transform="translate(0,0)"/>
<path d="" fill="#e04646" transform="translate(0,0)"/>
<path d="" fill="#e04646" transform="translate(0,0)"/>
<path d="" fill="#e04646" transform="translate(0,0)"/>
<path d="" fill="#e04646" transform="translate(0,0)"/>
<path d="" fill="#e04646" transform="translate(0,0)"/>
<path d="" fill="#e04646" transform="translate(0,0)"/>
<path d="" fill="#e04646" transform="translate(0,0)"/>
<path d="" fill="#e04646" transform="translate(0,0)"/>
<path d="" fill="#e04646" transform="translate(0,0)"/>
<path d="" fill="#e04646" transform="translate(0,0)"/>
<path d="" fill="#e04646" transform="translate(0,0)"/>
<path d="" fill="#e04646" transform="translate(0,0)"/>
<path d="" fill="#e04646" transform="translate(0,0)"/>
<path d="" fill="#e04646" transform="translate(0,0)"/>
<path d="" fill="#e04646" transform="translate(0,0)"/>
<path d="" fill="#e04646" transform="translate(0,0)"/>
<path d="" fill="#e04646" transform="translate(0,0)"/>
<path d="" fill="#e04646" transform="translate(0,0)"/>
<path d="" fill="#e04646" transform="translate(0,0)"/>
<path d="" fill="#e04646" transform="translate(0,0)"/>
<path d="" fill="#e04646" transform="translate(0,0)"/>
<path d="" fill="#e04646" transform="translate(0,0)"/>
<path d="" fill="#e04646" transform="translate(0,0)"/>
<path d="" fill="#e04646" transform="translate(0,0)"/>
<path d="" fill="#e04646" transform="translate(0,0)"/>
<path d="" fill="#e04646" transform="translate(0,0)"/>
<path d="" fill="#e04646" transform="translate(0,0)"/>
<path d="" fill="#e04646" transform="translate(0,0)"/>
<path d="" fill="#e04646" transform="translate(0,0)"/>
<path d="" fill="#e04646" transform="translate(0,0)"/>
<path d="" fill="#e04646" transform="translate(0,0)"/>
<path d="" fill="#e04646" transform="translate(0,0)"/>
<path d="" fill="#e04646" transform="translate(0,0)"/>
<path d="" fill="#e04646" transform="translate(0,0)"/>
<path d="" fill="#e04646" transform="translate(0,0)"/>
<path d="" fill="#e04646" transform="translate(0,0)"/>
<path d="" fill="#e04646" transform="translate(0,0)"/>
<path d="" fill="#e04646" transform="translate(0,0)"/>
<path d="" fill="#e04646" transform="translate(0,0)"/>
<path d="" fill="#e04646" transform="translate(0,0)"/>
<path d="" fill="#e04646" transform="translate(0,0)"/>
<path d="" fill="#e04646" transform="translate(0,0)"/>
<path d="" fill="#e04646" transform="translate(0,0)"/>
<path d="" fill="#e04646" transform="translate(0,0)"/>
<path d="" fill="#e04646" transform="translate(0,0)"/>
<path d="" fill="#e04646" transform="translate(0,0)"/>
<path d="" fill="#e04646" transform="translate(0,0)"/>
<path d="" fill="#e04646" transform="translate(0,0)"/>
<path d="" fill="#e04646" transform="translate(0,0)"/>
<path d="" fill="#e04646" transform="translate(0,0)"/>
<path d="" fill="#e04646" transform="translate(0,0)"/>
<path d="" fill="#e04646" transform="translate(0,0)"/>
<path d="" fill="#e04646" transform="translate(0,0)"/>
<path d="" fill="#e04646" transform="translate(0,0)"/>
<path d="" fill="#e04646" transform="translate(0,0)"/>
<path d="" fill="#e04646" transform="translate(0,0)"/>
<path d="" fill="#e04646" transform="translate(0,0)"/>
<path d="" fill="#e04646" transform="translate(0,0)"/>
<path d="" fill="#e04646" transform="translate(0,0)"/>
<path d="" fill="#e04646" transform="translate(0,0)"/>
<path d="" fill="#e04646" transform="translate(0,0)"/>
<path d="" fill="#e04646" transform="translate(0,0)"/>
<path d="" fill="#e04646" transform="translate(0,0)"/>
<path d="" fill="#e04646" transform="translate(0,0)"/>
<path d="" fill="#e04646" transform="translate(0,0)"/>
<path d="" fill="#e04646" transform="translate(0,0)"/>
<path d="" fill="#e04646" transform="translate(0,0)"/>
<path d="" fill="#e04646" transform="translate(0,0)"/>
<path d="" fill="#e04646" transform="translate(0,0)"/>
<path d="" fill="#e04646" transform="translate(0,0)"/>
<path d="" fill="#e04646" transform="translate(0,0)"/>
<path d="" fill="#e04646" transform="translate(0,0)"/>
<path d="" fill="#e04646" transform="translate(0,0)"/>
<path d="" fill="#e04646" transform="translate(0,0)"/>
<path d="" fill="#e04646" transform="translate(0,0)"/>
<path d="" fill="#e04646" transform="translate(0,0)"/>
<path d="" fill="#e04646" transform="translate(0,0)"/>
<path d="" fill="#e04646" transform="translate(0,0)"/>
<path d="" fill="#e04646" transform="translate(0,0)"/>
<path d="" fill="#e04646" transform="translate(0,0)"/>
<path d="" fill="#e04646" transform="translate(0,0)"/>
<path d="" fill="#e04646" transform="translate(0,0)"/>
<path d="" fill="#e04646" transform="translate(0,0)"/>
<path d="" fill="#e04646" transform="translate(0,0)"/>
<path d="" fill="#e04646" transform="translate(0,0)"/>
<path d="" fill="#e04646" transform="translate(0,0)"/>
<path d="" fill="#e04646" transform="translate(0,0)"/>
<path d="" fill="#e04646" transform="translate(0,0)"/>
<path d="" fill="#e04646" transform="translate(0,0)"/>
<path d="" fill="#e04646" transform="translate(0,0)"/>
<path d="" fill="#e04646" transform="translate(0,0)"/>
<path d="" fill="#e04646" transform="translate(0,0)"/>
<path d="" fill="#e04646" transform="translate(0,0)"/>
<path d="" fill="#e04646" transform="translate(0,0)"/>
<path d="" fill="#e04646" transform="translate(0,0)"/>
<path d="" fill="#e04646" transform="translate(0,0)"/>
<path d="" fill="#e04646" transform="translate(0,0)"/>
<path d="" fill="#e04646" transform="translate(0,0)"/>
<path d="" fill="#e04646" transform="translate(0,0)"/>
<path d="" fill="#e04646" transform="translate(0,0)"/>
<path d="" fill="#e04646" transform="translate(0,0)"/>
<path d="" fill="#e04646" transform="translate(0,0)"/>
<path d="" fill="#e04646" transform="translate(0,0)"/>
<path d="" fill="#e04646" transform="translate(0,0)"/>
<path d="" fill="#e04646" transform="translate(0,0)"/>
<path d="" fill="#e04646" transform="translate(0,0)"/>
<path d="" fill="#e04646" transform="translate(0,0)"/>
<path d="" fill="#e04646" transform="translate(0,0)"/>
<path d="" fill="#e04646" transform="translate(0,0)"/>
<path d="" fill="#e04646" transform="translate(0,0)"/>
<path d="" fill="#e04646" transform="translate(0,0)"/>
<path d="" fill="#e04646" transform="translate(0,0)"/>
<path d="" fill="#e04646" transform="translate(0,0)"/>
<path d="" fill="#e04646" transform="translate(0,0)"/>
<path d="" fill="#e04646" transform="translate(0,0)"/>
<path d="" fill="#e04646" transform="translate(0,0)"/>
<path d="" fill="#e04646" transform="translate(0,0)"/>
<path d="" fill="#e04646" transform="translate(0,0)"/>
<path d="" fill="#e04646" transform="translate(0,0)"/>
<path d="" fill="#e04646" transform="translate(0,0)"/>
<path d="" fill="#e04646" transform="translate(0,0)"/>
<path d="" fill="#e04646" transform="translate(0,0)"/>
<path d="" fill="#e04646" transform="translate(0,0)"/>
<path d="" fill="#e04646" transform="translate(0,0)"/>
<path d="" fill="#e04646" transform="translate(0,0)"/>
<path d="" fill="#e04646" transform="translate(0,0)"/>
<path d="" fill="#e04646" transform="translate(0,0)"/>
<path d="" fill="#e04646" transform="translate(0,0)"/>
<path d="" fill="#e04646" transform="translate(0,0)"/>
<path d="" fill="#e04646" transform="translate(0,0)"/>
<path d="" fill="#e04646" transform="translate(0,0)"/>
<path d="" fill="#e04646" transform="translate(0,0)"/>
<path d="" fill="#e04646" transform="translate(0,0)"/>
<path d="" fill="#e04646" transform="translate(0,0)"/>
<path d="" fill="#e04646" transform="translate(0,0)"/>
<path d="" fill="#e04646" transform="translate(0,0)"/>
<path d="" fill="#e04646" transform="translate(0,0)"/>
<path d="" fill="#e04646" transform="translate(0,0)"/>
<path d="" fill="#e04646" transform="translate(0,0)"/>
<path d="" fill="#e04646" transform="translate(0,0)"/>
<path d="" fill="#e04646" transform="translate(0,0)"/>
<path d="" fill="#e04646" transform="translate(0,0)"/>
<path d="" fill="#e04646" transform="translate(0,0)"/>
<path d="" fill="#e04646" transform="translate(0,0)"/>
<path d="" fill="#e04646" transform="translate(0,0)"/>
<path d="" fill="#e04646" transform="translate(0,0)"/>
<path d="" fill="#e04646" transform="translate(0,0)"/>
<path d="" fill="#e04646" transform="translate(0,0)"/>
<path d="" fill="#e04646" transform="translate(0,0)"/>
<path d="" fill="#e04646" transform="translate(0,0)"/>
<path d="" fill="#e04646" transform="translate(0,0)"/>
<path d="" fill="#e04646" transform="translate(0,0)"/>
<path d="" fill="#e04646" transform="translate(0,0)"/>
<path d="" fill="#e04646" transform="translate(0,0)"/>
<path d="" fill="#e04646" transform="translate(0,0)"/>
<path d="" fill="#e04646" transform="translate(0,0)"/>
<path d="" fill="#e04646" transform="translate(0,0)"/>
<path d="" fill="#e04646" transform="translate(0,0)"/>
<path d="" fill="#e04646" transform="translate(0,0)"/>
<path d="" fill="#e04646" transform="translate(0,0)"/>
<path d="" fill="#e04646" transform="translate(0,0)"/>
<path d="" fill="#e04646" transform="translate(0,0)"/>
<path d="" fill="#e04646" transform="translate(0,0)"/>
<path d="" fill="#e04646" transform="translate(0,0)"/>
<path d="" fill="#e04646" transform="translate(0,0)"/>
<path d="" fill="#e04646" transform="translate(0,0)"/>
<path d="" fill="#e04646" transform="translate(0,0)"/>
<path d="" fill="#e04646" transform="translate(0,0)"/>
<path d="" fill="#e04646" transform="translate(0,0)"/>
<path d="" fill="#e04646" transform="translate(0,0)"/>
<path d="" fill="#e04646" transform="translate(0,0)"/>
<path d="" fill="#e04646" transform="translate(0,0)"/>
<path d="" fill="#e04646" transform="translate(0,0)"/>
<path d="" fill="#e04646" transform="translate(0,0)"/>
<path d="" fill="#e04646" transform="translate(0,0)"/>
<path d="" fill="#e04646" transform="translate(0,0)"/>
<path d="" fill="#e04646" transform="translate(0,0)"/>
<path d="" fill="#e04646" transform="translate(0,0)"/>
<path d="" fill="#e04646" transform="translate(0,0)"/>
<path d="" fill="#e04646" transform="translate(0,0)"/>
<path d="" fill="#e04646" transform="translate(0,0)"/>
<path d="" fill="#e04646" transform="translate(0,0)"/>
<path d="" fill="#e04646" transform="translate(0,0)"/>
<path d="" fill="#e04646" transform="translate(0,0)"/>
<path d="" fill="#e04646" transform="translate(0,0)"/>
<path d="" fill="#e04646" transform="translate(0,0)"/>
<path d="" fill="#e04646" transform="translate(0,0)"/>
<path d="" fill="#e04646" transform="translate(0,0)"/>
<path d="" fill="#e04646" transform="translate(0,0)"/>
<path d="" fill="#e04646" transform="translate(0,0)"/>
<path d="" fill="#e04646" transform="translate(0,0)"/>
<path d="" fill="#e04646" transform="translate(0,0)"/>
<path d="" fill="#e04646" transform="translate(0,0)"/>
<path d="" fill="#e04646" transform="translate(0,0)"/>
<path d="" fill="#e04646" transform="translate(0,0)"/>
<path d="" fill="#e04646" transform="translate(0,0)"/>
<path d="" fill="#e04646" transform="translate(0,0)"/>
<path d="" fill="#e04646" transform="translate(0,0)"/>
<path d="" fill="#e04646" transform="translate(0,0)"/>
<path d="" fill="#e04646" transform="translate(0,0)"/>
<path d="" fill="#e04646" transform="translate(0,0)"/>
<path d="" fill="#e04646" transform="translate(0,0)"/>
<path d="" fill="#e04646" transform="translate(0,0)"/>
<path d="" fill="#e04646" transform="translate(0,0)"/>
<path d="" fill="#e04646" transform="translate(0,0)"/>
<path d="" fill="#e04646" transform="translate(0,0)"/>
<path d="" fill="#e04646" transform="translate(0,0)"/>
<path d="" fill="#e04646" transform="translate(0,0)"/>
<path d="" fill="#e04646" transform="translate(0,0)"/>
<path d="" fill="#e04646" transform="translate(0,0)"/>
<path d="" fill="#e04646" transform="translate(0,0)"/>
<path d="" fill="#e04646" transform="translate(0,0)"/>
<path d="" fill="#e04646" transform="translate(0,0)"/>
<path d="" fill="#e04646" transform="translate(0,0)"/>
<path d="" fill="#e04646" transform="translate(0,0)"/>
<path d="" fill="#e04646" transform="translate(0,0)"/>
<path d="" fill="#e04646" transform="translate(0,0)"/>
<path d="" fill="#e04646" transform="translate(0,0)"/>
<path d="" fill="#e04646" transform="translate(0,0)"/>
<path d="" fill="#e04646" transform="translate(0,0)"/>
<path d="" fill="#e04646" transform="translate(0,0)"/>
<path d="" fill="#e04646" transform="translate(0,0)"/>
<path d="" fill="#e04646" transform="translate(0,0)"/>
<path d="" fill="#e04646" transform="translate(0,0)"/>
<path d="" fill="#e04646" transform="translate(0,0)"/>
<path d="" fill="#e04646" transform="translate(0,0)"/>
<path d="" fill="#e04646" transform="translate(0,0)"/>
<path d="" fill="#e04646" transform="translate(0,0)"/>
<path d="" fill="#e04646" transform="translate(0,0)"/>
<path d="" fill="#e04646" transform="translate(0,0)"/>
<path d="" fill="#e04646" transform="translate(0,0)"/>
<path d="" fill="#e04646" transform="translate(0,0)"/>
<path d="" fill="#e04646" transform="translate(0,0)"/>
<path d="" fill="#e04646" transform="translate(0,0)"/>
<path d="" fill="#e04646" transform="translate(0,0)"/>
<path d="" fill="#e04646" transform="translate(0,0)"/>
<path d="" fill="#e04646" transform="translate(0,0)"/>
<path d="" fill="#e04646" transform="translate(0,0)"/>
<path d="" fill="#e04646" transform="translate(0,0)"/>
<path d="" fill="#e04646" transform="translate(0,0)"/>
<path d="" fill="#e04646" transform="translate(0,0)"/>
<path d="" fill="#e04646" transform="translate(0,0)"/>
<path d="" fill="#e04646" transform="translate(0,0)"/>
<path d="" fill="#e04646" transform="translate(0,0)"/>
<path d="" fill="#e04646" transform="translate(0,0)"/>
<path d="" fill="#e04646" transform="translate(0,0)"/>
<path d="" fill="#e04646" transform="translate(0,0)"/>
<path d="" fill="#e04646" transform="translate(0,0)"/>
<path d="" fill="#e04646" transform="translate(0,0)"/>
<path d="" fill="#e04646" transform="translate(0,0)"/>
<path d="" fill="#e04646" transform="translate(0,0)"/>
<path d="" fill="#e04646" transform="translate(0,0)"/>
<path d="" fill="#e04646" transform="translate(0,0)"/>
<path d="" fill="#e04646" transform="translate(0,0)"/>
<path d="" fill="#e04646" transform="translate(0,0)"/>
<path d="" fill="#e04646" transform="translate(0,0)"/>
<path d="" fill="#e04646" transform="translate(0,0)"/>
<path d="" fill="#e04646" transform="translate(0,0)"/>
<path d="" fill="#e04646" transform="translate(0,0)"/>
<path d="" fill="#e04646" transform="translate(0,0)"/>
<path d="" fill="#e04646" transform="translate(0,0)"/>
<path d="" fill="#e04646" transform="translate(0,0)"/>
<path d="" fill="#e04646" transform="translate(0,0)"/>
<path d="" fill="#e04646" transform="translate(0,0)"/>
<path d="" fill="#e04646" transform="translate(0,0)"/>
<path d="" fill="#e04646" transform="translate(0,0)"/>
<path d="" fill="#e04646" transform="translate(0,0)"/>
<path d="" fill="#e04646" transform="translate(0,0)"/>
<path d="" fill="#e04646" transform="translate(0,0)"/>
<path d="" fill="#e04646" transform="translate(0,0)"/>
<path d="" fill="#e04646" transform="translate(0,0)"/>
<path d="" fill="#e04646" transform="translate(0,0)"/>
<path d="" fill="#e04646" transform="translate(0,0)"/>
<path d="" fill="#e04646" transform="translate(0,0)"/>
<path d="" fill="#e04646" transform="translate(0,0)"/>
<path d="" fill="#e04646" transform="translate(0,0)"/>
<path d="" fill="#e04646" transform="translate(0,0)"/>
<path d="" fill="#e04646" transform="translate(0,0)"/>
<path d="" fill="#e04646" transform="translate(0,0)"/>
<path d="" fill="#e04646" transform="translate(0,0)"/>
<path d="" fill="#e04646" transform="translate(0,0)"/>
<path d="" fill="#e04646" transform="translate(0,0)"/>
<path d="" fill="#e04646" transform="translate(0,0)"/>
<path d="" fill="#e04646" transform="translate(0,0)"/>
<path d="" fill="#e04646" transform="translate(0,0)"/>
<path d="" fill="#e04646" transform="translate(0,0)"/>
<path d="" fill="#e04646" transform="translate(0,0)"/>
<path d="" fill="#e04646" transform="translate(0,0)"/>
<path d="" fill="#e04646" transform="translate(0,0)"/>
<path d="" fill="#e04646" transform="translate(0,0)"/>
<path d="" fill="#e04646" transform="translate(0,0)"/>
<path d="" fill="#e04646" transform="translate(0,0)"/>
<path d="" fill="#e04646" transform="translate(0,0)"/>
<path d="" fill="#e04646" transform="translate(0,0)"/>
<path d="" fill="#e04646" transform="translate(0,0)"/>
<path d="" fill="#e04646" transform="translate(0,0)"/>
<path d="" fill="#e04646" transform="translate(0,0)"/>
<path d="" fill="#e04646" transform="translate(0,0)"/>
<path d="" fill="#e04646" transform="translate(0,0)"/>
<path d="" fill="#e04646" transform="translate(0,0)"/>
<path d="" fill="#e04646" transform="translate(0,0)"/>
<path d="" fill="#e04646" transform="translate(0,0)"/>
<path d="" fill="#e04646" transform="translate(0,0)"/>
<path d="" fill="#e04646" transform="translate(0,0)"/>
<path d="" fill="#e04646" transform="translate(0,0)"/>
<path d="" fill="#e04646" transform="translate(0,0)"/>
<path d="" fill="#e04646" transform="translate(0,0)"/>
<path d="" fill="#e04646" transform="translate(0,0)"/>
<path d="" fill="#e04646" transform="translate(0,0)"/>
<path d="" fill="#e04646" transform="translate(0,0)"/>
<path d="" fill="#e04646" transform="translate(0,0)"/>
<path d="" fill="#e04646" transform="translate(0,0)"/>
<path d="" fill="#e04646" transform="translate(0,0)"/>
<path d="" fill="#e04646" transform="translate(0,0)"/>
<path d="" fill="#e04646" transform="translate(0,0)"/>
<path d="" fill="#e04646" transform="translate(0,0)"/>
<path d="" fill="#e04646" transform="translate(0,0)"/>
<path d="" fill="#e04646" transform="translate(0,0)"/>
<path d="" fill="#e04646" transform="translate(0,0)"/>
<path d="" fill="#e04646" transform="translate(0,0)"/>
<path d="" fill="#e04646" transform="translate(0,0)"/>
<path d="" fill="#e04646" transform="translate(0,0)"/>
<path d="" fill="#e04646" transform="translate(0,0)"/>
<path d="" fill="#e04646" transform="translate(0,0)"/>
<path d="" fill="#e04646" transform="translate(0,0)"/>
<path d="" fill="#e04646" transform="translate(0,0)"/>
<path d="" fill="#e04646" transform="translate(0,0)"/>
<path d="" fill="#e04646" transform="translate(0,0)"/>
<path d="" fill="#e04646" transform="translate(0,0)"/>
<path d="" fill="#e04646" transform="translate(0,0)"/>
<path d="" fill="#e04646" transform="translate(0,0)"/>
<path d="" fill="#e04646" transform="translate(0,0)"/>
<path d="" fill="#e04646" transform="translate(0,0)"/>
<path d="" fill="#e04646" transform="translate(0,0)"/>
<path d="" fill="#e04646" transform="translate(0,0)"/>
<path d="" fill="#e04646" transform="translate(0,0)"/>
<path d="" fill="#e04646" transform="translate(0,0)"/>
<path d="" fill="#e04646" transform="translate(0,0)"/>
<path d="" fill="#e04646" transform="translate(0,0)"/>
<path d="" fill="#e04646" transform="translate(0,0)"/>
<path d="" fill="#e04646" transform="translate(0,0)"/>
<path d="" fill="#e04646" transform="translate(0,0)"/>
<path d="" fill="#e04646" transform="translate(0,0)"/>
<path d="" fill="#e04646" transform="translate(0,0)"/>
<path d="" fill="#e04646" transform="translate(0,0)"/>
<path d="" fill="#e04646" transform="translate(0,0)"/>
<path d="" fill="#e04646" transform="translate(0,0)"/>
<path d="" fill="#e04646" transform="translate(0,0)"/>
<path d="" fill="#e04646" transform="translate(0,0)"/>
<path d="" fill="#e04646" transform="translate(0,0)"/>
<path d="" fill="#e04646" transform="translate(0,0)"/>
<path d="" fill="#e04646" transform="translate(0,0)"/>
<path d="" fill="#e04646" transform="translate(0,0)"/>
<path d="" fill="#e04646" transform="translate(0,0)"/>
<path d="" fill="#e04646" transform="translate(0,0)"/>
<path d="" fill="#e04646" transform="translate(0,0)"/>
<path d="" fill="#e04646" transform="translate(0,0)"/>
<path d="" fill="#e04646" transform="translate(0,0)"/>
<path d="" fill="#e04646" transform="translate(0,0)"/>
<path d="" fill="#e04646" transform="translate(0,0)"/>
<path d="" fill="#e04646" transform="translate(0,0)"/>
<path d="" fill="#e04646" transform="translate(0,0)"/>
<path d="" fill="#e04646" transform="translate(0,0)"/>
<path d="" fill="#e04646" transform="translate(0,0)"/>
<path d="" fill="#e04646" transform="translate(0,0)"/>
<path d="" fill="#e04646" transform="translate(0,0)"/>
<path d="" fill="#e04646" transform="translate(0,0)"/>
<path d="" fill="#e04646" transform="translate(0,0)"/>
<path d="" fill="#e04646" transform="translate(0,0)"/>
<path d="" fill="#e04646" transform="translate(0,0)"/>
<path d="" fill="#e04646" transform="translate(0,0)"/>
<path d="" fill="#e04646" transform="translate(0,0)"/>
<path d="" fill="#e04646" transform="translate(0,0)"/>
<path d="" fill="#e04646" transform="translate(0,0)"/>
<path d="" fill="#e04646" transform="translate(0,0)"/>
<path d="" fill="#e04646" transform="translate(0,0)"/>
<path d="" fill="#e04646" transform="translate(0,0)"/>
<path d="" fill="#e04646" transform="translate(0,0)"/>
<path d="" fill="#e04646" transform="translate(0,0)"/>
<path d="" fill="#e04646" transform="translate(0,0)"/>
<path d="" fill="#e04646" transform="translate(0,0)"/>
<path d="" fill="#e04646" transform="translate(0,0)"/>
<path d="" fill="#e04646" transform="translate(0,0)"/>
<path d="" fill="#e04646" transform="translate(0,0)"/>
<path d="" fill="#e04646" transform="translate(0,0)"/>
<path d="" fill="#e04646" transform="translate(0,0)"/>
<path d="" fill="#e04646" transform="translate(0,0)"/>
<path d="" fill="#e04646" transform="translate(0,0)"/>
<path d="" fill="#e04646" transform="translate(0,0)"/>
<path d="" fill="#e04646" transform="translate(0,0)"/>
<path d="" fill="#e04646" transform="translate(0,0)"/>
<path d="" fill="#e04646" transform="translate(0,0)"/>
<path d="" fill="#e04646" transform="translate(0,0)"/>
<path d="" fill="#e04646" transform="translate(0,0)"/>
<path d="" fill="#e04646" transform="translate(0,0)"/>
<path d="" fill="#e04646" transform="translate(0,0)"/>
<path d="" fill="#e04646" transform="translate(0,0)"/>
<path d="" fill="#e04646" transform="translate(0,0)"/>
<path d="" fill="#e04646" transform="translate(0,0)"/>
<path d="" fill="#e04646" transform="translate(0,0)"/>
<path d="" fill="#e04646" transform="translate(0,0)"/>
<path d="" fill="#e04646" transform="translate(0,0)"/>
<path d="" fill="#e04646" transform="translate(0,0)"/>
<path d="" fill="#e04646" transform="translate(0,0)"/>
<path d="" fill="#e04646" transform="translate(0,0)"/>
<path d="" fill="#e04646" transform="translate(0,0)"/>
<path d="" fill="#e04646" transform="translate(0,0)"/>
<path d="" fill="#e04646" transform="translate(0,0)"/>
<path d="" fill="#e04646" transform="translate(0,0)"/>
<path d="" fill="#e04646" transform="translate(0,0)"/>
</svg>
